<?xml version="1.0" encoding="UTF-8"?>
<!DOCTYPE svg PUBLIC "-//W3C//DTD SVG 1.1//EN" "http://www.w3.org/Graphics/SVG/1.1/DTD/svg11.dtd">
<!-- Creator: CorelDRAW 2019 (64-Bit) -->
<svg xmlns="http://www.w3.org/2000/svg" xml:space="preserve" width="8.5in" height="11in" version="1.1" style="shape-rendering:geometricPrecision; text-rendering:geometricPrecision; image-rendering:optimizeQuality; fill-rule:evenodd; clip-rule:evenodd"
viewBox="0 0 8500 11000"
 xmlns:xlink="http://www.w3.org/1999/xlink"
 xmlns:xodm="http://www.corel.com/coreldraw/odm/2003">
 <defs>
  <style type="text/css">
   <![CDATA[
    .fil0 {fill:#FEFEFE}
    .fil2 {fill:#2B2A29}
    .fil3 {fill:black}
    .fil1 {fill:#FF6600}
    .fil4 {fill:url(#id0)}
   ]]>
  </style>
  <linearGradient id="id0" gradientUnits="userSpaceOnUse" x1="3090.15" y1="3825.68" x2="5389.78" y2="6363.89">
   <stop offset="0" style="stop-opacity:1; stop-color:#009934"/>
   <stop offset="0.207843" style="stop-opacity:1; stop-color:#004D1A"/>
   <stop offset="0.419608" style="stop-opacity:1; stop-color:#009934"/>
   <stop offset="1" style="stop-opacity:1; stop-color:black"/>
  </linearGradient>
 </defs>
 <g id="Layer_x0020_1">
  <metadata id="CorelCorpID_0Corel-Layer"/>
  <ellipse class="fil0" cx="4250" cy="5500" rx="3407.68" ry="2726.15"/>
  <ellipse class="fil1" cx="4249.97" cy="5500" rx="3284.79" ry="2627.83"/>
  <ellipse class="fil0" cx="4250.03" cy="5500" rx="3149.34" ry="2519.46"/>
  <path class="fil1" d="M2253.44 6534.14l724.81 0c21.85,-33.61 46.82,-64.82 74.2,-93.88l0 -44.42c0,-25.44 -27.49,-46.08 -61.45,-46.08l-737.56 0c-33.97,0 -61.45,20.64 -61.45,46.08l0 92.19c0,25.44 27.48,46.1 61.45,46.1z"/>
  <path class="fil1" d="M2253.44 6779.98l626.39 0c12,-65.31 33.49,-127.13 62.91,-184.39l-689.3 0c-33.97,0 -61.45,20.63 -61.45,46.08l0 92.22c0,25.44 27.48,46.08 61.45,46.08z"/>
  <path class="fil1" d="M2253.44 6288.29l737.53 0c33.98,0 61.48,-20.65 61.48,-46.09l0 -92.19c0,-25.44 -27.5,-46.11 -61.48,-46.11l-737.53 0c-33.97,0 -61.45,20.66 -61.45,46.11l0 92.19c0,25.44 27.48,46.09 61.45,46.09z"/>
  <path class="fil1" d="M3175.36 6288.29l88.82 0c85.35,-39.13 179.94,-61.46 279.95,-61.46 99.85,0 194.59,22.33 279.93,61.46l88.83 0c33.98,0 61.44,-20.65 61.44,-46.09l0 -92.19c0,-25.44 -27.47,-46.11 -61.44,-46.11l-737.53 0c-33.98,0 -61.46,20.66 -61.46,46.11l0 92.19c0,25.44 27.49,46.09 61.46,46.09z"/>
  <path class="fil1" d="M2253.44 7025.83l626.39 0c-7.44,-39.97 -11.76,-80.91 -11.76,-122.94 0,-20.76 1.19,-41.17 3.11,-61.44l-617.74 0c-33.97,0 -61.45,20.64 -61.45,46.1l0 92.16c0,25.48 27.48,46.12 61.45,46.12z"/>
  <path class="fil1" d="M2990.97 7333.13l-737.53 0c-33.97,0 -61.45,20.64 -61.45,46.08l0 92.2c0,25.44 27.48,46.1 61.45,46.1l737.53 0c33.98,0 61.48,-20.66 61.48,-46.1l0 -92.2c0,-25.44 -27.5,-46.08 -61.48,-46.08z"/>
  <path class="fil1" d="M2253.44 7271.67l724.81 0c-36.73,-56.19 -65.18,-118.25 -84.02,-184.39l-640.79 0c-33.97,-0 -61.45,20.64 -61.45,46.12l0 92.16c0,25.44 27.48,46.11 61.45,46.11z"/>
  <path class="fil1" d="M3175.36 6042.44l737.53 0c33.98,0 61.44,-20.65 61.44,-46.09l0 -92.19c0,-25.45 -27.47,-46.1 -61.44,-46.1l-737.53 0c-33.98,0 -61.46,20.65 -61.46,46.1l0 92.19c0,25.44 27.49,46.09 61.46,46.09z"/>
  <path class="fil1" d="M3175.36 5796.6l737.53 0c33.98,0 61.44,-20.65 61.44,-46.1l0 -92.19c0,-25.44 -27.47,-46.08 -61.44,-46.08l-737.53 0c-33.98,0 -61.46,20.64 -61.46,46.08l0 92.19c0,25.45 27.49,46.1 61.46,46.1z"/>
  <path class="fil2" d="M3830.63 7100.33c44.68,72.87 137.54,59.31 209.37,-35.7 23.09,-30.56 41.54,-66.41 54.23,-103.5 131.52,-25.7 272.98,-53.79 426.08,-84.33 -6.4,71.86 5.81,137.95 40.59,186.19 34.61,49.19 87.14,73.63 148.15,74.48 -31.98,155.52 -62.94,305.24 -91.75,450.39 -24.61,7.08 -49.27,20.54 -70.7,41.3 -63.32,59.15 -80.7,153.68 -41.8,213.24 40.77,59.24 126.02,64.69 193.37,8.28 69.59,-58.89 92.19,-161.09 48.21,-224.37 -14.74,-20.5 -35.88,-33.2 -58.48,-40 30.84,-147.73 63.42,-300.72 97.31,-458.81 69.11,-18.09 143.46,-61.45 213.37,-131.11 72.23,-71.97 125.71,-158.82 156.68,-247 146.09,-29.62 302.49,-61.16 469.85,-94.72 172.85,-34.65 358.59,-72.2 558.02,-112.63 -26.37,90.37 -17.65,171.02 35.66,225.75 115.96,120.38 409.43,80.08 674.07,-107.85 292.73,-208.21 423.5,-502.61 266.7,-632.99 -150.36,-124.88 -490.99,-31.72 -742.43,185.36 -73.98,63.93 -131.76,131.18 -173.33,197.74 -206.83,46.07 -399.11,88.98 -577.69,128.51 -173.19,38.34 -334.54,74.26 -485.02,107.82 9.89,-71.15 2.09,-136.68 -25.6,-187.26 149.85,-163.72 312.67,-340.2 490.13,-532.65 110.09,58.91 324.63,-22.68 516.77,-216.95 233.37,-236.07 335.71,-534.41 211.13,-640.37 -120.67,-104.29 -395.37,26.54 -600.29,266.89 -169.17,199.22 -239.89,416.88 -185.13,530.17 -174.09,192.65 -333.56,370.87 -481.06,535.46 -41.74,-33.08 -95.67,-43.76 -154.94,-34.57 42.86,-190.96 88.98,-389.68 136.87,-596.71 34.51,-23.52 70.25,-56.22 103.54,-98.59 102.89,-130.71 143.83,-293.08 86.58,-353.65 -56.06,-60.24 -182.5,5.32 -278.59,138.63 -91.04,125.91 -122.48,271.26 -73.54,328.94 16.96,19.67 40.94,26.45 69.41,23.46 -45.31,201.99 -88.36,396.22 -129.07,583.2 -72.59,31.28 -144.93,86.88 -207.27,163.44 -60.66,73.68 -101.88,154.99 -123.59,232.99 -152.33,33.56 -293.52,64.7 -424.46,93.33 6.26,-55.96 -1.5,-108.31 -25.17,-144.63 -50.39,-75.63 -150.2,-46.97 -219.01,57.43 -64.8,98.72 -81.01,233.52 -37.19,305.39z"/>
  <path class="fil3" d="M4035.82 6902.89c0,-271.17 -220.52,-491.68 -491.69,-491.68 -271.16,0 -491.69,220.51 -491.69,491.68 0,271.18 220.53,491.7 491.69,491.7 271.17,0 491.69,-220.52 491.69,-491.7z"/>
  <path class="fil1" d="M3749.15 6883.56c14.06,23.78 21.13,51.51 21.13,83.3 0,48.77 -14.53,89.33 -43.56,121.87 -29.08,32.54 -70.94,51.74 -125.82,57.49l0 83.43 -69.86 -0 0 -83.06c-91.33,-9.38 -147.87,-62.56 -169.72,-159.31l108.01 -28.19c9.97,60.86 43.12,91.33 99.39,91.33 26.3,0 45.74,-6.47 58.11,-19.57 12.37,-13.06 18.61,-28.68 18.61,-47.17 0,-19.11 -6.24,-33.61 -18.61,-43.34 -12.37,-9.84 -39.97,-22.3 -82.71,-37.43 -38.41,-13.32 -68.42,-26.43 -90.04,-39.61 -21.59,-12.98 -39.13,-31.1 -52.56,-54.52 -13.58,-23.52 -20.3,-50.89 -20.3,-81.99 0,-40.82 12.13,-77.66 36.13,-110.33 24.14,-32.63 61.94,-52.56 113.68,-59.87l0 -64.46 69.86 0 0 64.46c78.04,9.37 128.69,53.54 151.75,132.52l-96.42 39.48c-18.71,-54.12 -47.65,-81.25 -87.02,-81.25 -19.69,0 -35.53,5.99 -47.43,18.13 -11.99,12.12 -17.99,26.77 -17.99,44.06 0,17.54 5.75,30.97 17.27,40.45 11.54,9.37 36.13,21.02 73.95,34.81 41.43,15.13 74.08,29.53 97.59,42.98 23.65,13.46 42.38,32.17 56.55,55.82z"/>
  <path class="fil1" d="M2273.3 6042.44l737.54 0c33.97,0 61.44,-20.65 61.44,-46.09l0 -92.19c0,-25.45 -27.47,-46.1 -61.44,-46.1l-737.54 0c-33.97,0 -61.46,20.65 -61.46,46.1l0 92.19c0,25.44 27.49,46.09 61.46,46.09z"/>
  <path class="fil1" d="M2273.3 5796.6l737.54 0c33.97,0 61.44,-20.65 61.44,-46.1l0 -92.19c0,-25.44 -27.47,-46.08 -61.44,-46.08l-737.54 0c-33.97,0 -61.46,20.64 -61.46,46.08l0 92.19c0,25.45 27.49,46.1 61.46,46.1z"/>
  <path class="fil4" d="M3790.31 6884.7l163.81 103.02c236.46,-154.72 429.35,-377.49 566.59,-623.96 51.14,-91.86 96.8,-195.91 127.9,-298.02 138.45,-454.66 52.05,-590.33 77.73,-755.35 9.36,-60.13 61.41,-265.24 115.47,-301.44 58.88,15.72 67.47,59.91 166.44,56.13 59.02,-2.26 120.44,-29.5 159.7,-54.06 205.89,-128.78 92.21,-426.01 415.81,-667.51 39.52,-29.5 96.97,-51.9 119.15,-93.81 -271.92,0 -489.57,-5.09 -729.8,140.56 -51.61,31.29 -86.29,56.61 -131.49,90.74 -109.31,82.52 -169.52,252.55 -112.66,390.8 38.87,94.53 72.47,24.76 101.59,-22.24 16.35,-26.4 28.84,-38.73 46.43,-64.69 56.33,-83.19 130.13,-164.05 210.71,-224.47 37.75,-28.31 84.55,-75.13 133.74,-79.22 -17.7,26.43 -222.09,178.11 -305.53,296.32 -60.46,85.67 -178.41,280.21 -203.72,388.86l-18.52 0c-2.96,-132.96 -154.76,-492.47 -222.06,-620.52 -117.11,-222.84 -248.2,-400.68 -402.21,-597.78 -48.59,-62.19 -109.23,-112.54 -160.03,-173.3l-252.73 -247.26c44.14,3.67 54.29,21.87 84.68,44.94 270.91,205.63 487.48,451.36 663.57,743.83l177.67 331.59c34.11,-9.11 45,-29.94 63.19,-57.18 195.53,-292.9 134.37,-602.84 -84.09,-847.84 -91.39,-102.5 -184.71,-195.22 -301.32,-272.75 -182.83,-121.56 -410.71,-217.92 -679.31,-246.61 -69.87,-7.46 -148.14,-11.46 -212.77,-18.71 -80.89,-9.08 -154.31,5.82 -220.88,7.89 -82.46,2.56 -301,23.06 -370.35,83.34 211.38,49.25 426.62,94.26 566.27,267.06 163.6,202.43 117.34,367.85 173.54,650.53 73.91,371.73 250.69,587 614.37,635.67 166.9,22.34 208.04,-54.56 321.73,-81.05 259.61,490.64 140.85,1164.08 -148.01,1601.97 -67.74,102.68 -142.55,193.21 -229.3,279.96 -92.16,92.16 -186.55,169.76 -285.3,234.57z"/>
 </g>
</svg>
