<?xml version="1.0" encoding="UTF-8"?>
<!DOCTYPE svg PUBLIC "-//W3C//DTD SVG 1.1//EN" "http://www.w3.org/Graphics/SVG/1.1/DTD/svg11.dtd">
<!-- Creator: CorelDRAW 2019 (64-Bit) -->
<svg xmlns="http://www.w3.org/2000/svg" xml:space="preserve" width="8.5in" height="11in" version="1.1" style="shape-rendering:geometricPrecision; text-rendering:geometricPrecision; image-rendering:optimizeQuality; fill-rule:evenodd; clip-rule:evenodd"
viewBox="0 0 8500 11000"
 xmlns:xlink="http://www.w3.org/1999/xlink"
 xmlns:xodm="http://www.corel.com/coreldraw/odm/2003">
 <defs>
  <style type="text/css">
   <![CDATA[
    .fil5 {fill:#FEFEFE}
    .fil0 {fill:#E31E24}
    .fil2 {fill:black}
    .fil4 {fill:#DE2129}
    .fil1 {fill:#FFE718}
    .fil6 {fill:url(#id0)}
    .fil3 {fill:url(#id1)}
   ]]>
  </style>
  <linearGradient id="id0" gradientUnits="userSpaceOnUse" x1="3533.57" y1="3609.93" x2="5255.22" y2="5578.59">
   <stop offset="0" style="stop-opacity:1; stop-color:#009934"/>
   <stop offset="0.164706" style="stop-opacity:1; stop-color:#715C2C"/>
   <stop offset="0.329412" style="stop-opacity:1; stop-color:#009934"/>
   <stop offset="1" style="stop-opacity:1; stop-color:#E31E24"/>
  </linearGradient>
  <linearGradient id="id1" gradientUnits="userSpaceOnUse" x1="1758.41" y1="4709.03" x2="4120.14" y2="5926.44">
   <stop offset="0" style="stop-opacity:1; stop-color:#009934"/>
   <stop offset="0.858824" style="stop-opacity:1; stop-color:#715C2C"/>
   <stop offset="1" style="stop-opacity:1; stop-color:#E31E24"/>
  </linearGradient>
 </defs>
 <g id="Layer_x0020_1">
  <metadata id="CorelCorpID_0Corel-Layer"/>
  <ellipse class="fil0" cx="4250" cy="5500" rx="3407.68" ry="2726.15"/>
  <ellipse class="fil1" cx="4249.97" cy="5500" rx="3284.79" ry="2627.83"/>
  <ellipse class="fil2" cx="4250.03" cy="5500" rx="3149.34" ry="2519.46"/>
  <g id="_2666922843280">
  </g>
  <g id="_2666922842192">
  </g>
  <g id="_2666922839824">
  </g>
  <g id="_2666922840880">
  </g>
  <g id="_2666922840240">
  </g>
  <g id="_2666922839536">
  </g>
  <g id="_2666922841392">
  </g>
  <g id="_2666922838384">
  </g>
  <g id="_2666922838928">
  </g>
  <g id="_2666922839216">
  </g>
  <g id="_2666922837424">
  </g>
  <g id="_2666922835664">
  </g>
  <g id="_2666922836272">
  </g>
  <g id="_2666922836176">
  </g>
  <g id="_2666922835472">
  </g>
  <path class="fil0" d="M4057.92 7566.76l152.69 2.08c-1.8,79.48 -0.85,159.81 -0.7,239.23 0.15,78.16 13.47,172.41 -69.12,178.81 -100.49,7.79 -81.4,-117.94 -81.26,-168.99 0.23,-82.6 2.36,-168.97 -1.62,-251.13z"/>
  <path class="fil0" d="M4538.96 7568.12l150.43 1.45c-1.17,80.97 -0.53,159.95 -0.43,238.51 0.1,74.21 14.12,171.97 -66.42,179.2 -95.49,8.57 -83.35,-94.59 -83.15,-169.39 0.23,-83.1 0.73,-166.7 -0.43,-249.76z"/>
  <path class="fil3" d="M2994.41 5513.7c510.83,462.18 733.59,454.93 1371.51,504.1l0.09 357.69c-42.05,-126.69 -131.69,-222.63 -305.2,-259.41 -688.19,-69.59 -615.22,-41.42 -1151.56,-533.47 -102.7,-92.14 -80.28,-274.9 -194.56,-338.5 -192.2,-106.96 -303.89,50.19 -603.06,66.88 131.02,80.37 304.62,-54.58 414.36,-44.37 -1.34,22.22 3.27,7.32 -8.64,31.99 -57.36,118.84 -260.01,201.48 -405.25,179.74 -82.83,-12.4 -134.93,-36.67 -199.23,-81.7 -72.84,-51.03 -105.31,-112.05 -165.31,-162.31l-6.43 -16.87c152.71,-41.73 282.39,-87.96 431.92,-146.01 147.27,-57.16 274.52,-47.86 346.18,69.03 89.93,-1.56 174.37,1.57 226.46,38.86 -89.94,-334.02 -276.41,-418.21 -521.98,-537.96 -78.49,-38.28 -131.98,-56.61 -201.18,-126.46 28.83,102.59 153.38,146.46 218.31,180.65 69.73,36.72 171.51,83.25 236,151.4 -144.47,147.04 -575.56,27.4 -675.03,-382.02 -32.39,-133.28 -11.51,-200.6 -21.3,-307.05 39.75,10.67 93.44,57.87 152.93,81.07 142.01,55.37 130.02,68.94 304.38,124.39 16.77,5.33 17.09,7.03 35.31,13.1l123.15 49.8c36.43,19.91 97.63,75.74 124.78,125.56 42.27,77.57 31.82,177.98 39.8,189.85 28.51,42.42 148.78,77.56 232.66,288.78 55.74,140.37 109.21,296.56 170.79,432.74 8.24,18.24 18.39,35.14 30.12,50.5z"/>
  <path class="fil4" d="M4299.89 6126.34c33.23,-187.45 -50.32,-337.13 -85.33,-416.06l129.26 -71.53c93.18,139.78 114.94,243.72 68.13,313.2 805.7,-82.5 1105.96,-0.76 1728.36,-604.99l87.86 1.39c-169.67,263.35 -575.07,522.82 -875.37,625.78 -182.45,62.56 -904.89,-6.63 -895.97,185.06 6.65,142.91 -10.79,296.55 10.27,438.31 180.13,-2.89 153.88,72.9 171.11,164.71 153.72,2.38 138.4,0.01 190.87,89.83l0 494.93 -909.17 -3.93c0,-150.19 -9.01,-329.79 0.34,-476.34 12.51,-196.08 261.69,-69.85 348.72,-128.46 5.03,-74.73 -80.8,-37.9 -153.68,-50.28 29.74,-125.08 82.53,-74.81 175.37,-105.91 12.24,-45.73 12.78,-323.43 9.21,-455.72z"/>
  <g id="_2666922830768">
   <path class="fil1" d="M5720.22 4173.48l77.98 65.46c3.83,3.22 8.48,4.76 13.1,4.76 5.81,0 11.59,-2.46 15.61,-7.27 7.23,-8.62 6.11,-21.47 -2.51,-28.7l-77.98 -65.46c-8.62,-7.21 -21.45,-6.09 -28.7,2.51 -7.23,8.64 -6.11,21.47 2.5,28.7z"/>
   <path class="fil1" d="M5733.4 4351.24l-95.69 -34.81c-10.57,-3.83 -22.24,1.61 -26.11,12.19 -3.83,10.57 1.61,22.26 12.18,26.11l95.68 34.81c2.3,0.83 4.65,1.24 6.97,1.24 8.31,0 16.13,-5.15 19.15,-13.43 3.85,-10.57 -1.61,-22.27 -12.18,-26.12z"/>
   <path class="fil1" d="M5696.96 4517.24l-101.81 0c-11.24,0 -20.37,9.13 -20.37,20.37 0,11.24 9.13,20.37 20.37,20.37l101.81 0c11.24,0 20.37,-9.13 20.37,-20.37 0,-11.24 -9.13,-20.37 -20.37,-20.37z"/>
   <path class="fil1" d="M6374.18 3926.4l-26.32 98.35c-1.3,4.83 -0.74,9.7 1.22,13.89 2.46,5.26 7.14,9.46 13.19,11.06 10.87,2.91 22.04,-3.54 24.94,-14.41l26.33 -98.35c2.89,-10.86 -3.56,-22.02 -14.41,-24.95 -10.89,-2.9 -22.04,3.54 -24.95,14.41z"/>
   <path class="fil1" d="M6218.69 4013.54l-8.93 -101.43c-1,-11.2 -10.87,-19.47 -22.09,-18.51 -11.2,1 -19.5,10.88 -18.51,22.09l8.93 101.43c0.22,2.44 0.84,4.74 1.82,6.84 3.52,7.53 11.49,12.44 20.26,11.67 11.21,-0.98 19.5,-10.87 18.51,-22.08z"/>
   <path class="fil1" d="M6052.85 4050.74l-43.07 -92.26c-4.76,-10.19 -16.89,-14.6 -27.07,-9.84 -10.19,4.76 -14.6,16.89 -9.84,27.07l43.07 92.26c4.76,10.19 16.89,14.6 27.08,9.84 10.19,-4.76 14.59,-16.89 9.84,-27.07z"/>
   <path class="fil1" d="M6247.02 4924.62c11.27,0 20.37,-9.13 20.37,-20.37l0 -285.2 61.11 0c56.16,0 101.86,-45.69 101.86,-101.85 0,-56.16 -45.69,-101.86 -101.86,-101.86 -56.16,0 -101.85,45.69 -101.85,101.86l0 61.11 -81.48 0 0 -61.11c0,-56.16 -45.69,-101.86 -101.86,-101.86 -56.16,0 -101.85,45.69 -101.85,101.86 0,56.16 45.69,101.85 101.85,101.85l61.11 0 0 285.2c0,11.24 9.13,20.37 20.37,20.37 11.24,0 20.37,-9.13 20.37,-20.37l0 -285.2 81.48 0 0 285.2c0,11.24 9.11,20.37 20.37,20.37zm20.37 -407.42c0,-33.69 27.42,-61.11 61.11,-61.11 33.69,0 61.11,27.42 61.11,61.11 0,33.69 -27.42,61.11 -61.11,61.11l-61.11 0 0 -61.11zm-162.96 61.11l-61.11 0c-33.69,0 -61.11,-27.42 -61.11,-61.11 0,-33.69 27.42,-61.11 61.11,-61.11 33.69,0 61.11,27.42 61.11,61.11l0 61.11z"/>
   <path class="fil1" d="M6560.44 4243.7c4.61,0 9.25,-1.57 13.06,-4.76l78.02 -65.5c8.62,-7.23 9.76,-20.06 2.51,-28.7 -7.17,-8.58 -20.02,-9.74 -28.69,-2.51l-78.02 65.49c-8.62,7.23 -9.74,20.07 -2.51,28.7 4.01,4.79 9.8,7.27 15.62,7.27z"/>
   <path class="fil1" d="M6760.17 4328.54c-3.83,-10.55 -15.54,-16.03 -26.09,-12.16l-95.7 34.83c-10.59,3.85 -16.03,15.54 -12.18,26.12 3.02,8.27 10.81,13.41 19.15,13.41 2.3,0 4.67,-0.39 6.95,-1.24l95.72 -34.83c10.57,-3.85 16.03,-15.55 12.16,-26.12z"/>
   <path class="fil5" d="M6185.9 4130.15c-224.65,0 -407.42,182.77 -407.42,407.42 0,171.93 67.43,300.19 212.25,403.63 0.69,0.49 1.71,1.1 2.46,1.5 1.06,0.57 22.98,12.81 28.48,47.16 -23,8.78 -39.48,30.93 -39.48,56.98 0,15.65 5.91,29.93 15.6,40.74 -9.7,10.82 -15.6,25.1 -15.6,40.74 0,15.65 5.91,29.93 15.6,40.74 -9.7,10.81 -15.6,25.09 -15.6,40.74 0,33.69 27.42,61.11 61.11,61.11 11.24,0 20.37,-9.13 20.37,-20.37 0,-11.24 -9.13,-20.37 -20.37,-20.37 -11.22,0 -20.37,-9.15 -20.37,-20.37 0,-11.22 9.15,-20.37 20.37,-20.37l203.71 0c11.27,0 20.37,-9.13 20.37,-20.37 0,-11.24 -9.1,-20.37 -20.37,-20.37l-203.71 0c-11.22,0 -20.37,-9.15 -20.37,-20.37 0,-11.22 9.15,-20.37 20.37,-20.37l203.71 0c11.27,0 20.37,-9.13 20.37,-20.37 0,-11.24 -9.1,-20.37 -20.37,-20.37l-203.71 0c-11.22,0 -20.37,-9.15 -20.37,-20.37 0,-11.22 9.15,-20.37 20.37,-20.37l203.71 0c11.27,0 20.37,-9.13 20.37,-20.37 0,-11.24 -9.1,-20.37 -20.37,-20.37l-184.72 0c-7.21,-51.29 -40.46,-73.52 -48.79,-78.33 -134.37,-96.29 -194.28,-210.39 -194.28,-369.84 0,-202.18 164.5,-366.68 366.68,-366.68 202.18,0 366.68,164.5 366.68,366.68 0,159.44 -59.91,273.55 -194.28,369.84 -9.37,5.4 -50.17,32.8 -50.17,98.7 0,11.24 9.1,20.37 20.37,20.37 11.24,0 20.37,9.15 20.37,20.37 0,11.22 -9.13,20.37 -20.37,20.37 -11.27,0 -20.37,9.13 -20.37,20.37 0,11.24 9.1,20.37 20.37,20.37 11.24,0 20.37,9.15 20.37,20.37 0,11.22 -9.13,20.37 -20.37,20.37 -11.27,0 -20.37,9.13 -20.37,20.37 0,11.24 9.1,20.37 20.37,20.37 11.24,0 20.37,9.15 20.37,20.37 0,11.61 -8.76,20.37 -20.37,20.37l-203.71 0c-11.24,0 -20.37,9.13 -20.37,20.37l0 40.74c0,33.69 27.42,61.11 61.11,61.11l40.74 0c33.69,0 61.11,-27.42 61.11,-61.11l0 -20.37 61.11 0c34.28,0 61.11,-26.85 61.11,-61.11 0,-15.65 -5.91,-29.93 -15.6,-40.74 9.7,-10.81 15.6,-25.1 15.6,-40.74 0,-15.65 -5.91,-29.92 -15.6,-40.74 9.7,-10.82 15.6,-25.1 15.6,-40.74 0,-26.06 -16.48,-48.2 -39.5,-56.98 5.5,-34.34 27.4,-46.57 28.23,-47.04 0.96,-0.47 1.87,-1.02 2.73,-1.63 144.8,-103.44 212.25,-231.7 212.25,-403.63 0,-224.65 -182.77,-407.42 -407.43,-407.42zm40.74 1161.15c0,11.22 -9.13,20.37 -20.37,20.37l-40.74 0c-11.22,0 -20.37,-9.15 -20.37,-20.37l0 -20.37 81.48 0 0 20.37z"/>
   <path class="fil1" d="M6776.67 4517.2l-101.85 0c-11.27,0 -20.37,9.13 -20.37,20.37 0,11.24 9.1,20.37 20.37,20.37l101.85 0c11.27,0 20.37,-9.13 20.37,-20.37 0,-11.24 -9.1,-20.37 -20.37,-20.37z"/>
  </g>
  <path class="fil6" d="M4175.75 5633.75c-39.83,-71.54 -75.39,-152.57 -99.61,-232.1 -107.83,-354.09 -40.54,-459.75 -60.54,-588.26 -7.29,-46.83 -47.82,-206.57 -89.93,-234.76 -45.85,12.24 -52.55,46.66 -129.63,43.71 -45.96,-1.76 -93.8,-22.98 -124.37,-42.1 -160.35,-100.3 -71.81,-331.78 -323.83,-519.86 -30.78,-22.97 -75.52,-40.42 -92.79,-73.06 211.77,0 381.28,-3.96 568.37,109.47 40.19,24.37 67.2,44.09 102.4,70.67 85.13,64.26 132.02,196.69 87.74,304.35 -30.28,73.61 -56.44,19.28 -79.12,-17.32 -12.74,-20.56 -22.46,-30.17 -36.15,-50.38 -43.87,-64.78 -101.35,-127.76 -164.1,-174.81 -29.41,-22.04 -65.85,-58.51 -104.16,-61.69 13.78,20.58 172.96,138.71 237.94,230.77 47.09,66.72 138.95,218.22 158.66,302.84l14.42 0c2.31,-103.55 120.53,-383.54 172.94,-483.26 91.21,-173.54 193.3,-312.05 313.24,-465.56 37.84,-48.43 85.07,-87.63 124.63,-134.96l196.82 -192.57c-34.37,2.86 -42.28,17.04 -65.95,35.01 -210.99,160.14 -379.65,351.51 -516.79,579.29l-138.36 258.24c-26.57,-7.09 -35.05,-23.31 -49.21,-44.53 -152.28,-228.1 -104.65,-469.48 65.49,-660.29 71.18,-79.83 143.85,-152.04 234.67,-212.42 142.39,-94.67 319.86,-169.72 529.05,-192.05 54.41,-5.81 115.37,-8.93 165.7,-14.57 63,-7.07 120.18,4.53 172.02,6.15 64.21,2 234.42,17.96 288.43,64.91 -164.62,38.35 -332.25,73.41 -441.01,207.98 -127.41,157.65 -91.38,286.48 -135.15,506.63 -57.56,289.5 -195.24,457.15 -478.48,495.06 -129.98,17.4 -162.01,-42.49 -250.56,-63.12 -202.19,382.11 -109.7,906.58 115.27,1247.61 66.67,128.76 139.69,269.28 114.22,378.49l-168.97 -117.26 -39.5 -110.77 -73.81 -155.46z"/>
 </g>
</svg>
