<?xml version="1.0" encoding="UTF-8"?>
<!DOCTYPE svg PUBLIC "-//W3C//DTD SVG 1.1//EN" "http://www.w3.org/Graphics/SVG/1.1/DTD/svg11.dtd">
<!-- Creator: CorelDRAW 2019 (64-Bit) -->
<svg xmlns="http://www.w3.org/2000/svg" xml:space="preserve" width="8.5in" height="11in" version="1.1" style="shape-rendering:geometricPrecision; text-rendering:geometricPrecision; image-rendering:optimizeQuality; fill-rule:evenodd; clip-rule:evenodd"
viewBox="0 0 8500 11000"
 xmlns:xlink="http://www.w3.org/1999/xlink"
 xmlns:xodm="http://www.corel.com/coreldraw/odm/2003">
 <defs>
  <style type="text/css">
   <![CDATA[
    .fil1 {fill:#FEFEFE}
    .fil2 {fill:#C5C6C6}
    .fil7 {fill:#E63C24}
    .fil4 {fill:#E31E24}
    .fil5 {fill:black}
    .fil3 {fill:#009934}
    .fil8 {fill:#8C9410}
    .fil0 {fill:#940052}
    .fil9 {fill:#FF6600}
    .fil6 {fill:#FFE718}
   ]]>
  </style>
 </defs>
 <g id="Layer_x0020_1">
  <metadata id="CorelCorpID_0Corel-Layer"/>
  <g id="_2666701338352">
   <ellipse class="fil0" cx="4250" cy="5500" rx="3407.68" ry="2726.15"/>
   <ellipse class="fil1" cx="4249.97" cy="5500" rx="3284.79" ry="2627.83"/>
   <ellipse class="fil2" cx="4250.03" cy="5500" rx="3149.34" ry="2519.46"/>
   <polygon class="fil3" points="2183.52,3458.06 2183.52,3458.06 "/>
   <path class="fil3" d="M3371.74 4371.94l21.51 38.17c-0.95,0.25 -1.92,0.49 -2.89,0.72 -7.81,-11.65 -12.86,-25.68 -18.61,-38.89z"/>
   <path class="fil4" d="M5958.54 4402.54c25.26,-252.77 252.15,-437.52 505.91,-412.16 253.76,25.36 439.59,251.36 414.33,504.13 -25.26,252.77 -253.14,437.42 -505.91,412.16 -252.77,-25.26 -439.59,-251.36 -414.33,-504.13zm682.28 68.19c12.14,-121.44 -77.62,-231.14 -201.04,-243.48 -123.42,-12.33 -233.02,76.44 -245.25,198.87 -12.24,122.43 78.61,231.24 202.03,243.57 123.42,12.33 232.02,-76.54 244.26,-198.97z"/>
   <path class="fil5" d="M2721.46 6807.46c-25.26,252.77 -252.15,437.52 -505.91,412.16 -253.76,-25.36 -439.59,-251.36 -414.33,-504.13 25.26,-252.77 252.15,-437.52 505.91,-412.16 253.76,25.36 439.49,252.35 414.33,504.13zm-683.27 -68.29c-12.14,121.45 77.62,231.14 201.04,243.48 122.44,12.24 233.02,-76.43 245.25,-198.87 12.24,-122.44 -77.62,-231.14 -201.04,-243.48 -122.53,-11.25 -233.11,77.42 -245.26,198.87z"/>
   <path class="fil6" d="M4683.03 5859.67c-20.44,-24.98 -29.23,-56.78 -26.17,-87.38 3.06,-30.61 17.87,-59.04 42.94,-80.47 51.05,-41.77 126.09,-34.27 167.86,16.78l222.17 271.52 271.52 -222.17c51.04,-41.77 126.08,-34.27 167.85,16.78 41.77,51.05 34.27,126.09 -16.78,167.85l-271.52 222.17 222.17 271.52c41.77,51.05 34.27,126.09 -16.78,167.85 -51.05,41.77 -126.09,34.27 -167.85,-16.78l-222.17 -271.52 -271.52 222.17c-51.05,41.77 -126.09,34.27 -167.85,-16.78 -20.44,-24.98 -29.23,-56.78 -26.17,-87.38 3.06,-30.61 17.87,-59.04 42.94,-80.47l271.52 -222.17 -222.17 -271.52z"/>
   <path class="fil3" d="M3809.98 3768.95c41.77,51.04 34.27,126.08 -16.78,167.85l-271.52 222.17 222.17 271.52c41.77,51.04 34.27,126.08 -16.78,167.85 -51.04,41.77 -126.08,34.27 -167.85,-16.78l-222.17 -271.52 -271.52 222.17c-51.04,41.77 -126.08,34.27 -167.85,-16.78 -20.44,-24.98 -29.23,-56.77 -26.17,-87.38 3.06,-30.61 17.87,-59.05 42.94,-80.47l271.52 -222.17 -222.17 -271.52c-20.44,-24.98 -29.23,-56.78 -26.17,-87.38 3.06,-30.61 17.87,-59.04 42.95,-80.47 51.04,-41.77 126.08,-34.27 167.85,16.78l222.17 271.52 271.52 -222.17c52.03,-41.67 126.08,-34.27 167.85,16.78z"/>
   <path class="fil1" d="M3058.46 5111.92c41.77,51.05 34.27,126.09 -16.78,167.85l-271.52 222.17 222.17 271.52c41.77,51.05 34.27,126.09 -16.78,167.85 -51.05,41.77 -126.09,34.27 -167.85,-16.78l-222.17 -271.52 -271.52 222.17c-51.05,41.77 -126.09,34.27 -167.85,-16.78 -20.44,-24.98 -29.23,-56.78 -26.17,-87.38 3.06,-30.61 17.87,-59.04 42.95,-80.47l271.52 -222.17 -222.17 -271.52c-20.44,-24.98 -29.23,-56.77 -26.17,-87.38 3.06,-30.61 17.87,-59.04 42.94,-80.47 51.05,-41.77 126.09,-34.27 167.85,16.78l222.17 271.52 271.52 -222.17c50.95,-40.79 125.99,-33.29 167.86,16.77z"/>
   <path class="fil7" d="M3872.4 5968.13c6.52,-65.17 65.16,-113.16 130.33,-106.65 65.17,6.52 113.15,65.17 106.64,130.33 -6.51,65.17 -65.16,113.15 -130.33,106.64 -65.17,-6.51 -113.26,-64.17 -106.65,-130.33z"/>
   <path class="fil8" d="M3435.13 6810.98c-10.86,-21.03 -15.5,-44.43 -13.23,-67.14 3.85,-38.51 26.36,-74.15 63.19,-93.41 57.86,-30.12 130.43,-7.91 160.55,49.95 30.12,57.86 7.91,130.43 -49.95,160.55 -57.96,31.11 -130.53,8.9 -160.55,-49.95z"/>
   <path class="fil9" d="M3978.67 6491.33c-32.68,57.56 -105.44,77.22 -162.02,44.64 -42.46,-24.19 -63.79,-70.2 -59.25,-115.62 1.58,-15.8 6.22,-32.29 14.71,-47.39 32.68,-57.57 105.44,-77.22 162.02,-44.64 57.47,33.68 77.12,106.43 44.54,163.01z"/>
   <circle class="fil0" transform="matrix(0.0565294 -0.565595 -0.565595 -0.0565294 4037.76 5510.97)" r="209.49"/>
   <path class="fil6" d="M2965.34 6831.83c3.16,-31.59 19.05,-60.92 42.94,-80.47 23.9,-19.55 55.79,-29.33 87.38,-26.17 31.59,3.16 60.92,19.05 80.47,42.94 19.55,23.9 29.33,55.79 26.17,87.38 -3.16,31.59 -19.05,60.92 -42.94,80.47 -23.9,19.55 -55.79,29.33 -87.38,26.17 -31.59,-3.16 -60.92,-19.05 -80.47,-42.94 -19.55,-23.9 -29.33,-55.79 -26.17,-87.38z"/>
   <path class="fil0" d="M5252.34 3785.46l412.35 503.93c41.77,51.05 34.27,126.09 -16.78,167.85l-503.94 412.36c-51.05,41.77 -126.09,34.27 -167.85,-16.78 -41.77,-51.04 -34.27,-126.08 16.78,-167.85l281.29 -230.17 -306.09 -30.59c-383.1,-38.29 -725.51,244.61 -764.1,630.68 -6.51,65.17 -65.16,113.16 -130.33,106.65 -65.17,-6.52 -113.16,-65.17 -106.64,-130.33 51.61,-516.4 511.31,-895.28 1024.75,-843.96l307.07 30.69 -230.17 -281.29c-20.44,-24.98 -29.23,-56.77 -26.17,-87.38 3.06,-30.61 17.87,-59.05 42.95,-80.47 50.06,-41.87 125.1,-34.37 166.87,16.67z"/>
   <path class="fil7" d="M6503 4969.34l-1.36 263.77c-0.25,49.59 -40.55,89.48 -90.14,89.22 -49.59,-0.26 -89.48,-40.56 -89.22,-90.15l1.36 -263.77 0.92 -179.37 1.36 -263.77c0.12,-24.27 10.26,-46.9 26.7,-63.17 16.44,-16.27 38.64,-25.65 63.44,-26.05 49.59,0.25 89.48,40.55 89.22,90.14l-1.35 263.78 -0.92 179.36z"/>
  </g>
 </g>
</svg>
