<?xml version="1.0" encoding="UTF-8"?>
<!DOCTYPE svg PUBLIC "-//W3C//DTD SVG 1.1//EN" "http://www.w3.org/Graphics/SVG/1.1/DTD/svg11.dtd">
<!-- Creator: CorelDRAW 2019 (64-Bit) -->
<svg xmlns="http://www.w3.org/2000/svg" xml:space="preserve" width="8.5in" height="11in" version="1.1" style="shape-rendering:geometricPrecision; text-rendering:geometricPrecision; image-rendering:optimizeQuality; fill-rule:evenodd; clip-rule:evenodd"
viewBox="0 0 8500 11000"
 xmlns:xlink="http://www.w3.org/1999/xlink"
 xmlns:xodm="http://www.corel.com/coreldraw/odm/2003">
 <defs>
  <style type="text/css">
   <![CDATA[
    .fil0 {fill:#C5C6C6}
    .fil1 {fill:#2B2A29}
    .fil7 {fill:#E31E24}
    .fil3 {fill:black}
    .fil5 {fill:#009934}
    .fil6 {fill:#009934}
    .fil4 {fill:#DE2129}
    .fil8 {fill:#FCFCFC}
    .fil2 {fill:#FFE718}
   ]]>
  </style>
 </defs>
 <g id="Layer_x0020_1">
  <metadata id="CorelCorpID_0Corel-Layer"/>
  <ellipse class="fil0" cx="4250" cy="5500" rx="3407.68" ry="2726.15"/>
  <ellipse class="fil1" cx="4249.97" cy="5500" rx="3284.79" ry="2627.83"/>
  <ellipse class="fil2" cx="4250.02" cy="5500" rx="3149.34" ry="2519.46"/>
  <g id="_2666832847872">
   <g>
    <path class="fil3" d="M1969.02 5297.81l0 52.17c-200.57,-83.22 -315.49,-296.13 -274.36,-509.92 41.54,-215.79 230.4,-371.75 450.17,-371.71l-0 0c204.8,0 384.76,135.83 440.93,332.78 56.15,196.95 -25.13,407.26 -199.14,515.28 -7.27,4.61 -16.46,4.96 -24.07,0.92 -7.61,-4.03 -12.47,-11.83 -12.71,-20.45 -0.26,-8.62 4.11,-16.71 11.48,-21.18 159.89,-99.26 231.79,-294.54 174.41,-473.76 -57.36,-179.24 -229.28,-296.49 -417.09,-284.45 -187.8,12.04 -343.34,150.27 -377.37,335.35 -33.63,183.04 60.08,365.48 227.77,444.98z"/>
    <path class="fil3" d="M1974.73 6326.06c-83.66,175.95 -92.13,291.72 -23.1,493.92 69.03,202.19 231.24,210.47 348.25,133.04 96.77,-129.21 114.89,-259.57 75.24,-418.57 -3.95,-26.64 -18.4,-29.64 -35.13,-28.39 -21.65,9.45 -14.58,31.86 -10.63,58.5 60.07,404.15 -252.1,481.14 -342.5,198.56 -53.65,-167.7 -43.02,-242.12 27.99,-378.19 4.98,-9.59 7.83,-23.12 7.83,-37.33l0 -1269.88c-2.4,-411.9 246.61,-397.24 244.3,0l0 1269.96c0,27.91 10.73,50.51 23.97,50.51 13.24,0 23.97,-22.61 23.97,-50.51l0 -1269.96c2.29,-461.28 -342.52,-460.98 -340.18,0l0 1248.34z"/>
    <g>
     <path class="fil4" d="M2144.83 4376.35c13.24,0 23.97,-10.73 23.97,-23.97l0 -218.45c0,-13.24 -10.73,-23.97 -23.97,-23.97 -13.24,0 -23.97,10.73 -23.97,23.97l0 218.45c0,13.24 10.73,23.97 23.97,23.97zm0 0z"/>
     <path class="fil4" d="M2546.45 4542.72c6.35,0 12.45,-2.53 16.94,-7.02l154.48 -154.46c9.37,-9.37 9.37,-24.55 0,-33.92 -9.36,-9.36 -24.53,-9.36 -33.89,0l-154.48 154.46c-6.85,6.85 -8.9,17.17 -5.19,26.12 3.71,8.97 12.45,14.81 22.15,14.81l-0.02 0zm0 0z"/>
     <path class="fil4" d="M2931.25 4896.38l-218.45 0c-13.24,0 -23.97,10.73 -23.97,23.97 0,13.24 10.73,23.97 23.97,23.97l218.45 0c13.24,0 23.97,-10.73 23.97,-23.97 0,-13.24 -10.73,-23.97 -23.97,-23.97zm0 0z"/>
     <path class="fil4" d="M2563.39 5305.03c-9.42,-9.08 -24.36,-8.95 -33.61,0.3 -9.23,9.25 -9.36,24.19 -0.28,33.59l154.5 154.46c6.01,6.24 14.93,8.75 23.3,6.56 8.39,-2.19 14.94,-8.74 17.13,-17.11 2.19,-8.39 -0.3,-17.31 -6.54,-23.32l-154.5 -154.48zm0 0z"/>
     <path class="fil4" d="M1726.26 5305.03l-154.48 154.46c-6.24,6.01 -8.73,14.93 -6.54,23.31 2.19,8.37 8.74,14.93 17.11,17.12 8.39,2.19 17.31,-0.32 23.31,-6.56l154.48 -154.46c9.08,-9.4 8.95,-24.37 -0.3,-33.6 -9.25,-9.25 -24.19,-9.38 -33.59,-0.28l-0 0zm0 0z"/>
     <path class="fil4" d="M1600.82 4920.35c0,-13.24 -10.73,-23.97 -23.97,-23.97l-218.45 0c-13.24,0 -23.97,10.73 -23.97,23.97 0,13.24 10.73,23.97 23.97,23.97l218.45 0c13.24,0 23.97,-10.73 23.97,-23.97l0 0zm0 0z"/>
     <path class="fil4" d="M1726.26 4535.68c6.03,6.22 14.93,8.73 23.32,6.52 8.37,-2.19 14.93,-8.73 17.11,-17.12 2.19,-8.37 -0.32,-17.29 -6.56,-23.31l-154.48 -154.46c-9.37,-9.36 -24.54,-9.36 -33.9,0 -9.36,9.37 -9.36,24.55 0,33.9l154.5 154.48zm0 0z"/>
    </g>
    <g>
     <path class="fil5" d="M1831.48 4925.89c-13.24,0 -23.97,-10.73 -23.97,-23.97 -0.07,-120.89 71.95,-230.18 183.08,-277.76 12.17,-5.22 26.29,0.41 31.52,12.59 5.2,12.19 -0.43,26.29 -12.6,31.52 -93.5,40.06 -154.13,132.01 -154.05,233.74 -0.04,13.22 -10.77,23.89 -23.97,23.89zm0 0z"/>
     <path class="fil5" d="M2109.67 4599.78c13.24,0 23.97,10.73 23.97,23.97 0,13.24 -10.73,23.97 -23.97,23.97 -6.93,0 -13.78,0.28 -20.6,0.82l-1.91 0c-13.24,0.52 -24.4,-9.78 -24.93,-23.01 -0.54,-13.24 9.78,-24.4 23.02,-24.93 8.05,-0.54 16.18,-0.83 24.42,-0.83zm0 0z"/>
    </g>
    <path class="fil4" d="M2168.8 5966.99l0 -1041.77c0,-31.29 -10.74,-56.65 -23.97,-56.65 -13.24,0 -23.97,25.36 -23.97,56.65l0 1660.39c-41.96,47.21 -48.99,23.01 -49.25,104.27 11.54,79.06 44.05,89.78 79.98,89.57 33.09,-8.41 60.88,-17.15 66.8,-99.03 -6.46,-79.01 -6.52,-47.21 -49.58,-94.81l0 -618.62zm0 0z"/>
   </g>
   <path class="fil6" d="M5283.7 5036.78c403.28,-203.39 722.6,-249.01 1165.17,-21.06l-188.44 80.21c-2.15,-3.57 -4.18,-9.01 -5.48,-11.25 -47.59,-82.14 -106.08,-87.63 -239.25,-62.02 -129.31,24.87 -127.86,73 -206.66,139.64l13.34 122.22c-30.3,19 -36.15,29.39 -90.53,40.94l-64.55 -145.27c-82.24,12.58 -12.21,-7.26 -56.65,32.28 -69.27,61.63 55.35,-40.34 -16.11,17.87 -40.2,32.75 -44.78,9.96 -60.72,45.58 -19.56,43.68 2.53,50.91 19.76,53.76l23.69 3.96c3.37,0.2 8.76,-0.44 12.32,-0.39l80.53 4.47c-46.13,127.62 17.59,51.08 -91.61,89.82 -59.99,21.28 -60.13,30.83 -65.6,107.58 75.23,37.67 121.96,42.17 188.06,102.75 228.06,208.98 232.46,359.8 153.29,644.07 104.72,149.07 81.24,58.33 69.93,279.8 -4.09,80.25 51.84,198.93 92.01,258.7 100.61,19.57 186.82,-26.07 236.46,-75.29 59.05,-58.55 54.86,-130.82 119.73,-162.44l1.47 105.47c104.69,-8.89 76.62,-10.59 120.61,-85.26 35.94,-61.02 49.31,-41.9 56.02,-124.29 -59.67,-16.4 -83.73,12.83 -132.93,26.71 -19.72,-314.09 240.72,-232.61 198.45,-473.88l-146.26 -14.87c-56.33,-62.7 -92.43,-154.13 -102.39,-256.64 81.01,52.84 56.25,150.18 154.44,237.65 68.73,-3.21 108.68,-23.85 141.34,-63.11 41.66,-50.07 39.41,-100.65 68.28,-146.61 130.51,21.3 119.59,23.14 144.7,159.33 8.82,47.84 12.94,128.46 58.32,150.74 77.36,37.97 38.71,1.74 49.89,-1.91 29.49,-101.12 -28.84,-157.7 20.12,-244.91 82.74,412.72 -103.51,459.4 -178.89,541.48 4.37,94.79 36.64,7.54 -4.44,117.02 -65.12,173.56 -89.83,13.8 -163.67,204.04 -15.13,38.97 -31.84,111.86 -42.22,134.66 -40.19,88.24 -329.15,216.43 -464.65,247.32 -223,50.83 -430,36.81 -636.19,-32.9 -275.26,-93.07 -313.84,-157.23 -386.93,-327.24 46.16,-92.2 76.78,-2.84 37.03,-163.07 -65.35,34.8 -93.89,63.45 -155.37,97.81 -53.23,29.75 -117.72,46.65 -155.49,82.7 198.31,250.34 383.41,402.02 724.7,490.17 641.34,165.65 1311.83,-202.83 1529.63,-846.61 110.62,-326.96 66.51,-726.23 -83.84,-1000.67 -502.26,-916.76 -1797.19,-911.16 -2279.01,16.74 -131.08,252.44 -208.73,694.91 -72.18,990.11 99.56,2.84 170.82,-49.46 224.39,-103.31 -51.38,-150.43 -38.01,-144.23 -137.02,-244.23 -26.67,-58.56 33.06,-418.29 92.92,-517.28 60.02,-99.25 174.75,-23.2 380.8,-212.85 107.2,-98.67 94.16,-136.82 49.68,-288.25z"/>
   <path class="fil4" d="M2829.55 5627.11c149.59,44.76 62.66,219.74 62.62,219.91 -11.23,53.41 86.2,158.89 142.89,183.21 209.85,89.99 747.37,-50.8 816.22,-145.15 28.72,-39.37 15.83,-69.3 59.75,-118.14 30.95,-34.42 50.09,-37.7 85.53,-89.83 120.95,-177.91 88.07,-389.84 -3.51,-538.59 -45.63,-74.11 -27.62,-24.69 -49.15,-115.93 -42.33,-179.31 -692.51,-424.6 -885.49,-282.02 -127.1,93.9 -41.57,135.58 -68.61,225.93 -28.59,95.56 -160.71,121.29 -230.13,41.66 -105.55,-121.08 24.68,-169.89 140.18,-304.11 166.78,-193.81 381.56,-178 636.35,-100.37 193.28,58.88 329.66,139.9 467.44,252.98 87.69,71.96 126.86,16.97 214.59,142.69 162.23,232.48 156.03,584.17 3.74,813.65 -37.91,57.11 -131.21,162.77 -174.33,178.17 -115.57,41.25 31.37,-34.43 -246.94,87 -291.01,126.96 -828.41,241.52 -1020.27,-108.88 -96.55,-176.31 -129.1,-101.97 -131.22,-209.62 -1.83,-92.66 83.93,-161.39 180.36,-132.53z"/>
   <path class="fil7" d="M5287.39 5789.6c374.03,-125.31 492.71,431.75 171.91,528.93 -350.15,106.06 -530.46,-408.8 -171.91,-528.93zm-1229.46 -74.82c14.69,277.09 87.79,691.03 315.39,849.88 326.24,227.7 559.41,24.5 788.07,-143.04 537.16,186.63 825.42,-354.65 478.67,-688.3 -310.34,-298.62 -923.2,98.02 -591.37,589.37 -80.8,68.3 -142.29,135.8 -276.84,180.98 -423.56,142.22 -555.92,-446.93 -573.3,-784.92l-140.62 -3.97z"/>
   <path class="fil8" d="M5428.78 5934.67c281.78,304.34 -391.94,315.89 -115.73,-3.76l115.73 3.76zm-141.39 -145.06c-358.56,120.13 -178.25,634.99 171.91,528.93 320.81,-97.18 202.12,-654.24 -171.91,-528.93z"/>
   <path class="fil4" d="M5428.78 5934.67l-115.73 -3.76c-276.21,319.65 397.51,308.1 115.73,3.76z"/>
  </g>
 </g>
</svg>
