<?xml version="1.0" encoding="UTF-8"?>
<!DOCTYPE svg PUBLIC "-//W3C//DTD SVG 1.1//EN" "http://www.w3.org/Graphics/SVG/1.1/DTD/svg11.dtd">
<!-- Creator: CorelDRAW 2019 (64-Bit) -->
<svg xmlns="http://www.w3.org/2000/svg" xml:space="preserve" width="8.5in" height="11in" version="1.1" style="shape-rendering:geometricPrecision; text-rendering:geometricPrecision; image-rendering:optimizeQuality; fill-rule:evenodd; clip-rule:evenodd"
viewBox="0 0 8500 11000"
 xmlns:xlink="http://www.w3.org/1999/xlink"
 xmlns:xodm="http://www.corel.com/coreldraw/odm/2003">
 <defs>
  <style type="text/css">
   <![CDATA[
    .fil1 {fill:#FEFEFE}
    .fil0 {fill:#009934}
   ]]>
  </style>
 </defs>
 <g id="Layer_x0020_1">
  <metadata id="CorelCorpID_0Corel-Layer"/>
  <g id="_2666531804960">
   <g>
    <ellipse class="fil0" cx="4250" cy="5500" rx="3407.68" ry="2726.15"/>
    <ellipse class="fil1" cx="4249.97" cy="5500" rx="3284.79" ry="2627.83"/>
    <ellipse class="fil0" cx="4250.02" cy="5500" rx="3149.34" ry="2519.46"/>
   </g>
   <g>
    <path class="fil1" d="M5645.65 4910.18c-150.49,0 -35.94,-168.77 -10.55,-168.77 59.38,0 9.98,46.55 84.39,52.74 0,-65.27 9.62,-71.88 63.29,-84.39 0,90.98 6.42,65.82 64.87,103.92 83.74,54.59 92.8,85.95 -12.12,85.95 -55.06,0 -61.04,-21.1 -105.48,-21.1 -56.61,0 -49.88,31.65 -84.39,31.65zm-1656.08 -1371.28l0 0zm0 0l-287.91 281.69c-57.87,69.23 -126.94,126.58 -182.31,197.43 -175.45,224.54 -324.79,427.15 -458.21,681.01 -76.67,145.88 -249.6,555.44 -252.98,706.91l-21.09 0c-28.84,-123.78 -163.21,-345.41 -232.09,-443 -95.06,-134.67 -327.9,-307.46 -348.07,-337.57 56.04,4.66 109.36,58 152.37,90.25 91.8,68.83 175.87,160.95 240.05,255.72 20.03,29.57 34.26,43.62 52.89,73.69 33.17,53.54 71.44,133.03 115.73,25.34 64.78,-157.5 -3.81,-351.2 -128.34,-445.21 -51.49,-38.87 -91,-67.72 -149.79,-103.37 -273.67,-165.93 -521.63,-160.13 -831.41,-160.13 25.26,47.75 90.72,73.28 135.74,106.87 368.65,275.12 239.15,613.74 473.7,760.45 44.72,27.97 114.71,59 181.94,61.58 112.74,4.31 122.54,-46.03 189.61,-63.94 61.58,41.24 120.89,274.91 131.55,343.41 29.26,187.99 -69.18,342.56 88.55,860.52 35.43,116.33 87.44,234.87 145.7,339.52 166.78,299.52 405.71,568.33 700.05,745.07 52.18,31.33 96.07,59.64 154.19,88.42 59.62,29.52 102.94,49.28 165.3,77.31 254.19,114.27 512.1,150.84 808.7,151.2 475.51,0.58 906.83,-173.2 1247.12,-451.15 135.97,-111.07 250.57,-231.04 356.22,-371.61 496.21,-660.24 566.19,-1665.43 42.19,-2362.83 -286.7,-381.58 -705.22,-666.87 -1182.77,-747.57 -74.63,-12.61 -134.86,-15.3 -215.64,-26.97 -69.93,-10.11 -160.43,-12.64 -235.06,-4.5 -45.37,4.95 -105.49,11.89 -149.55,29.78 -28.02,11.37 -14.16,5.52 -49.71,13.58 -101.58,23.02 -65.44,59.65 -159.8,82.81 -55.43,13.6 -203.24,115.28 -189.02,166.12 18.81,67.27 112.3,-49.15 253.63,-69.86 78.28,-11.48 134.06,-1.64 219.41,-23.2 307.31,-77.63 123.23,-205.27 545.69,-113.87 190.54,41.23 298.74,96.54 371.69,113.54 -8.64,32.36 -9.03,23.99 -33.15,40.7 -61.79,42.8 -81.78,99.08 -125.08,128.08 -69.14,-16.55 -15.23,-28.09 -10.55,-84.39l-146.06 -44.12c-96.31,-29.7 -129.93,25.39 -183.6,83.66 -54.44,59.12 -93.11,90.6 -166.12,129.23l0 63.29c76.42,66.23 74.82,-5 125.79,31.59 22.59,16.22 27.01,50.04 42.98,73.89 109.33,-25.47 43.15,-182.78 114.63,-256.98 75.37,-78.25 13.66,64.93 13.26,78.25 -2.12,69.93 69.23,52.16 135.81,52.16l-22.37 9.27c-40.56,19.07 -55.85,59.92 -80.23,99.09 -30.16,48.46 3.02,24.15 -34.53,39.31 -42.27,21.71 -108.43,25.36 -152.36,14.87 -88.71,-21.19 -62.99,-2.52 -133.91,25.85 -104.91,41.97 -135.87,117.5 -262.25,117.5l0 21.09c71.61,19.12 60.25,93.61 31.65,147.68 -160.05,-3.56 -155.37,-107.27 -219.98,64.82 -21.52,57.32 -52.48,140.48 82.68,147.11 170.47,8.36 97.51,-72.61 190.13,-127.46 58.52,-34.65 49.56,-8.26 84.3,-73.92 26.96,0 55.46,2.54 81.56,-2.82 75.96,-15.61 57.2,-35.74 126.94,26.39 40.9,36.43 94.69,71.99 121.66,120.95l17.93 34.81c16.82,-72.21 38.07,-71.78 -26.87,-120.74 -38.05,-28.68 -73.87,-54.46 -78.61,-111.32 37.09,9.9 17.22,6.86 47.2,26.64 51.22,33.8 105.11,52.76 133.75,108.86 11.31,22.16 8.19,29.81 25.47,48.96 10.32,11.43 39,26.75 54.29,21.99 67.13,-20.9 -33.38,-66.63 87.38,-69.32 50.78,75.83 11.1,121.4 133.96,141.09 116.08,18.59 148.53,-82.63 168.56,63.61 16.6,121.23 -59.81,108.27 -155.22,112.23 -112.14,4.65 -145.38,-33.11 -231.69,-53.22l-41.73 42.65c-55.7,85.87 -19.06,63.98 -285.26,-63.75 1.8,-80.88 87.17,-172.4 -333.15,-101.09 -95.27,16.17 -219.21,8.33 -280.83,88.36 -34.18,44.39 -18.15,73.59 -69.34,109.98 -42.51,30.22 -80.23,19.78 -121.51,57.81l-121.31 153.22c-20.6,34.56 -13.92,29.98 -8.65,77.11 12.83,114.52 -73.33,188.08 -36.2,290.12 31.78,87.34 46.01,188.6 113.61,255.72 86.62,86 279.63,147.58 419.13,117.84 69.77,-14.87 72.44,-36.43 153.44,-36.43 15.94,30.12 22.48,63.57 59.35,77.78 44.72,17.23 74.2,-4.8 119.97,17.16 45.81,95.46 -38.8,160.17 -7.63,206.84 18.91,28.33 38.83,24.22 67,60.8 21.61,28.07 35.19,54.56 47.75,89.38 33.01,91.52 47.02,118.72 -7.79,195.88 -88.83,125.05 48.85,172.87 67,272.33 11.44,62.67 -12.51,63.07 20.67,116.45 18.6,29.92 37.48,39.52 50.76,75.82 15.87,43.38 8.19,71.01 58.84,77.19 34.12,4.17 193.37,-23.44 223.77,-36.35 110.72,-47.05 153.26,-102.24 216.02,-184.82 30.59,-40.26 48.65,-25.16 76.59,-60.54 67.94,-86.02 -27.7,-76.7 178.39,-211.9 100.39,-65.85 53.22,-221.96 43.18,-318.48 -5.34,-51.33 7.84,-65.19 27.15,-96.41 20.13,-32.57 34.71,-51.88 54.38,-82.74 20.2,-31.69 26.48,-45.26 50.03,-76.56 92.63,-123.07 215.72,-202.89 215.72,-459.36 -54.37,4.52 -97.92,61.48 -179.32,63.29l-223.95 -229.63c-19.1,-30.33 -23.48,-41.72 -35.16,-80.87 -25.45,-85.35 -95.13,-140.54 -129.54,-221.23 -16.85,-39.51 0.01,-53.66 36.33,-25.53 53.44,41.39 179.86,265.03 244.48,338.11 34.1,38.58 47.51,113.02 76.2,155.86 116.98,-9.74 312.48,-235.48 336.74,-359.87 1.26,-6.45 7.61,-45.14 7.63,-45.49l-0.01 -16.12c-4.18,-39.04 1.37,-32.26 -37.63,-54.18 -128.69,-72.33 -121.06,138.58 -267.29,-101.73 -15.82,-26 -17.48,-27.37 -18.34,-66.05 56.46,4.7 67.07,49.84 105.49,74.39 66,42.19 62.28,-17.29 123.92,11.61 124.14,58.21 95.21,-43.81 287.46,-43.81 46.13,96.15 73.93,345.27 73.84,495.77 -0.12,216.17 -21.31,346.27 -72.48,507.68 -78.38,247.23 -182.42,463.67 -340.26,661.83 -286.15,359.24 -714.13,617.56 -1168.51,709.09 -143.13,28.83 -348.76,63.13 -536.1,38.35 -467.61,-61.85 -829.74,-228.07 -1165.8,-564.12 -98.83,-98.82 -184.05,-201.96 -261.22,-318.94 -329.09,-498.86 -464.38,-1266.06 -168.62,-1825 129.53,30.18 176.39,117.79 366.52,92.33 414.32,-55.45 615.72,-300.69 699.91,-724.17 64.02,-322.04 11.32,-510.49 197.7,-741.1 159.09,-196.85 404.3,-248.13 645.11,-304.24 -79.01,-68.67 -327.98,-92.03 -421.92,-94.95 -75.83,-2.36 -159.48,-19.33 -251.63,-8.99 -73.62,8.26 -162.8,12.81 -242.39,21.31 -306,32.67 -565.61,142.46 -773.89,280.94 -132.85,88.32 -239.15,193.95 -343.27,310.72 -248.87,279.11 -318.55,632.2 -95.8,965.88 20.72,31.04 33.12,54.76 71.99,65.14l202.4 -377.75c200.6,-333.19 447.33,-613.13 755.96,-847.39 34.63,-26.28 46.19,-47.02 96.47,-51.2z"/>
    <path class="fil1" d="M3061.31 5680.2c0,477.4 45.39,648.52 263.69,1054.85 22.69,42.23 118.89,197.62 168.79,210.94 -6.28,-75.39 -26.67,-75.83 56.77,-101.44 125.82,-38.63 48.72,-188.28 48.72,-215 0,-190.89 249.19,-107.74 -81.84,-435.02 -42.21,-41.73 -71.09,-91.3 -113.24,-129.37 -106.81,-96.46 16.62,-32.82 -107.41,-240.69 -75.22,-126.06 -100.88,-100.85 -125.92,-243.26 -16.42,-93.39 22.47,-151.69 -88.45,-154.16 0,93.34 -21.1,152.88 -21.1,253.16z"/>
    <path class="fil1" d="M4812.33 4488.24c0,55.09 -30.07,45.17 -31.64,116.03 133.72,0 82,5.27 137.13,-31.64 -13.11,-24.78 -37.69,-55.92 -45.69,-80.89 -15.64,-48.79 11.81,-98.44 -38.7,-98.44 -75.64,0 -21.09,74.42 -21.09,94.94z"/>
    <path class="fil1" d="M4664.65 4562.08c179.05,-14.9 112.21,-212.06 0,0z"/>
    <path class="fil1" d="M5255.36 5047.31c-28,-13.44 -11.29,-9.63 -52.74,-10.55 5.76,21.58 2.08,29.71 27.42,36.74 22.55,6.26 19.3,-3.62 25.32,-26.19z"/>
   </g>
  </g>
 </g>
</svg>
