<?xml version="1.0" encoding="UTF-8"?>
<!DOCTYPE svg PUBLIC "-//W3C//DTD SVG 1.1//EN" "http://www.w3.org/Graphics/SVG/1.1/DTD/svg11.dtd">
<!-- Creator: CorelDRAW 2019 (64-Bit) -->
<svg xmlns="http://www.w3.org/2000/svg" xml:space="preserve" width="8.5in" height="11in" version="1.1" style="shape-rendering:geometricPrecision; text-rendering:geometricPrecision; image-rendering:optimizeQuality; fill-rule:evenodd; clip-rule:evenodd"
viewBox="0 0 8500 11000"
 xmlns:xlink="http://www.w3.org/1999/xlink"
 xmlns:xodm="http://www.corel.com/coreldraw/odm/2003">
 <defs>
  <style type="text/css">
   <![CDATA[
    .fil1 {fill:#FEFEFE}
    .fil3 {fill:black}
    .fil2 {fill:#009934}
    .fil4 {fill:#4D7822}
    .fil6 {fill:#596A1B}
    .fil9 {fill:#5C8323}
    .fil10 {fill:#739527}
    .fil5 {fill:#9DBE38}
    .fil12 {fill:#E6B562}
    .fil7 {fill:#EBBD6C}
    .fil15 {fill:#ECCB86}
    .fil8 {fill:#F6D589}
    .fil13 {fill:#F6D696}
    .fil14 {fill:#F8E2AA}
    .fil16 {fill:#FCFCF4}
    .fil17 {fill:#FDFDFD}
    .fil11 {fill:#FEF4C5}
    .fil0 {fill:#FF9C18}
   ]]>
  </style>
 </defs>
 <g id="Layer_x0020_1">
  <metadata id="CorelCorpID_0Corel-Layer"/>
  <g id="_2666678186608">
   <ellipse class="fil0" cx="4250" cy="5500" rx="3407.68" ry="2726.15"/>
   <ellipse class="fil1" cx="4249.97" cy="5500" rx="3284.79" ry="2627.83"/>
   <ellipse class="fil0" cx="4250.03" cy="5500" rx="3149.34" ry="2519.46"/>
   <g>
    <path class="fil2" d="M2346.25 6343.28l-0.54 0c11.13,286.7 108.73,597.43 258.63,884.09 0,0 357.74,724.63 1481.18,724.63 1123.35,0 1487.53,-718.28 1487.53,-718.28 150.2,-287.92 241.31,-596.71 252.73,-890.2l-0.79 0c0.48,-8.06 0.77,-15.37 0.77,-23 0,-137.79 -85.2,-266.73 -231.96,-377.95 -689.26,-311.04 -1475.85,-363.31 -2217.58,-316.19 0.75,65.78 1.5,131.57 2.25,197.35 461.96,-77.87 1392.3,-6.26 2058.93,218.94 96.83,65 152.82,137.54 152.82,214.64 0,271.33 -673.66,491.48 -1504.71,491.48 -830.92,0 -1504.41,-220.21 -1504.41,-491.48 0,-187.73 323.07,-350.81 797.37,-433.57l-2.25 -197.35c-607.09,118.84 -1030.76,384.41 -1030.76,694.16 0,7.55 0.26,14.93 0.79,22.74z"/>
    <path class="fil1" d="M5600.12 5201.39c22.66,42.59 56.98,112.21 38.45,228.56 -21.92,141.48 -93.64,212.92 -114.12,242.77 -7.3,-31.71 -49.3,-118.87 -29.08,-252.54 18.9,-118.38 61.81,-184.11 84.44,-230.91 46.78,-181.02 117.89,-337.55 172.52,-459.02 79.94,-176.83 131.98,-286.08 131.73,-286.16l-120.2 290.05c-51.93,124.83 -119.99,284.99 -163.73,467.25zm200.07 -269.91c18.41,40.79 45.8,107.42 21.54,213.98 -29.5,129.48 -100.3,191.12 -121.36,217.61 -4.56,-29.94 -37.94,-113.66 -10.57,-235.35 24.94,-108.9 68.54,-166.91 92.56,-208.65 53.75,-164.49 128.1,-304.92 185.17,-414.06l136.8 -257.45 -126.86 261.34c-54.17,112.5 -125.96,256.65 -177.26,422.57zm215.3 -258.59c14.44,38.46 35.3,101.73 6.13,198.19 -35.34,117.57 -104.83,169.54 -125.9,192.46 -1.73,-28.22 -26.52,-107.21 6.3,-217.58 29.63,-98.41 72.92,-148.59 97.74,-185.57 59.85,-147.88 135.86,-272.69 194.74,-369.44l140.23 -228.78 -130.76 233.35c-56.66,100.27 -130.73,228.04 -188.48,377.39zm455.66 -71.27c-25.67,29.44 -57.69,77.94 -134.48,128.69 -85.46,58.48 -161.44,62.96 -186.87,70.48 12.9,-24.46 35.72,-100.2 129.59,-164.12 77.48,-51.35 138.76,-48.65 176.86,-45.43 115.95,-83.24 213.4,-167.62 293.5,-228.6 113.2,-88.76 188.67,-134.19 188.35,-134.81 0.39,0.37 -72.64,49.91 -182.33,141.87 -76.66,62.52 -170.34,148.15 -284.62,231.91zm-21.11 -115.94c-52.41,62.24 -108.91,73.01 -139.55,87.49 3.15,-27.27 -12.28,-92.91 46.96,-163.86 50.85,-58.65 109.55,-70 139.17,-76.19 210.14,-241.18 403.4,-403.87 448.07,-442.46l9.83 -8.83c1.92,1.42 -209.96,189.63 -449.3,471.59 -4.44,31.45 -13.14,84.09 -55.19,132.26zm-300.83 529.32c-91.91,64.02 -174.74,70.77 -201.98,78.98 13.14,-27 36.64,-110.81 138.04,-181.22 83.11,-57.2 150.32,-54.28 191.74,-51.1 125.41,-91.68 230.56,-184 316.08,-251.6 122.5,-96.69 202.77,-147.63 202.98,-148.29 -0.11,0.37 -78.07,55.62 -196.62,155.95 -81.97,69.04 -182.93,162.67 -305.96,255.29 -27.84,32.28 -62.15,84.7 -144.26,141.98zm97.37 -588.05c10.06,36.27 24.51,95.01 -8.07,181.33 -41.2,105.13 -107.23,147.85 -127.88,167.46 0.24,-25.52 -17.55,-100.23 20.86,-198.57 32.93,-88.23 76.64,-130.94 101.49,-163.27 64.07,-130.65 142.46,-239.34 201.53,-324.43l141.96 -199.73c0.23,0.07 -49.94,79.31 -134.07,204.63 -56.88,88.04 -133.52,199.89 -195.81,332.59zm-122.6 719.37c-29.18,35.87 -65.05,93.23 -152.44,156.17 -98.17,70.91 -187.46,79.96 -216.8,89.84 13.64,-29.89 37.37,-121.57 145.36,-199.49 88.91,-63.78 161.13,-61.37 206.19,-58.32 133.59,-101.39 245.84,-202.37 337.02,-276.56 130.85,-105.74 217.39,-161.92 217.22,-162.23 0.16,0.3 -82.85,60.93 -210.19,170.63 -87.13,75.52 -194.93,177.89 -326.36,279.96zm-485.09 531.35c-29.54,9 -52.59,13.99 -65.24,18.72 13.72,-32.79 36.43,-132.93 151,-219.41 67.13,-50.46 126.41,-63.88 172.43,-66.83l202.84 -205.39c0.23,0.07 -69.1,76.46 -187.17,204.88 11.69,-0.07 22.51,0.01 31.88,0.19 141.43,-111.52 260.05,-222.16 357.12,-302.93 138.27,-115.32 230.31,-176.49 229.92,-176.93 0.15,1.19 -516.46,451.44 -567.25,492.72 -30.5,38.62 -68.07,101.2 -160.32,171.35 -43.39,32.74 -84.71,53.69 -121.03,68.12l-44.17 15.51z"/>
    <path class="fil1" d="M5067.19 6359.4l-117.28 300.26c36.28,-7.6 70.96,-16.21 104.62,-25.45l97.4 -237.35c92.78,-25.04 194.68,-63.26 260.87,-135.3 -73.22,46.14 -157.01,74.26 -244.96,95.28l65.26 -138.2c49.45,-63.8 76.91,-138.56 78.52,-184.73 -45.84,45.87 -102.17,106.55 -130.2,174.52 -27.18,45.99 -58.35,86.57 -93.73,121.46 -26.88,-93.41 -33.19,-198.31 -18.79,-302.83 -30.1,94.37 -23.02,237.06 -1.72,332.34z"/>
    <path class="fil1" d="M5409.08 5422.42c-29.91,54.78 -83.46,128.11 -120.07,270.03 -41.57,158.89 -11.1,276.24 -9.65,318.04 30.46,-31.67 133.52,-106.35 178.62,-281.74 36.63,-143.79 -1.2,-234.26 -26,-289.61 61.31,-218.51 131.92,-410.36 178.84,-562.67 66.83,-217.41 94.06,-354.43 94.18,-353.96 -0.35,-0.4 -34.32,134.97 -107.94,349.81 -50.72,147.73 -124.63,334.34 -187.97,550.09z"/>
    <path class="fil1" d="M5166.18 5742.21c-25.35,57.04 -72.73,134.5 -97.64,278.93 -28.47,161.76 11.47,276.23 16.33,317.77 27.78,-34.05 124.39,-116.89 155.04,-295.37 24.77,-146.3 -20.31,-233.37 -49.54,-286.52 43.28,-222.78 98,-419.75 132.33,-575.39 48.87,-222.13 64.83,-360.92 64.99,-360.47 -0.39,-0.37 -23.19,137.32 -79.04,357.46 -38.5,151.38 -96.94,343.39 -142.46,563.59z"/>
    <path class="fil1" d="M5860.15 5694.71c-39.56,48.28 -87.46,125.41 -205.29,212.58 -131.71,98.12 -251.92,113.89 -291.21,128.22 17.93,-40.11 48.52,-163.65 194.19,-271.24 119.56,-87.87 217.61,-86.74 278.22,-84.5 179.57,-138.78 330.94,-276.18 454.54,-376.8 176.48,-143.49 293.29,-220.12 292.81,-220.06 0.51,0.18 -112.25,82.43 -283.8,231.25 -117.93,102.42 -263.2,240.93 -439.46,380.55z"/>
    <path class="fil1" d="M5674.08 6016.43c-40.57,49.5 -89.68,128.59 -210.49,217.96 -135.04,100.61 -258.3,116.77 -298.58,131.46 18.38,-41.13 49.74,-167.8 199.11,-278.11 122.59,-90.1 223.12,-88.93 285.26,-86.65 184.12,-142.29 339.31,-283.17 466.05,-386.33 180.94,-147.12 300.71,-225.69 300.22,-225.62 0.52,0.18 -115.09,84.52 -290.99,237.1 -120.92,105.01 -269.86,247.02 -450.58,390.19z"/>
    <path class="fil3" d="M4776.35 5907.37c-15.34,-34.37 -83.19,-123.72 -89.89,-280.76 -5.29,-139.06 29.44,-223.39 45.3,-281.81 14.08,-216.59 62.6,-410.88 99.61,-561.1 54.39,-218.96 91.51,-354.5 91.51,-354.5l-77.78 356.67c-32.79,153.33 -76.88,350.61 -87.48,567.75 34.98,44.21 89.1,115.71 93.52,251.81 6.43,165.91 -58.08,263.17 -74.79,301.94z"/>
    <path class="fil3" d="M5213.29 4580.49c23.34,44.9 58.4,118.33 35.44,241.39 -27.35,150.53 -106.52,226.15 -129.09,257.74 -6.46,-33.87 -48.23,-126.44 -22.91,-267.57 23.17,-125.24 70.17,-194.75 95.52,-244.13 53.69,-191.37 131.05,-357.48 190.51,-486.54l141.85 -304.11 -130 308.09c-56.48,132.62 -130.45,302.15 -181.33,495.13z"/>
    <path class="fil3" d="M5770.29 4413.64c-28.16,40.83 -61.2,105.47 -149.37,181.13 -97.51,86.26 -192.31,105.57 -222.44,119.09 12.55,-32.29 30.8,-129 138.11,-223.61 89.06,-76.31 165.84,-83.85 213.66,-86.74 132.96,-121.74 242.3,-242.63 333,-330.69 128.28,-128.62 215.89,-197.69 215.49,-198.1 0.14,0.52 -83.74,73.71 -207.15,205.82 -86.23,89.34 -191.01,210.42 -321.29,333.1z"/>
    <path class="fil3" d="M5727.85 4275.44c-55.82,85.59 -125.03,108.22 -161.07,131.75 -0.06,-34.26 -28.71,-111.75 34.98,-208.85 55.26,-80.73 126.2,-105.15 162.42,-117.86 227.19,-331.98 444.98,-564.89 494.81,-619.54l11.09 -12.94c2.73,1.48 -234.43,268.91 -492.44,655.65 -0.9,39.68 -4.39,105.53 -49.78,171.79z"/>
    <path class="fil3" d="M5587.5 4776.67c-30.13,44.6 -65.25,115.22 -159.36,198.85 -105.48,94.57 -207.58,117.46 -240.06,132.61 12.46,-35.45 30.17,-142.44 146.13,-246.25 95.34,-84.51 179.33,-92.17 231.07,-95.86 142.79,-134.08 261.11,-265.56 357.94,-363.18 138.53,-139.61 232.18,-216.5 231.54,-216.82 0.71,0.57 -88.76,81.69 -222.63,225.15 -92.19,98.87 -205,230.96 -344.62,365.51z"/>
    <path class="fil3" d="M5415.57 5141.33c-31.83,48.24 -68.38,125.06 -168.5,218.08 -112.09,103.69 -221.77,130.52 -256.35,147.46 12.72,-38.5 29.09,-155.35 152.68,-269.85 101.5,-93.25 191.94,-103.04 248.11,-107.37 151.57,-147.14 277.34,-290.41 380.37,-397.11 148.04,-152.37 248.11,-236.05 247.21,-236.36 0.6,0.39 -94.71,88.95 -237.1,245.41 -97.75,107.77 -218.08,251.89 -366.42,399.74z"/>
    <path class="fil3" d="M4981.98 4934.57c28.7,47 72.38,123.73 56.78,258.17 -17.92,164.13 -97.52,251.75 -119.77,287.86 -10,-36.29 -62.97,-132.58 -45.95,-286.91 14.87,-136.97 61.07,-215.62 84.82,-270.82 43.84,-210.87 116.68,-395.87 172.19,-539.46l133.73 -339.22 -120.6 342.39c-51.7,147.35 -120.46,335.7 -161.19,548.01z"/>
    <path class="fil3" d="M5255.61 5507.12c-32.86,53.07 -70.18,135.84 -175.5,237.77 -117.63,114.62 -234.72,146.08 -271.78,165.46 12.49,-42.13 26.54,-168.62 156.77,-294.46 106.94,-102.86 204.28,-114.64 264.67,-120.42 159.72,-161.22 291.67,-317.37 400.94,-433.39 156.04,-165.48 261.74,-256.83 261.28,-256.7 0.52,0.11 -100.42,96.5 -250.87,266.62 -103.41,117.06 -229.17,273.49 -385.5,435.12z"/>
    <path class="fil3" d="M5466.28 4238.8c17.73,43.01 44.16,112.2 15.44,224.02 -36.43,135.73 -112.59,199.67 -135.41,227.24 -3.38,-31.56 -35.98,-119.81 -1.83,-246.89 28.49,-113.57 76.69,-173.49 103.25,-217.28 61.43,-171.76 143.44,-318.12 205.17,-432.91l148.07 -268.71c0.24,-0.06 -50.75,105.39 -137.64,273.49 -58.85,117.62 -138.23,267.88 -197.07,441.03z"/>
    <g>
     <path class="fil3" d="M4645.78 6301.1c-15.34,-34.37 -83.19,-123.72 -89.89,-280.76 -5.29,-139.06 29.44,-223.4 45.3,-281.81 14.08,-216.59 62.6,-410.88 99.61,-561.1 54.39,-218.97 91.51,-354.5 91.51,-354.5l-77.78 356.67c-32.79,153.33 -76.88,350.61 -87.48,567.75 34.98,44.21 89.09,115.71 93.52,251.81 6.43,165.92 -58.08,263.17 -74.79,301.94z"/>
     <path class="fil3" d="M5125.02 5900.86c-32.86,53.07 -70.18,135.84 -175.5,237.77 -117.63,114.61 -234.72,146.08 -271.78,165.46 12.49,-42.13 26.54,-168.62 156.77,-294.46 106.94,-102.86 204.28,-114.65 264.67,-120.42 159.72,-161.22 291.67,-317.37 400.94,-433.39 156.04,-165.49 261.74,-256.83 261.27,-256.71 0.52,0.11 -100.41,96.5 -250.87,266.62 -103.41,117.07 -229.17,273.49 -385.5,435.12z"/>
    </g>
    <g>
     <path class="fil3" d="M4496.07 6711.34c-16.21,-36.33 -87.93,-130.77 -95.01,-296.75 -5.59,-146.98 31.12,-236.12 47.88,-297.87 14.88,-228.93 66.17,-434.28 105.28,-593.06 57.49,-231.44 96.72,-374.69 96.72,-374.69l-82.21 376.98c-34.66,162.07 -81.26,370.59 -92.46,600.09 36.98,46.72 94.17,122.3 98.85,266.15 6.79,175.37 -61.39,278.16 -79.05,319.14z"/>
     <path class="fil3" d="M5002.61 6288.3c-34.73,56.09 -74.17,143.58 -185.5,251.31 -124.33,121.14 -248.09,154.4 -287.26,174.88 13.2,-44.52 28.05,-178.22 165.7,-311.23 113.04,-108.72 215.92,-121.17 279.74,-127.28 168.82,-170.4 308.28,-335.44 423.78,-458.07 164.93,-174.91 276.65,-271.46 276.15,-271.33 0.56,0.11 -106.13,101.99 -265.16,281.8 -109.3,123.73 -242.22,289.07 -407.46,459.91z"/>
    </g>
    <path class="fil4" d="M3315.89 6522.86l14.86 8.11 -8.85 -64.13c1.5,-51.5 -1.67,-52.8 6.96,-117.73 29.9,-225.09 221.51,-330.7 264.83,-486.52 12.24,-43.99 11.94,-81.31 2.05,-122.08l-11.19 -49.86c-3.8,-22.82 -0.06,-33.31 -2.58,-67.53 -0.94,-12.82 1.91,-25.92 3.35,-41.45l0.98 -8.81c9.89,-98.98 66.37,-253.89 98.6,-353.04 20.5,-63.05 25,-75.69 18.46,-98.24l-9.78 19.47c-36.43,72.56 -110.28,161.56 -88.49,242.37 13.68,50.73 -59.76,177.93 -27.11,340.23 3.24,16.11 6.72,28.43 9.52,44.03 33.58,186.8 -211.64,301.46 -266.6,554.48 -2.86,13.15 -4.85,28.25 -6.49,41.54 -5.28,42.95 -4.26,84.5 -1.46,127.39l2.93 31.78zm283.3 154.69l14.71 8.03c119.28,-50.59 267.89,-124.65 347.56,-226.33l0 0c102.2,-160.41 187.92,-321.02 255.8,-481.86l1.59 -35.12c3.48,-8.51 4.67,-12.61 7.68,-20.99 41.41,-115.2 75.34,-236.39 93.96,-353.7 17.17,-108.18 -63.7,-275.96 -76.35,-394.74 -9.39,-88.1 -13.98,-173.9 -9.17,-262.8 0.93,-17.15 -2.53,-27.31 -1.48,-44.19 3.78,-60.79 5.33,-113.94 -18.14,-174.37 -25.14,-64.7 -78.48,-124.12 -128.98,-176.87 -64.54,-67.41 -105.54,-71.1 -178.59,-113.37 -68.31,-39.53 -119.66,-101.61 -179.33,-153.43 -27.02,-23.47 -56.77,-48.69 -86.98,-67.27 -22.55,-13.87 -68.21,-49.91 -81.46,-16.72 -0.75,35.09 50.56,79.42 61.92,116.9 11.69,38.58 0.8,24.45 35.04,59.53 17.25,17.67 14.68,35.71 9.82,53.38 -55.67,-2.22 -45.2,-24.92 -64.2,-51.61 -62.5,-87.81 -230.96,-30.41 -266.51,-29.97 -0.45,-22.75 4.7,-30.67 -7.65,-58.55 -26.93,-60.75 -114.29,-69.55 -169.5,-48.13 -41.26,16.01 -73.41,71.73 -113.51,48.39 -38.88,-22.63 -42.76,-97.07 -98.09,-72.46 66.94,-8.04 48.58,76.83 109.26,90.48 45.45,10.22 73.33,-40.88 129.53,-53.92 51.69,-12 128.11,7.96 123.87,83.35 -2.12,37.64 -44.41,37.66 -76.53,69.69 -52.63,52.48 -38.86,111.8 22.63,99.65 65.94,-13.03 61.76,-102.23 77,-120.92 14.68,-18 108.54,-21.56 126.83,-22.61 39.25,-2.26 85.99,-5.25 124.96,41.41 -19.53,5.7 -40.91,-4.83 -65.18,-0.24 -75.96,14.37 -125.61,97.69 -91.69,158.45 60.15,107.76 182.2,-39.47 193.11,-133.69l40.67 14.5c-16.91,51.57 -35.67,73.3 -43.69,127.17 -4.95,33.24 -11.55,94.02 -6.15,125.32 -48.21,-10.26 67.1,413.93 81.65,481.13l0 0 9.78 -19.47c-1.96,-6.78 -4.93,-14.46 -8.75,-24.67 -14.91,-39.8 -28.45,-115.72 -36.41,-158.43l-30.99 -359.52c2.18,-30.75 1.51,-44.74 11.01,-79.68 8.56,-31.5 20.08,-49.33 33.04,-80.17 12.17,-28.98 20.81,-56.48 -1.24,-80.93 -37.44,-41.5 -18.6,-4.58 -36.94,-61.59 -3.13,-9.74 -3.96,-7.59 -5,-17.8 -11.29,-19.98 -52.54,-77.02 -55.98,-95.54 142.44,50.91 226,186.16 328.35,248 56.74,34.28 111.67,42.5 168.98,102.86 50.59,53.28 99,108.27 125.16,164.17 42.02,89.78 22.22,219.35 24.28,329.64 0.98,52.18 2.59,115.33 10.47,165.59 8.14,51.91 24.09,109.67 37.71,162.07 24.11,92.74 50.44,160.35 36.42,246.62 -4.38,26.94 -10.2,54.35 -16.45,82.79 -12.68,57.71 -46.56,183.91 -71.85,249.46 -10.38,26.89 -19.63,54.97 -35.72,82.59 -17.25,29.58 -40.65,52.03 -60.65,84.35 -35.31,57.07 -80,181 -108.83,250.59 -24.41,58.91 -45.5,111.49 -98.35,165.15 -25.4,25.79 -138.96,106.3 -157.89,103.72 -23.41,21.73 -105.13,55.87 -154.55,76.7zm-11.19 -2289.86c14.79,54.49 -104.89,212.86 -140.97,123.49 -10.39,-25.74 -1.71,-85.64 34.93,-109.79 29.85,-19.67 77.37,-21.89 106.04,-13.7z"/>
    <path class="fil5" d="M3330.75 6530.97l70.01 38.22c-15.72,-18.41 -28.45,-39.98 -37.39,-63.93 -22.69,-60.84 -14.63,-129.11 21.19,-193.87 21.74,-39.31 47.94,-60.98 72.19,-99.17 21.53,-33.89 55.39,-65.35 83.36,-95.61 41.81,-45.24 89.8,-95.73 138.72,-129.72 9.62,-6.68 38.91,-23.37 42.2,-26.81 -90.89,-87.52 -102.57,-270.35 -68.08,-389.19 34.17,-117.77 118.58,-317.8 236.48,-380.11 -97.33,-50.96 -193.19,-113.04 -217.74,-234.27 -2.8,-13.83 -0.38,-4.74 -2.09,-14.71l-15.34 -129.89c-1.11,-15.05 3.05,-13.93 0.04,-32.51 -7.48,-46.12 -5.39,-89.58 -1.03,-136.28 0.2,-2.19 0.76,-5.94 1.15,-8.86 3.8,-28.04 6.17,-24.02 12,-47.94 4.71,-19.32 0.71,-43.05 11.48,-65.02 28.19,-57.54 72.2,-64.48 121.45,-67.26 77.19,-4.35 130.98,35.51 194.29,74.57 0.04,0.02 0.07,0.05 0.11,0.07 -0.01,-0 -0.05,-0.03 -0.11,-0.07 -3.15,-2.09 -70.26,-50.89 -87.98,-59.35 -32.86,-15.69 -60.09,-25.83 -92.49,-47.35 -67.65,-44.93 -124.52,-121.14 -185.07,-163.13 1.04,10.21 1.87,8.07 5,17.8 18.34,57.01 -0.5,20.09 36.94,61.59 22.06,24.44 13.42,51.95 1.24,80.93 -12.96,30.83 -24.48,48.67 -33.04,80.17 -9.5,34.93 -8.83,48.93 -11.01,79.68l30.98 359.52c7.96,42.72 21.5,118.63 36.41,158.43 16.55,44.19 16.94,40.91 -9.71,122.91 -32.22,99.15 -88.71,254.06 -98.6,353.04l-0.98 8.81c-1.43,15.54 -4.29,28.63 -3.35,41.46 2.52,34.22 -1.22,44.7 2.58,67.53l11.19 49.86c9.89,40.77 10.19,78.09 -2.05,122.08 -43.33,155.82 -234.94,261.43 -264.84,486.52 -8.63,64.94 -5.45,66.23 -6.95,117.73l8.85 64.13zm191.03 104.3l77.41 42.27c49.42,-20.83 131.14,-54.97 154.55,-76.7 144.76,-72.04 194.02,-231.59 242.98,-356.36 46.5,-118.51 41.92,-100.93 107.64,-194.52 42.22,-60.13 54.6,-134.24 80.79,-194.01l-3.97 1.93c-42.07,54.84 -77.94,100.03 -136.48,133.88 -48.1,27.81 -66.37,30.06 -109.33,38.72 -20.47,4.12 -14.37,5.15 -36.44,2.63 41.91,41.89 50.96,136.95 49.89,191.58l-6.15 50.69c-9.48,51.04 -21.58,96.13 -44.43,143.23 -36.08,74.37 -104.14,129 -173.57,163.07 -14.11,6.92 -35.89,16.15 -47.6,20.62 -15.81,6.03 -29.95,7.88 -46.61,15.33 -37.39,16.73 -74.39,21.88 -108.68,17.66z"/>
    <path class="fil6" d="M3400.76 6569.2l51.15 27.93c-30.5,-19.05 -60.56,-46.83 -63.63,-72.35 -18.85,-19.34 -22.96,-56.88 -23.25,-76.26 -1.43,-94.94 34.3,-171.45 119.53,-228.94 -59.63,92.92 55,155.81 151.14,-56.39 18.1,-39.95 25.63,-54.69 21.11,-90.85 14.55,-16.13 39.11,-39.64 58.55,-42.28 38.86,-19.07 78.07,-9.38 112.72,32.59 72.48,87.82 39.33,255.16 -14.7,346.08 -24.58,73.7 -123.63,172.96 -195.61,201.96 -36.69,14.78 -86.71,17.33 -120.63,7.8 -6.03,-1.69 -12.96,-4.35 -20.37,-7.8l45.02 24.58c34.29,4.22 71.29,-0.93 108.68,-17.66 16.66,-7.45 30.8,-9.3 46.61,-15.33 11.71,-4.46 33.49,-13.7 47.6,-20.62 69.43,-34.07 137.49,-88.7 173.57,-163.07 22.85,-47.1 34.95,-92.19 44.43,-143.23l6.15 -50.69c1.07,-54.63 -7.98,-149.69 -49.89,-191.58 22.07,2.52 15.97,1.5 36.44,-2.63 42.96,-8.66 61.23,-10.91 109.33,-38.72 58.54,-33.85 94.42,-79.04 136.48,-133.88l41.91 -80.73c12.9,-30.41 20.95,-55.49 27.5,-86.8 10.96,-52.41 11.14,-116.93 3.94,-169.13 -14.8,-107.23 -63.2,-209.47 -140.78,-287.98 -6.87,-6.94 -14.39,-13.49 -21.04,-20.31l-14.48 -16.27c-0.79,-0.89 -1.89,-2.1 -2.54,-2.83 -0.67,-0.74 -1.79,-1.86 -2.61,-2.86 38.54,-15.06 62.19,-59.2 73.58,-81.07 13.36,-25.63 39.74,-45.54 54.89,-83.01 43.8,-108.37 -5.99,-237.85 -65.39,-334.91 -17.24,-28.16 -38.5,-57.3 -59.57,-82.53 -25.15,-30.11 -60.52,-55.86 -82.81,-80.77 -63.36,-39.09 -117.17,-79 -194.41,-74.64 -49.25,2.78 -93.26,9.72 -121.45,67.26 -10.76,21.97 -6.76,45.7 -11.48,65.02 -5.83,23.91 -8.21,19.9 -12,47.94 -0.39,2.93 -0.95,6.67 -1.15,8.86 -4.36,46.7 -6.46,90.16 1.03,136.28 3.01,18.57 -1.15,17.46 -0.04,32.51l15.34 129.89c1.71,9.97 -0.71,0.88 2.09,14.71 24.56,121.23 120.41,183.31 217.74,234.27 -117.9,62.32 -202.31,262.34 -236.48,380.11 -34.48,118.85 -22.81,301.67 68.08,389.19 -3.29,3.43 -32.57,20.13 -42.2,26.81 -48.91,33.98 -96.91,84.48 -138.72,129.72 -27.97,30.26 -61.83,61.72 -83.36,95.61 -24.25,38.19 -50.45,59.86 -72.19,99.17 -35.81,64.76 -43.88,133.03 -21.19,193.87 8.93,23.94 21.67,45.52 37.39,63.93zm724.54 -1306.03c47.88,66.65 50.27,63.65 80.53,139.14 44.72,111.56 48.52,257.66 1,369.89 -62.14,146.75 -190.15,262.92 -348.6,244.77 -3.22,-0.37 -4.22,-0.29 -8.81,-1.02l-47.11 -11.98c-37.23,-10.63 -84.3,-61.21 -101.83,-88.77l-27.05 -64.31c-17.51,-49.24 -7.11,-18.48 -17.42,-67.21l-3.21 -29.18c1.52,-30.23 -8.93,-6.43 -1.66,-61.75l23.63 -144.47c13.06,-36.44 14.76,-50.22 35.41,-98.31 23.95,-55.75 64.84,-132.17 104.5,-177.49 30.99,-35.41 67.35,-74.43 117.3,-86.19 0.84,-0.2 2.03,-0.48 2.86,-0.68 0.83,-0.19 2.02,-0.53 2.85,-0.71 69.56,-15.28 139.47,11.26 187.62,78.27zm-371.63 -379.13c47.52,77.82 98.96,44.35 99.29,3.91 0.37,-46.33 -12.39,-68.19 -36.62,-115.39 -18.63,-36.27 -57.01,-87.19 -87.44,-115.52 -30.08,-28 -27.13,-0.52 -38.95,-41.15 -39.92,-137.24 88.89,-170 188.91,-135.22 158.95,55.27 293,248.44 320.05,406.67 4.98,29.13 0.29,28.57 2.65,58.69 6.62,84.72 -61.29,173.41 -144.61,189.5 -112.61,21.75 -212.17,-31.84 -268.59,-137.78 -17.12,-32.14 -34.89,-78.87 -34.68,-113.72z"/>
    <path class="fil7" d="M3769.15 4916.74c79.91,66.69 109.16,-25.34 82.78,-108.3 -7.33,-23.06 -19.37,-37.55 -24.15,-49.47l-3.73 -17.61c45.14,37.58 84.57,82.57 115.69,126.94 11.32,16.14 12.37,16.92 18.8,32.31 6.78,16.23 12.48,22.09 15,38.1l0.75 8.81c2.13,12.48 -2.09,-0.53 5.07,14.77 5.27,11.28 20.3,27.65 1.16,18.37 3.07,9.52 4.48,6.15 6.71,13.78l3.94 38.52c-0.24,21.64 3.91,48.64 -8.38,65.56 -0.97,1.33 -9.56,9.72 -11.16,10.93 -21.8,16.29 -51.5,6.63 -75.51,-4.92 -80.74,-38.83 -103.98,-119.6 -126.98,-187.79zm-15.48 -32.69c-0.22,34.84 17.56,81.57 34.68,113.72 56.42,105.93 155.97,159.52 268.59,137.78 83.32,-16.09 151.23,-104.78 144.61,-189.5 -2.35,-30.13 2.33,-29.57 -2.65,-58.69 -27.05,-158.23 -161.1,-351.4 -320.05,-406.67 -100.02,-34.78 -228.83,-2.01 -188.91,135.22 11.82,40.63 8.87,13.15 38.95,41.15 30.44,28.33 68.82,79.24 87.44,115.52 24.23,47.2 37,69.06 36.62,115.39 -0.32,40.44 -51.76,73.91 -99.29,-3.91z"/>
    <path class="fil8" d="M4107.48 5776.53c-26.84,-8.45 4.88,17.09 -20.53,-3.77 12.05,-14.9 7.94,-1.59 5.43,-17.52 -16.46,26.46 -17.05,11.88 -18.41,9.07l-2.15 -5.98c-22.76,23.63 -11.31,10.26 -20.52,8.78l-41.32 2.58c-10.27,3.53 -2.41,6.58 -8.58,3.85 -1.2,-0.53 -1.82,1.07 -2.83,1.38 46.59,-91.21 55.41,-178.59 46.79,-264.22 -16.56,-164.59 -140.59,-218.04 -168.44,-192.03l-19.19 33.55c13.25,19.17 16.47,32.92 15.93,49.39 -2.13,64.8 -24.99,240.3 -96.18,251.88 -27.7,4.5 -66.73,-28.6 -42.24,-85.33 -84.5,102.44 -91,302.63 36.43,383.43 64.12,40.66 136.43,42.54 194.02,10.39 84.4,-47.11 104.57,-107.15 141.77,-185.46z"/>
    <path class="fil9" d="M3876.94 5318.69c8.61,-27.72 42.97,-55.83 70.74,-59.71 119.41,-16.69 173.84,129.69 191.02,223.42l4.73 123.74c-1.1,11.56 -2.93,9.08 -3.56,23.58 -2,46.41 -17.95,102.94 -32.38,146.81 -37.2,78.31 -57.37,138.35 -141.77,185.46 -57.59,32.15 -129.9,30.27 -194.02,-10.39 -127.43,-80.8 -120.93,-280.99 -36.43,-383.43 -24.49,56.73 14.54,89.83 42.24,85.33 71.19,-11.58 94.05,-187.07 96.18,-251.88 0.54,-16.46 -2.68,-30.22 -15.93,-49.39l19.19 -33.55zm248.37 -55.52c-48.15,-67.01 -118.07,-93.54 -187.62,-78.27 -0.83,0.18 -2.02,0.52 -2.85,0.71 -0.83,0.19 -2.02,0.48 -2.86,0.68 -49.95,11.76 -86.31,50.78 -117.3,86.19 -39.66,45.32 -80.56,121.74 -104.5,177.49 -20.66,48.09 -22.35,61.87 -35.41,98.31l-23.63 144.47c-7.26,55.31 3.19,31.52 1.66,61.75l3.21 29.18c10.31,48.73 -0.09,17.96 17.42,67.21l27.05 64.31c17.54,27.56 64.61,78.13 101.83,88.77l47.11 11.98c4.6,0.74 5.6,0.65 8.81,1.02 158.45,18.15 286.46,-98.02 348.6,-244.77 47.52,-112.23 43.72,-258.33 -1,-369.89 -30.26,-75.49 -32.65,-72.49 -80.53,-139.14z"/>
    <path class="fil10" d="M3628.09 4258.78c60.56,42 117.42,118.2 185.07,163.13 32.39,21.51 59.63,31.65 92.49,47.35 18.09,8.64 87.63,59.3 88.09,59.42 22.3,24.91 57.67,50.65 82.81,80.77 21.07,25.23 42.34,54.37 59.57,82.53 59.41,97.06 109.19,226.54 65.39,334.91 -15.15,37.47 -41.53,57.38 -54.89,83.01 -11.39,21.86 -35.04,66.01 -73.58,81.07 0.81,1 1.94,2.12 2.61,2.86 0.65,0.73 1.75,1.94 2.54,2.83l14.48 16.27c6.65,6.81 14.17,13.36 21.04,20.31 77.59,78.52 125.99,180.76 140.78,287.98 7.2,52.2 7.02,116.72 -3.94,169.13 -6.55,31.31 -14.6,56.39 -27.5,86.8l-41.91 80.73 3.97 -1.93c-26.19,59.77 -38.57,133.88 -80.79,194.01 -65.72,93.59 -61.14,76.01 -107.64,194.52 -48.95,124.78 -98.22,284.32 -242.98,356.36 18.92,2.57 132.49,-77.93 157.89,-103.71 52.85,-53.66 73.94,-106.24 98.35,-165.15 28.84,-69.58 73.53,-193.52 108.83,-250.59 20,-32.33 43.4,-54.78 60.65,-84.36 16.1,-27.62 25.35,-55.7 35.72,-82.59 25.3,-65.56 59.18,-191.75 71.85,-249.46 6.25,-28.44 12.07,-55.85 16.45,-82.79 14.02,-86.27 -12.31,-153.88 -36.41,-246.62 -13.62,-52.41 -29.58,-110.17 -37.72,-162.07 -7.88,-50.26 -9.5,-113.41 -10.47,-165.59 -2.06,-110.29 17.74,-239.86 -24.28,-329.64 -26.16,-55.9 -74.57,-110.89 -125.16,-164.17 -57.31,-60.36 -112.24,-68.59 -168.98,-102.86 -102.36,-61.83 -185.91,-197.08 -328.36,-248 3.44,18.52 44.69,75.55 55.98,95.54z"/>
    <path class="fil11" d="M3528.34 6418.01c-159.04,165.48 -215.72,-28.53 -71.03,-153.79 -4.94,43.98 19.09,53.31 54.58,51.55 0.11,1 0.16,2.39 0.19,3 0.03,0.61 0.15,2.24 0.19,2.99l-0.28 23.66c-7.87,37.45 -25.24,32.98 16.35,72.59zm-140.06 106.77c28.85,20.78 44.78,27.19 77.8,29.17 23.57,1.41 57.06,-5.47 82.8,-18.26 71.07,-35.3 101.58,-77.42 149.85,-147.21 31.69,-21.27 64.42,-148.94 67.5,-181 3.1,-32.29 4.08,-57.04 -2.87,-91.37 -4.59,-22.7 -21.32,-74.54 -48.01,-86.05 -19.44,2.64 -44,26.15 -58.55,42.28 4.52,36.16 -3.01,50.89 -21.11,90.85 -96.14,212.21 -210.77,149.31 -151.14,56.39 -85.23,57.49 -120.96,134 -119.53,228.94 0.29,19.38 4.41,56.92 23.25,76.26z"/>
    <path class="fil12" d="M3876.94 5318.69c27.86,-26.01 151.88,27.44 168.44,192.03 8.61,85.62 -0.2,173 -46.79,264.22 1,-0.31 1.63,-1.91 2.83,-1.38 6.17,2.74 -1.69,-0.31 8.58,-3.85l41.32 -2.58c9.2,1.48 -2.24,14.85 20.52,-8.78l2.15 5.98c1.36,2.8 1.95,17.39 18.41,-9.07 2.51,15.93 6.62,2.62 -5.43,17.52 25.41,20.86 -6.31,-4.69 20.53,3.77 14.43,-43.87 30.38,-100.4 32.38,-146.81 0.63,-14.5 2.46,-12.02 3.56,-23.58l-4.73 -123.74c-17.18,-93.74 -71.61,-240.11 -191.02,-223.42 -27.77,3.88 -62.12,31.99 -70.74,59.71z"/>
    <path class="fil13" d="M3769.15 4916.74c22.99,68.19 46.24,148.96 126.98,187.79 24.01,11.55 53.71,21.21 75.51,4.92 1.6,-1.2 10.19,-9.59 11.16,-10.93 12.29,-16.92 8.14,-43.91 8.38,-65.56l-3.94 -38.52c-2.23,-7.63 -3.63,-4.26 -6.71,-13.78 19.14,9.29 4.11,-7.09 -1.16,-18.37 -7.16,-15.3 -2.94,-2.28 -5.07,-14.77l-0.75 -8.81c-2.51,-16.02 -8.22,-21.87 -15,-38.1 -6.43,-15.4 -7.48,-16.17 -18.8,-32.31 -31.12,-44.37 -70.55,-89.36 -115.69,-126.94l3.73 17.61c4.78,11.92 16.81,26.41 24.15,49.47 26.38,82.96 -2.87,175 -82.78,108.3z"/>
    <path class="fil14" d="M3451.91 6597.13l24.85 13.57c-7.94,-3.7 -16.41,-8.3 -24.85,-13.57z"/>
    <path class="fil14" d="M3451.91 6597.13l24.85 13.57c7.4,3.45 14.34,6.11 20.37,7.8 33.92,9.53 83.94,6.97 120.63,-7.8 71.98,-29 171.03,-128.26 195.61,-201.96 0.44,-6.58 -5.49,-1.91 1.27,-11.59 -8.24,8.49 -9.84,9.21 -17.64,11.31 -6.31,-5.87 -12.48,-13.24 -20.2,-16.75 -25.6,-11.65 -42.34,4.66 -54.33,16.55 -19.5,-5.08 -5.05,-14.15 -23.71,-6.61 11.47,-13.77 3.35,-1.08 -0.03,-13.17 -48.27,69.8 -78.78,111.92 -149.85,147.21 -25.75,12.79 -59.23,19.67 -82.8,18.26 -33.02,-1.98 -48.95,-8.39 -77.8,-29.17 3.07,25.52 33.13,53.3 63.63,72.35z"/>
    <path class="fil15" d="M3698.73 6388.48c3.37,12.09 11.5,-0.6 0.03,13.17 18.67,-7.54 4.21,1.53 23.71,6.61 11.99,-11.89 28.73,-28.2 54.33,-16.55 7.72,3.51 13.89,10.88 20.2,16.75 7.8,-2.1 9.4,-2.83 17.64,-11.31 -6.76,9.69 -0.83,5.01 -1.27,11.59 54.03,-90.92 87.18,-258.26 14.7,-346.08 -34.64,-41.98 -73.85,-51.66 -112.72,-32.59 26.69,11.51 43.41,63.35 48.01,86.05 6.94,34.33 5.97,59.08 2.87,91.37 -3.08,32.06 -35.81,159.73 -67.5,181z"/>
    <path class="fil16" d="M3528.34 6418.01c-41.59,-39.61 -24.22,-35.14 -16.35,-72.59l0.28 -23.66c-0.04,-0.75 -0.15,-2.38 -0.19,-2.99 -0.03,-0.61 -0.09,-2.01 -0.19,-3 -35.49,1.76 -59.52,-7.57 -54.58,-51.55 -144.69,125.26 -88,319.27 71.03,153.79z"/>
    <path class="fil17" d="M3588 4387.69c-28.67,-8.2 -76.2,-5.97 -106.04,13.7 -36.64,24.14 -45.32,84.04 -34.93,109.78 36.07,89.37 155.76,-69 140.97,-123.48z"/>
    <path class="fil2" d="M3401.66 5056.91c-9.58,9.19 -3.13,5.62 -16.12,8.68 -5.04,5.73 -64.26,42.89 -87.31,62.81 -82.36,71.15 -133.64,157.8 -153.53,268.05 -8.35,46.29 -4.52,48.06 30.44,107.38 9.77,16.58 17.59,30.13 26.88,47.06 8.13,14.81 17.57,28.13 27.87,46.44 9.17,16.31 15.2,31.78 23.68,48.79l38.42 73.14c4.83,10.54 4.51,12.67 10.73,23.61l40.33 86.94c5.89,15.32 2.72,2.32 2.11,12.32 31.85,38.05 117.49,313.57 137.81,382.56 22.45,76.22 78.15,336.09 73.8,418.62 -9.07,-14.39 -11.55,-26.96 -18.68,-43.85 -66.74,-157.98 -170.08,-277.5 -282.73,-402.83 -41.06,-45.68 -102.63,-99.85 -130.33,-131.23 -16.09,-12.72 -34.17,-29.7 -48.69,-43.31 -16.21,-15.2 -31.91,-27.25 -47.97,-43.43 -14.33,-10.34 -93.42,-70.67 -97.68,-79.1 -18.01,-5.84 -71.42,-45.78 -93.27,-59.37 -29.07,-18.08 -64.42,-40.77 -95.95,-55.54 -14.45,-7.89 -45.63,-18.98 -53.35,-31.74 -15.7,-3.07 -32.1,-11.44 -45.65,-19.25 -83.19,-30.98 -152.67,-64.21 -245.7,-83.37 -37.94,-7.81 -82.63,-14.96 -120.09,-16.74 -36.65,-1.75 -78.39,1.77 -112.19,-1.07 -7.01,2.97 -35.6,5.1 -46.9,6.97l-93.44 23.62c-13.63,4.55 -33.47,14.65 -43.94,13.91 -14.35,12.3 -23.95,14.59 -39.5,21.94 -39.16,18.51 -93.88,66.97 -109.17,70.13 -7.73,16.04 -27.55,28.22 -43.07,43.21 -10.31,9.96 -30.45,35.69 -39.39,41.5l-30.79 43.04c15.76,-6.41 17.5,-10.67 32.66,-12.31 9.28,-8.06 100.44,-44.95 114.8,-40.06 15.85,-10.9 36.68,-12.6 56.35,-16.18 17.41,-3.17 40.18,-7.36 57.43,-6.16 32.2,-6.83 102.93,-0.59 140.59,6.99 54.7,11 98.15,30.28 143.11,56.24l43.93 31.44c56.19,33.84 133.46,141.61 163.19,199.29 45.81,88.88 60.76,147.19 96.67,232.8l71.26 148.08c7.83,8.2 13.14,17.33 17.01,27.74 7.05,9.12 23.69,36.6 26.36,45.11 11.5,8.33 10.51,8.43 13.71,22.02 10.21,5.67 45.73,59.1 58.7,74.96 10.98,13.41 20.1,25.48 31.83,38.46 8.33,9.21 25.14,24.5 30.32,34.81 8.35,4.51 43.22,38.04 49.26,49.07l11.67 9.68c12.37,7.58 27.31,18.19 32.58,29.6l92.44 65.58 56.36 33.48c37.27,13.21 132.41,70.84 210.02,80.52 23.56,2.94 55.74,-25.05 79.26,-37.35 8.39,-4.39 17.64,-9.98 27.04,-14.99l179.7 -101.57c36.81,-23.91 89.18,-49.73 129.65,-74.73l103.28 -58.47c28.75,-14.82 25.13,-12.96 39.63,-49.98 21.46,-54.81 27.35,-103.03 37.72,-158.58 0.74,-18.15 -0.13,-41.48 6.54,-58.74 -4.26,-9.22 -2.96,-21.49 -3.09,-32.41 -0.13,-10.31 -0.37,-19.98 -0.41,-29.4 -0.09,-21.17 -2.5,-39.36 -3.46,-60.64 -1.39,-16.29 -8.22,-39.11 -4.61,-54.42 -6.55,-10.68 -29.68,-120.6 -30.29,-126.23 -6.63,-10.76 -19.28,-54.86 -24.81,-69.27 -20.74,-54.01 -63.11,-147.44 -92.56,-196.6 -24.35,-40.64 -50.38,-82.2 -80.17,-123.5 -22.6,-31.35 -109.45,-149.59 -125.71,-180.85 -13.8,-26.52 -20.21,-37.6 -35.36,-63.02 -41.93,-70.34 -88.33,-196.83 -90.19,-280.8 -0.76,-34.34 7.99,-143.44 45.38,-167.06 4.64,-16.13 11.16,-14.51 19.5,-28.75 -17.55,2.93 -26.58,15.17 -43.91,16.31z"/>
    <path class="fil2" d="M3812.33 4811.61c-12.76,6.05 -43.03,-2.62 -59.61,-4.5l-58.62 -6.45 -46.13 -2.24c-21.36,-2.34 -98.84,1.18 -109.17,-4.23 -17.75,9.78 -49.51,6.83 -68.88,8.84 -31.5,1.37 -64.81,8.54 -95.22,15.06l-87.25 26.71c-14.49,11.45 -34.51,18.75 -48.29,27.21 -7.94,4.88 -13.07,7.69 -22.02,13.4 -10.74,6.86 -8.54,8.57 -23.08,12.59l-15.68 18.42c-19.65,18.43 -35.35,37.21 -50.6,61.83 -51.78,83.63 -56.8,193.56 -41.45,288.17 2.71,16.74 7.83,37.19 8.56,53.81 5.73,8.8 14.26,58.67 22.65,76.64 11.94,-76.99 14.72,-112.49 57.02,-183.2 18.28,-30.57 87.18,-117.48 108.11,-123.37 11.1,-14.83 38.05,-33.97 51.84,-44.3 9.46,-7.08 18.57,-12.05 28.01,-18.72 10.02,-7.07 20.66,-13.02 31.41,-15.16l15.84 -9.17c19.85,-21.9 99.02,-50.67 133.93,-65.16 25.46,-9.94 58.29,-22 86.14,-30 15.94,-4.58 30.2,-8.36 45.86,-13.16 15.19,-4.65 32.13,-12.29 46.23,-10l28.31 -10.49c24.21,-5.27 67.45,-15.56 88.79,-15.71 9.6,-6.41 81.82,-14.26 103.18,-20.28l-129.86 -26.55z"/>
    <path class="fil2" d="M3380.87 7131.35l18.65 5.17c15.41,-15.22 120.53,-70.26 147.94,-85.6 25.74,-14.41 48.38,-27.21 74.42,-41.33 21.37,-11.59 54.48,-36.33 76.72,-39.96 2.64,-3.34 0.21,-1.07 4.83,-4.94 2.29,-1.92 3.31,-2.73 6.02,-4.31 9.49,-5.55 5.56,-3.98 13.69,-4.99 8.7,-9.55 12.68,-10.57 24.17,-17.1 4.68,-2.66 9.11,-5.47 13.67,-7.67 8.75,-4.23 3.92,-2.71 13.46,-5.07l15.96 -9.73 103.8 -58.27 1.37 -4.93c-17.78,-27.91 -53.78,-104.06 -72.08,-122.29l-504.79 285.39c4.15,16.36 56.19,94.28 62.17,115.65z"/>
    <path class="fil1" d="M3091.75 5516.35c-20.56,0.96 -168.27,77.62 -180.79,106.98 -17.59,41.27 21.35,90.13 41.34,125.1 45.34,79.3 82.19,48.47 159.3,3.31 20.39,-11.94 74.26,-34.44 86.46,-61.75 16.52,-36.99 -6.85,-66.73 -26.96,-100.87 -13.76,-23.37 -30.67,-75.04 -79.35,-72.78z"/>
    <path class="fil1" d="M2867.63 5339.9l-43.7 29.25c-15.44,8.66 10.34,-5.09 -4.59,2.27 -23.23,11.45 -32.69,20.55 -39.14,56.52 3.07,32.08 24.8,58.81 39.07,84.79 45.27,82.43 67.8,80.17 160.34,21.55 28.49,-18.05 54.42,-29.28 83.25,-48.83 12.92,-21.76 16.82,-28.36 15.01,-55.42 -11.69,-24.46 -13.22,-32.37 -30.9,-61.12l-17.62 -31.52c-33.78,-70 -87.8,-38.04 -129.85,-12.78 -11.77,7.07 -20.25,13.07 -31.87,15.28z"/>
    <path class="fil1" d="M2550.49 5519.38c-10.55,22.94 -75.74,21.56 2.18,139.52 28.53,11.72 56.2,20.75 84.21,33.07 12.04,5.29 27.81,15.26 37.25,14.18 11.09,-1.26 15.61,-10.8 31.42,-13.52l24.92 -17.46c46.56,-22.57 42.32,-22.54 73.57,-47.55l9.31 -36.3c-4.3,-40.39 -41.62,-72.57 -44.79,-99.12 -15.18,-13.51 -18.33,-37.63 -50.4,-45.26 -46.87,-11.15 -127.46,63.95 -167.67,72.45z"/>
    <path class="fil1" d="M3064.26 5822.36c-13.44,20.13 -21.59,15.3 -27.49,50.65 -0.35,26.8 16.09,48.94 28.95,69.11 15.15,23.77 16.85,41.5 42.95,62.5 40.12,14.35 54.6,3.32 78.25,-9.78 21.45,-11.88 42.97,-24.92 62.7,-35.88 47.17,-26.2 89.07,-52 45.73,-118.26l0.09 -4.72c-26.65,-30.51 -27.86,-79.87 -89.3,-84.18 -24.32,2.12 -54.09,22.87 -72.65,33.32 -16.93,9.52 -54.81,34.41 -69.24,37.24z"/>
    <path class="fil1" d="M2436.62 5315.08c-9.63,12.42 -24.72,26.9 -25.04,51.36 -0.24,18.19 11.79,34.72 18.59,46.25 13.67,23.17 27.87,60.16 52.16,79.27 43.78,18.56 58.46,5.17 115.72,-30.04 55.15,-33.91 79.07,-30.54 90.81,-81.98 -3.42,-34.84 -14.15,-43.19 -30.1,-72.91 -11.98,-22.31 -20.91,-47.92 -51.65,-62.16 -37.2,-11.41 -68.87,14.35 -90.11,26.91 -19.27,11.39 -61.86,38.07 -80.37,43.29z"/>
    <path class="fil1" d="M2668.05 5218.64c3.09,36.6 14.44,46.32 29.02,72.71 11.72,21.2 22.06,46.13 48.07,62.36 58.22,18.59 81.12,-30.29 118.93,-36.11 17.94,-19.72 98.89,-35.58 78.7,-100.06 -3.54,-11.32 -51.13,-100.13 -70.59,-109.24 -47.51,-24.44 -84.39,15.4 -113.33,30.59 -16.07,8.44 -35.16,19.54 -51.81,28.79 -22.42,12.46 -30.4,17.38 -38.99,50.94z"/>
    <path class="fil1" d="M2430.43 5063.9c-21.71,24.49 -90.52,44.04 -110.43,69.01 -26.33,33.02 7.69,73.29 37.3,125.39 35.73,62.87 81.24,21.54 117.31,1.44 50.89,-28.37 94.57,-42.56 100.75,-85.38 -7.69,-29.37 -33.3,-69.33 -48.11,-95.17 -30.38,-52.98 -58.73,-31.94 -85.57,-18.96 -7.96,3.85 -4.44,2.79 -11.25,3.68z"/>
    <path class="fil1" d="M2431.19 5525c3.05,-29.26 -17.87,-53.81 -28.47,-73.1 -10.71,-19.49 -21.54,-45.32 -43.5,-61.95 -51.85,-18.04 -87.07,17.16 -151.32,53.07 -93.63,52.34 -39.09,86.12 -25.65,129.96 46.86,10.26 107.3,17.85 156.66,25.98 19.35,3.19 41.08,-15.17 53.83,-22.85 22.62,-13.61 32,-18.52 38.45,-51.11z"/>
    <path class="fil1" d="M2956.69 4768.16c-10.76,10.39 -21.69,13.83 -36.24,22.48l-102.11 56.1c-30.2,47.06 -3.11,69.72 13.13,98.81 50.94,91.26 52.08,84.46 159.86,22.83 14.02,-8.02 25.28,-16.07 42.42,-24.48 23.21,-11.39 29.46,-18.25 35.11,-49.1 -12.8,-33.01 -24.82,-50.52 -40.16,-78.69 -17.12,-31.43 -22.44,-50.67 -72,-47.96z"/>
    <path class="fil1" d="M2227.02 5182.29c-7.55,6.5 -26.57,14.54 -36.61,20.4 -13.7,8 -24.54,13.11 -38.42,21.18 -25.89,15.04 -50.99,27.93 -75.65,43.63 -15.08,20.79 -11.42,29.4 -13.86,49.94 23.5,23.62 30.33,44.89 44.9,73.49 37.41,73.44 74.22,34 147.15,-6.94 22.97,-12.89 51.15,-23.58 69.47,-48.81 8.78,-28.79 -1.43,-34.09 -4.8,-50.84 -6.13,-5.43 -4.7,-0.12 -5.84,-11.13 -10.46,-9.39 -23.9,-36.01 -33.44,-54.02 -16.19,-30.57 -16.39,-26.04 -52.9,-36.9z"/>
    <path class="fil1" d="M2555.63 5021.22c2.26,22.35 21.16,48.44 30.68,65.98 13.54,24.95 18.15,35.38 37.3,59.25 40.26,14.85 56.54,-2.57 80.18,-15.88 135.26,-76.11 136.5,-69.99 88.69,-156.96 -8.28,-15.05 -25.01,-52.21 -43.74,-61.83 -29.96,-15.37 -56.05,7.61 -73.09,17.12 -22.83,12.74 -42.69,23.5 -65.28,36.44 -22.09,12.67 -45.31,17.13 -54.74,55.87z"/>
    <path class="fil1" d="M2528.6 4963.75c26.26,-1.23 57,-24 75.91,-34.82 83.85,-47.99 121.15,-50.44 80.5,-122.74l-41.77 -76.14c-21.07,-6.19 -30.09,-18.2 -54.04,-6.37 -15.19,7.5 -27.85,15.75 -42.74,23.98 -110.81,61.26 -128.35,58.14 -83.63,139.72 20.19,36.84 31.15,67.68 65.78,76.36z"/>
    <path class="fil1" d="M1988.24 5127.48c11.81,9.85 19.46,30.09 27.93,45.23 11.94,21.34 12.95,23.07 30.11,44.1 20.5,6.37 30.9,10.15 46.5,1.74l67.46 -37.8c10.11,-5.45 21.13,-13.55 33.11,-19.94 70.8,-37.75 53.28,-54.43 10.75,-129.94 -46.54,-82.6 -57.8,-57.51 -194.57,19.65 -49.23,27.77 -23.38,64.25 -21.3,76.95z"/>
    <path class="fil1" d="M2677.63 4676.56c-16.42,41.34 -3.56,44.38 25.43,95.67 30.17,53.38 18.97,52.68 72.16,61.95 16.73,-15.38 65.78,-39.96 87.22,-51.65 15.2,-8.29 27.46,-15.93 42.88,-23.96 20.65,-10.76 26.27,-18.85 26.57,-48.22 -5.44,-21.57 -29.82,-53.45 -41.17,-77 -12.54,-26.03 -29.26,-57.43 -67.96,-41.48 -22,9.07 -125.7,68.85 -145.13,84.7z"/>
    <path class="fil1" d="M2209.02 4964.58l52.86 101.7c31.42,51.93 76.01,13.1 104.38,-3.31 15.02,-8.69 56.47,-34.17 72.5,-37.21l1.64 -0.88c8.09,-8.98 4.19,-3.94 11.6,-9.6 4.99,-3.81 3.73,-0.8 9.88,-8.53 5.43,-6.83 8.7,-15.24 9.09,-24.55 0.69,-27.5 -26.74,-62.4 -40.02,-85.62 -7.97,-13.93 -8.65,-27.02 -25.15,-39.23 -34.55,-25.55 -81.26,15.21 -129.19,42.06 -38.24,21.42 -60.66,26.29 -67.57,65.16z"/>
    <path class="fil1" d="M3309.5 6186.72c20.61,-22.26 56.22,-37.37 83.69,-47.96 4.37,-14.81 26.82,-10.06 17.03,-41.76 -10.77,-34.87 -34.6,-117.57 -71.68,-129.67 -23.5,-7.67 -37.71,4.92 -50.7,12.01 -24.59,13.43 -117.33,63.57 -125.65,76.91 5.91,10.63 87.37,84.78 110.55,109.37 21.74,23.07 12.08,21.26 36.77,21.09z"/>
    <path class="fil1" d="M2185.65 4726.45l-1.73 2.48c-9.66,9.8 -13,8.8 -24.44,15.78 -10.8,6.59 -10.31,9.41 -18.61,16.35 -9.59,33.74 -0.57,41.26 10.77,62.3 8.46,15.7 17.7,34.85 27.92,49.53 33.85,48.58 79.87,7.02 107.42,-7.63 18.02,-9.58 34.17,-18.87 51.57,-29.28 50.77,-30.38 22.71,-63.55 1.85,-101.52l-29.01 -45.79c-39.14,-15.16 -44.24,-4.75 -68.73,9.31 -10.03,5.76 -17.02,9.48 -26.93,15.23 -12.68,7.36 -15.49,10.81 -30.09,13.25z"/>
    <path class="fil1" d="M2151.9 4935.81c21.99,-19.3 -3.86,-55.07 -11,-67.82 -11.69,-20.91 -18.35,-39.78 -38.5,-58.29 -37.61,-20.76 -63.33,7.86 -118.72,38.15 -11.52,6.3 -41.18,17.09 -50.16,36.37 -12.62,27.11 5.29,49.01 13.36,64.03 19.11,35.56 36.75,90.05 96.33,57.19 21.53,-11.87 94.52,-47.79 108.69,-69.63z"/>
    <path class="fil1" d="M2485.34 4560.54c-4.66,0.5 -127.86,62.66 -136.85,82.87 -7.04,15.83 -5.03,28.74 1.63,41.1 6.86,12.76 12.89,23.45 20.16,35.91 10.42,17.86 24.03,58.59 61.22,55.3 16.31,-1.44 56.99,-27.1 72.1,-35.64 15.7,-8.88 57.52,-28.8 65.93,-45.52 14.83,-29.46 -10.65,-60.5 -20.12,-78.43 -9.83,-18.63 -25.73,-59.68 -64.07,-55.59z"/>
    <path class="fil1" d="M2556.08 4521.82c-7.08,22.75 -3.81,30.99 4.68,46.35 50.74,91.76 39.96,87.87 100.49,82.5 16.77,-23.04 108.25,-46.96 119.45,-85.64 7.15,-24.71 -15.17,-54.23 -23.62,-69.37 -11.57,-20.73 -18.87,-46.76 -51.52,-56.07 -24.53,1.11 -23.43,3.72 -40.83,14.23 -31.55,19.04 -86.1,41.82 -108.65,68z"/>
    <path class="fil1" d="M2383.54 4415.68c-24.62,-1.31 -117.44,53.57 -125.67,69.23 -16.5,31.44 5.71,55.82 15.93,73.82 39.52,69.65 55.82,54.32 117.88,20.16 79.66,-43.85 76.12,-55.08 42.47,-113.83 -10.11,-17.64 -18.79,-47.7 -50.61,-49.39z"/>
    <path class="fil1" d="M1888.77 4696.31c-9.57,40.45 5.13,38.82 17.89,67.05 33.14,73.3 65.43,51.66 111.96,25.64l42.38 -24.33c3.68,-2.27 3.15,-2.15 6.76,-4.19l10.65 -5.35c17.86,-47.08 11.85,-45.26 -7.09,-78.87 -9.6,-17.04 -21.67,-50.67 -55.07,-53.56 -20.48,-1.77 -114.12,48.4 -127.49,73.61z"/>
    <path class="fil1" d="M2188.78 4694.67c12.28,-11.66 25.43,-16.22 40.77,-25.12 7.35,-4.26 13.12,-6.91 19.98,-11.74 7.8,-5.5 9.37,-9.65 19.15,-14.09 5.01,-38.48 5.12,-37.61 -10.71,-64.18 -45.58,-76.47 -44.67,-79.67 -144.57,-21.07 -60.81,35.67 -52.37,49.04 -23.55,101.43 45.42,82.56 60.89,43.12 98.93,34.76z"/>
    <path class="fil1" d="M2526.04 4503.82c10.65,-9.46 27.59,-19.07 43.81,-29.02 26.11,-16.03 73.35,-24.86 68.81,-69.15 -2.06,-20.14 -15.39,-27.83 -19.24,-46.85 -8.44,-6.02 -10.13,-13.7 -11.6,-20.13 -13.6,-11.22 -20.68,-23.13 -47.83,-27.65 -31.26,12.52 -113.78,49.85 -122.68,79.22 -8.98,29.67 6.06,35.15 25.55,73.4 17.8,34.93 22.02,34.41 63.19,40.19z"/>
    <path class="fil1" d="M2928.67 5103.5c1.75,4.69 12.23,20.39 16.11,26.83 6.4,10.61 12.38,20.41 17.83,31.47 12.96,26.3 19.05,42.88 53.4,55.1l15.54 0.65c3.09,-44.94 -1.37,-74.82 11.37,-125.45 12.45,-49.44 28.11,-86.81 46.02,-132.87 -22.72,2.65 -32.27,15.67 -50.14,24.87 -31.17,16.06 -10.37,1.54 -49.62,27.46 -31.98,21.12 -73.95,25.05 -60.51,91.93z"/>
    <path class="fil1" d="M2710.75 5722.94c4.24,6.09 -1.57,1.04 7.42,7.01 3.49,2.31 6.17,3.3 10.71,5.59 6.37,3.2 18.05,10 19.6,11.21 51.03,21.45 165.37,104.93 176.92,103.79 26.65,-39.65 4.74,-67.6 -8.42,-91.05 -31.79,-56.63 -53.68,-125.43 -133.05,-78.71 -26.69,15.71 -51.65,26.93 -73.19,42.15z"/>
    <path class="fil1" d="M2442.61 4201.54c-15.04,2.07 -98.11,43.63 -107.27,63.34 -11.49,24.71 28.07,103.11 62.72,100.48 14.19,-1.08 97.73,-45.39 106.88,-63.24 12.77,-24.92 -7.91,-46.09 -16.01,-60.78 -8.05,-14.57 -17.32,-43.81 -46.32,-39.8z"/>
    <path class="fil1" d="M2124.1 4382.02c-19.07,1.88 -98.72,43.72 -107.85,62.73 -12.33,25.69 8.37,43.82 17.15,60.38 7.96,15.02 15.79,43.26 45.83,40.43 16.14,-1.52 98.76,-47.28 106.73,-63.52 11.72,-23.87 -5.19,-40.29 -16.76,-59.72 -10.71,-17.98 -15.85,-43.19 -45.09,-40.31z"/>
    <path class="fil1" d="M1958.46 4473.38c-8.25,1.87 -96.33,47.11 -103.1,63.07 -9.67,22.79 10.13,45.22 17.92,59.25 8.35,15.04 16.56,44.87 49.43,39.94 6.64,-1 95.46,-45.74 103.6,-64.35 10.55,-24.14 -8.58,-46.2 -16.94,-61.49 -8.59,-15.7 -19.25,-43.62 -50.91,-36.42z"/>
    <path class="fil1" d="M2278.48 4293.02c-19.57,4.15 -37.34,16.88 -54.44,26.35 -77.85,43.15 -53.61,53.24 -29.73,97.55 29.36,54.48 37.31,48.15 102.62,10.31 75.19,-43.57 56.09,-47.92 30.18,-97.15 -10.26,-19.48 -16.45,-43.88 -48.63,-37.06z"/>
    <path class="fil1" d="M3427.13 6199.03c-14.26,8.41 -27.7,15.35 -43.01,23.75 -8.78,4.81 -13.7,7.89 -22.56,12.64 -12.82,6.87 -12.17,3.44 -18.58,16.5 9.22,4.59 51.72,61.42 59.59,71.58l55.87 71.46c14.35,-8.37 14.43,-10.07 32.63,-14.7 2.37,-35.28 -38.84,-140.37 -46.41,-182.44l-17.54 1.21z"/>
    <path class="fil1" d="M2175.99 4207.87c-9.61,20.89 -55.38,19.85 -64.69,50.4 -7.13,23.39 16.31,70.27 48.81,68.6 12.16,-0.63 63.56,-30.04 72.9,-38.82 26.91,-25.3 -3.36,-67.67 -21.05,-79.8 -14.49,-5.23 -24.35,-2.64 -35.98,-0.38z"/>
    <path class="fil1" d="M1860.37 4403.32c-1.73,15.58 3.48,19.66 4.89,29.3 0.69,0.76 1.92,0.98 1.96,2.37 0.04,1.36 1.49,1.81 1.9,2.35l12.47 17.18c8.17,9.06 18.8,11.78 32.78,14.17 16.2,-12.37 58.17,-27.2 71.32,-41.4 23.13,-24.96 -5.1,-63.29 -19.53,-77.13 -32.99,-9.91 -40,3.02 -60.35,14.34 -10,5.56 -14.85,8.48 -25.01,13.51 -14.4,7.11 -13.25,8.17 -20.43,25.31z"/>
    <path class="fil1" d="M1984.76 4340.81c2.77,11.79 18.77,46.19 31.34,52.81 21.75,11.44 47.35,-8.26 60.36,-15.61 15.04,-8.48 44.3,-17.66 43.13,-48.39 -0.64,-16.91 -19.78,-42.36 -31.35,-51.12 -29.58,-7.73 -42.02,7.52 -60.74,18.27 -17.43,10.01 -38.89,11.4 -42.73,44.04z"/>
    <path class="fil1" d="M2236.07 4180.44c-3.57,30.85 3.62,40.67 17.76,60.55 30.29,42.57 108.97,-26.44 112.79,-36.89 8.3,-22.69 -11.74,-50.57 -22.79,-61.84 -30.19,-15.38 -39.7,-2.19 -58.26,8.25l-49.49 29.94z"/>
    <path class="fil1" d="M1966.77 4213.08c-14.95,20.88 -9.17,21.39 0.43,38.98 5.59,10.24 9.89,29.44 27.56,29.07 14.59,-0.3 55.67,-31.78 74.52,-38.21 1.18,-25.39 -0.11,-19.11 -10.91,-39.47 -5.41,-10.2 -10.4,-23.72 -28,-22.83 -13.53,0.69 -48.81,27.46 -63.6,32.46z"/>
    <path class="fil1" d="M2121.18 4124.69c-5.02,6.5 -6.28,6.29 -15.63,11.29 -52.33,28.01 -58.5,26.88 -19.13,85.07 22.19,4.49 29.38,-5.35 44.6,-13.76 48.41,-26.74 50.44,-25.16 28.85,-64.27 -11.33,-20.53 -13.69,-21.72 -38.69,-18.33z"/>
    <path class="fil1" d="M1896.81 4340.85c20.95,-27.13 92.46,-25.08 60.49,-74.25 -12,-18.46 -7.77,-21.72 -28.22,-28.08 -10.05,1.43 -61.98,28.73 -68.49,36.25 -13.84,16.01 -3.48,28.28 3.77,38.47 9.96,13.99 9.63,23.83 32.46,27.61z"/>
    <path class="fil1" d="M2169.44 4100.21c-12.09,25.69 22,62.77 22.66,63.11 12.16,6.13 48.24,-18.44 64.52,-27.47 34.7,-19.26 12.63,-37.85 1.93,-60.03l-32.87 -9.11c-15.7,12.11 -39.83,21.83 -56.24,33.51z"/>
    <path class="fil1" d="M2498.22 5640.23c-4.88,-14.14 -13.33,-24.63 -28.44,-36.93 -40.57,-15.33 -46.94,-7.84 -74.28,7.32l102.73 29.61z"/>
    <path class="fil1" d="M3497.89 6459.23c6.01,8.42 12.97,17.83 16.66,25.27 2.64,-11.07 -7.34,-48.52 -10.37,-63.37 -7.18,0.18 -0.33,-1.21 -7.53,0.93l-13.39 5.95 14.63 31.22z"/>
    <path class="fil1" d="M1924.44 4133.01c-14.95,20.88 -9.17,21.39 0.43,38.98 5.59,10.24 9.89,29.44 27.56,29.07 14.59,-0.3 55.67,-31.78 74.52,-38.21 1.18,-25.39 -0.11,-19.11 -10.91,-39.47 -5.41,-10.2 -10.4,-23.72 -28,-22.83 -13.53,0.69 -48.81,27.46 -63.6,32.46z"/>
    <path class="fil1" d="M2082.93 4052.19c-5.02,6.5 -6.28,6.29 -15.63,11.29 -52.33,28.01 -58.5,26.88 -19.13,85.07 22.19,4.49 29.38,-5.35 44.59,-13.76 48.41,-26.74 50.44,-25.16 28.85,-64.27 -11.33,-20.53 -13.69,-21.72 -38.69,-18.33z"/>
    <path class="fil1" d="M1999.35 3993.02c-5.02,6.5 -6.28,6.29 -15.63,11.29 -52.33,28.01 -58.5,26.88 -19.13,85.07 22.19,4.49 29.38,-5.35 44.6,-13.76 48.41,-26.74 50.44,-25.16 28.85,-64.27 -11.33,-20.53 -13.69,-21.72 -38.69,-18.33z"/>
   </g>
  </g>
 </g>
</svg>
