<?xml version="1.0" encoding="UTF-8"?>
<!DOCTYPE svg PUBLIC "-//W3C//DTD SVG 1.1//EN" "http://www.w3.org/Graphics/SVG/1.1/DTD/svg11.dtd">
<!-- Creator: CorelDRAW 2019 (64-Bit) -->
<svg xmlns="http://www.w3.org/2000/svg" xml:space="preserve" width="8.5in" height="11in" version="1.1" style="shape-rendering:geometricPrecision; text-rendering:geometricPrecision; image-rendering:optimizeQuality; fill-rule:evenodd; clip-rule:evenodd"
viewBox="0 0 8500 11000"
 xmlns:xlink="http://www.w3.org/1999/xlink"
 xmlns:xodm="http://www.corel.com/coreldraw/odm/2003">
 <defs>
  <style type="text/css">
   <![CDATA[
    .fil2 {fill:#C5C6C6}
    .fil1 {fill:#2B2A29}
    .fil4 {fill:#009934}
    .fil3 {fill:#DE2129}
    .fil0 {fill:#FFE718}
   ]]>
  </style>
 </defs>
 <g id="Layer_x0020_1">
  <metadata id="CorelCorpID_0Corel-Layer"/>
  <g id="_2666831446752">
   <ellipse class="fil0" cx="4250" cy="5500" rx="3407.68" ry="2726.15"/>
   <ellipse class="fil1" cx="4249.97" cy="5500" rx="3284.79" ry="2627.83"/>
   <ellipse class="fil2" cx="4250.03" cy="5500" rx="3149.34" ry="2519.46"/>
   <path class="fil3" d="M3940.22 5220.53l110.95 329.91c-41.11,-1.35 -83.02,2.11 -125.06,10.93 -42.04,8.81 -81.83,22.46 -118.93,40.2l-30.84 -346.69 163.88 -34.34zm253.75 354.77l219.29 -271.38 141.5 87.79 -146.26 316.37c-59.55,-60.86 -133.3,-106.59 -214.53,-132.78zm310.89 269.69l348.35 -27.01 33.9 161.78 -329.88 115.13c1.63,-42.09 -1.79,-85.07 -10.83,-128.17 -9.03,-43.1 -23.14,-83.83 -41.54,-121.73zm19.08 413.97l260.98 231.03 -94.35 137.22 -309.79 -160.5c63.87,-56.61 113.07,-128.09 143.17,-207.75zm-263.96 287.85l30.83 346.7 -163.88 34.34 -110.95 -329.91c41.11,1.35 83.02,-2.11 125.07,-10.93 42.04,-8.81 81.83,-22.46 118.93,-40.21zm-386.79 26.27l-219.29 271.38 -141.51 -87.79 146.26 -316.37c59.55,60.86 133.3,106.59 214.53,132.78zm-310.89 -269.69l-348.35 27.01 -33.9 -161.78 329.88 -115.12c-1.63,42.09 1.8,85.07 10.83,128.17 9.03,43.1 23.14,83.83 41.54,121.73zm-19.08 -413.98l-260.98 -231.02 94.35 -137.22 309.8 160.5c-63.88,56.61 -113.07,128.09 -143.17,207.74zm429.81 -104.18c159.59,-33.44 316.07,68.81 349.51,228.4 33.44,159.58 -68.81,316.07 -228.4,349.51 -159.58,33.44 -316.07,-68.82 -349.51,-228.4 -33.44,-159.59 68.82,-316.07 228.4,-349.51z"/>
   <path class="fil4" d="M4675.27 4154.47l162.12 307.95 144.96 1.8 173.2 -302.85 153.69 64.1 -93.95 335.64 116.98 119.79 339.56 -82.19 59.27 154.3 -307.28 166.24 -6.72 167.3 294.47 186.45 -71.27 150.51 -331.4 -109.05 -106.48 98.38 85.7 337.3 -156.3 60.03 -162.12 -307.95 -144.96 -1.8 -173.2 302.85 -153.69 -64.11 93.95 -335.64 -116.98 -119.78 -339.56 82.19 -59.26 -154.31 307.27 -166.24 6.72 -167.3 -294.47 -186.46 71.27 -150.51 331.4 109.05 106.48 -98.37 -85.7 -337.3 156.3 -60.04zm122.42 552.25c152.21,-58.46 323,17.54 381.46,169.75 58.46,152.21 -17.54,323 -169.75,381.46 -152.21,58.46 -323,-17.54 -381.46,-169.75 -58.46,-152.21 17.54,-323 169.75,-381.46z"/>
   <path class="fil0" d="M5976.58 4622.13l138.87 276.21c-36.31,3.96 -72.74,12.26 -108.61,25.27 -35.87,13.01 -69.15,30 -99.55,50.25l-70.52 -301.01 139.81 -50.72zm267.56 280.2l158.86 -266.09 135.43 59.48 -89.01 296.52c-59.98,-46.06 -130.56,-77.04 -205.28,-89.91zm307.16 198.23l302.94 -67.36 50.07 138.02 -275.67 142.54c-3.83,-37.22 -12.23,-74.58 -25.57,-111.35 -13.34,-36.77 -30.85,-70.82 -51.77,-101.85zm68.61 361.65l258.42 170.48 -65.79 132.48 -292.52 -102.35c49.08,-57.78 83.39,-126.8 99.89,-200.61zm-196.08 286.17l70.53 301.01 -139.81 50.72 -138.87 -276.22c36.31,-3.96 72.74,-12.25 108.61,-25.26 35.87,-13.01 69.15,-30 99.55,-50.25zm-336.84 71.53l-158.86 266.09 -135.43 -59.48 89.01 -296.52c59.98,46.06 130.56,77.04 205.28,89.91zm-307.16 -198.23l-302.94 67.36 -50.07 -138.02 275.67 -142.54c3.83,37.22 12.23,74.58 25.57,111.35 13.34,36.77 30.85,70.82 51.77,101.85zm-68.61 -361.65l-258.42 -170.48 65.79 -132.48 292.52 102.35c-49.08,57.78 -83.39,126.8 -99.89,200.61zm364.92 -145.43c136.15,-49.39 286.55,20.94 335.94,157.08 49.39,136.15 -20.94,286.56 -157.09,335.94 -136.15,49.39 -286.55,-20.94 -335.94,-157.09 -49.39,-136.15 20.94,-286.55 157.09,-335.94z"/>
   <path class="fil0" d="M2229.05 6911.79c1567.38,1133.41 4495.75,1331.91 4263.01,-872.19l-139.6 53.33c192.81,2036.99 -2542.84,1735.41 -3940.08,818.85l-183.33 0z"/>
   <g>
    <path class="fil0" d="M1303.72 5332.92c19.87,-55.76 72.7,-92.94 131.9,-92.84 59.13,0.18 111.76,37.56 131.41,93.34l288.61 0 0 -186.67 -186.68 0c-25.77,0 -46.66,-20.88 -46.67,-46.65 0,-0.01 0,-0.02 0,-0.02l0 -195.28c-72.91,-25.77 -111.11,-105.76 -85.34,-178.67 25.77,-72.9 105.76,-111.11 178.67,-85.34 72.91,25.77 111.11,105.76 85.34,178.67 -14.09,39.87 -45.46,71.24 -85.33,85.34l0 148.61 140 0 0 -93.34c-0.01,-25.77 20.88,-46.67 46.65,-46.67 0,0 0.02,0 0.02,0l93.34 0 0 -241.96c-72.91,-25.77 -111.11,-105.76 -85.34,-178.67 25.78,-72.91 105.76,-111.11 178.67,-85.34 72.9,25.78 111.11,105.76 85.34,178.67 -14.09,39.87 -45.46,71.24 -85.33,85.34l0 241.95 186.68 0 0 -745.06c-0.01,-25.77 20.88,-46.67 46.65,-46.67 0,0 0.02,0 0.02,0 575.72,0 1026.71,416.83 1026.71,948.92 0,252.76 -100.33,587.41 -261.87,873.31 -29.01,51.32 -66.86,105.28 -106.92,162.43 -84.71,120.75 -178.98,256.54 -189.23,374.74 35.88,25.36 56.87,66.84 56.06,110.77 -0.13,31.56 -11.03,62.12 -30.89,86.65 27.62,27.26 43.07,64.51 42.83,103.31 -0.08,77.29 -62.72,139.93 -140,140l-793.37 0c-77.81,-0.48 -140.51,-63.96 -140.02,-141.77 0.01,-0.51 0.01,-1.02 0.02,-1.52 0.03,-37.96 15.54,-74.26 42.95,-100.52 -20.12,-25.47 -31.04,-56.98 -31.01,-89.44 0.14,-73.92 60.17,-133.72 134.09,-133.58 1.97,0 3.94,0.06 5.91,0.14l338.08 -0 0 -888.35 -93.34 0 0 140.01c0,25.77 -20.88,46.66 -46.65,46.67 -0,0 -0.02,0 -0.02,0l-140 0 0 55.27c72.9,25.77 111.11,105.77 85.33,178.67 -25.78,72.89 -105.77,111.11 -178.67,85.33 -72.9,-25.77 -111.11,-105.77 -85.33,-178.67 14.09,-39.87 45.46,-71.24 85.33,-85.33l0 -101.94c-0.01,-25.77 20.88,-46.67 46.65,-46.67 0,0 0.02,0 0.02,0l140 0 0 -93.34 -186.67 0c-25.77,0.01 -46.67,-20.88 -46.67,-46.65 0,-0 0,-0.02 0,-0.02l0 -93.34 -288.62 0c-25.91,72.71 -105.86,110.65 -178.57,84.74 -72.7,-25.91 -110.64,-105.85 -84.73,-178.56zm365.24 -606.2c-25.77,0 -46.67,20.9 -46.67,46.67 0,25.77 20.89,46.67 46.67,46.67 25.78,0 46.67,-20.9 46.67,-46.67 -0.02,-25.76 -20.91,-46.64 -46.67,-46.67zm1234.86 1326.01c38.74,-55.24 75.31,-107.37 102.09,-154.77 151.74,-268.57 249.8,-593.34 249.8,-827.37 0,-465.41 -385.82,-833.02 -886.71,-854.58l0 326.03c12.39,0.93 25.03,2.06 38.55,3.71 19.81,2.41 35.9,17.16 40.02,36.69l14.22 67.63c11.71,2.78 23.39,5.93 35.05,9.43l46.51 -51.87c13.32,-14.91 34.66,-19.65 53.05,-11.8 52.23,22.53 101.53,51.31 146.82,85.72 15.94,12.02 22.47,32.85 16.25,51.82l-21.42 65.26c8.82,8.3 17.41,16.91 25.72,25.7l65.2 -21.42c18.96,-6.14 39.74,0.36 51.82,16.22 34.46,45.3 63.27,94.62 85.8,146.89 7.84,18.39 3.09,39.72 -11.8,53.05l-51.89 46.49c3.49,11.53 6.61,23.09 9.36,34.68l72.57 14.49c21.82,4.35 37.53,23.51 37.53,45.76l0 159.14c0,22.25 -15.71,41.41 -37.53,45.76l-72.57 14.49c-2.76,11.57 -5.88,23.13 -9.36,34.68l51.91 46.49c14.88,13.34 19.62,34.66 11.8,53.05 -22.53,52.26 -51.33,101.59 -85.79,146.89 -12.06,15.88 -32.85,22.38 -51.82,16.22l-65.2 -21.42c-8.34,8.8 -16.9,17.41 -25.72,25.7l21.42 65.17c6.22,18.96 -0.3,39.78 -16.22,51.82 -45.29,34.46 -94.61,63.28 -146.87,85.82 -18.39,7.81 -39.7,3.06 -53.05,-11.8l-46.51 -51.87c-11.64,3.51 -23.33,6.66 -35.05,9.43l-14.2 67.59c-4.1,19.55 -20.19,34.32 -40.01,36.73 -13.54,1.66 -26.19,2.78 -38.58,3.71l0 516.98 330.7 0c19.08,-137.54 116.5,-277.44 204.13,-402.39zm-161.47 -812.65c-0.3,213.77 -160.93,393.3 -373.35,417.27l0 160.49 7.72 -36.73c3.9,-18.61 18.69,-32.99 37.39,-36.37 27.67,-5.03 54.86,-12.37 81.3,-21.92 5.07,-1.8 10.41,-2.72 15.79,-2.74 13.27,0 25.91,5.65 34.75,15.54l43.89 48.95c24.32,-12.15 47.79,-25.94 70.26,-41.24l-20.26 -61.66c-5.93,-18.07 -0.31,-37.93 14.2,-50.22 21.52,-18.22 41.5,-38.19 59.72,-59.7 12.33,-14.41 32.12,-19.99 50.16,-14.13l61.64 20.28c15.32,-22.47 29.1,-45.95 41.27,-70.28l-48.99 -43.89c-14.13,-12.69 -19.18,-32.66 -12.78,-50.54 9.54,-26.45 16.88,-53.65 21.92,-81.3 3.41,-18.86 18,-33.72 36.81,-37.46l65.24 -13.05 0 -82.58 -65.24 -13.04c-18.8,-3.74 -33.4,-18.6 -36.8,-37.46 -5.05,-27.68 -12.38,-54.89 -21.92,-81.36 -6.41,-17.89 -1.35,-37.87 12.8,-50.54l48.95 -43.84c-12.17,-24.31 -25.95,-47.8 -41.24,-70.28l-61.66 20.28c-18.04,5.85 -37.82,0.28 -50.16,-14.13 -18.27,-21.53 -38.26,-41.54 -59.77,-59.84 -14.45,-12.27 -20.04,-32.07 -14.13,-50.09l20.24 -61.66c-22.47,-15.3 -45.93,-29.08 -70.23,-41.24l-43.89 48.95c-12.69,14.12 -32.66,19.18 -50.54,12.81 -26.44,-9.56 -53.64,-16.89 -81.3,-21.92 -18.7,-3.36 -33.49,-17.73 -37.39,-36.33l-7.74 -36.74 0 160.44c212.42,23.98 373.06,203.5 373.35,417.27zm-373.35 -322.96l0 645.91c178.36,-25.54 302.26,-190.83 276.72,-369.19 -20.54,-143.46 -133.26,-256.18 -276.72,-276.72zm-490.02 1864.67c0.02,25.76 20.91,46.65 46.67,46.67l793.37 0c26.24,-0.44 47.16,-22.08 46.72,-48.33 -0.01,-0.54 -0.03,-1.09 -0.06,-1.63 -0.02,-25.76 -20.91,-46.65 -46.67,-46.67l-793.37 0c-26.24,0.44 -47.16,22.08 -46.72,48.33 0.01,0.54 0.02,1.08 0.06,1.63zm58.61 -233.34c-23.51,-2.17 -44.33,15.14 -46.5,38.65 -0.15,1.57 -0.2,3.16 -0.17,4.74 0.02,25.76 20.91,46.65 46.67,46.67l769.49 0c26.24,-0.44 47.16,-22.07 46.72,-48.32 -0.01,-0.54 -0.03,-1.09 -0.06,-1.63 -1,-23.26 -20.67,-41.31 -43.93,-40.31 -0.91,0.04 -1.83,0.11 -2.74,0.2l-769.48 0 0 0.01zm11.39 -655.01c-25.78,0 -46.67,20.9 -46.67,46.67 0,25.78 20.89,46.67 46.67,46.67 25.77,0 46.67,-20.89 46.67,-46.67 -0.02,-25.76 -20.91,-46.64 -46.67,-46.67zm93.33 -1400.06c-25.77,0 -46.67,20.89 -46.67,46.67 0,25.78 20.89,46.67 46.67,46.67 25.78,0 46.67,-20.89 46.67,-46.67 -0.02,-25.76 -20.91,-46.64 -46.67,-46.67zm-93.33 980.05l326.68 0 0 -466.69 -326.68 -0 0 466.69zm-513.36 -46.67c25.77,0 46.67,-20.89 46.67,-46.67 0,-25.78 -20.89,-46.67 -46.67,-46.67 -25.78,0 -46.67,20.89 -46.67,46.67 0.02,25.76 20.91,46.65 46.67,46.67z"/>
    <path class="fil0" d="M1872.26 6254.94c16.46,29.43 31.02,59.87 43.59,91.15l-86.78 34.37c-11.12,-27.59 -23.99,-54.44 -38.53,-80.39l81.72 -45.12z"/>
    <path class="fil0" d="M1767.28 6090.55c18.34,26.34 36.64,53.14 54.14,80.21l-78.35 50.69c-16.95,-26.16 -34.66,-52.05 -52.41,-77.57l76.61 -53.32z"/>
    <path class="fil0" d="M1661.1 5935.27c15.74,24.98 33.29,50.82 51.68,77.34l-76.66 53.23c-19.26,-27.71 -37.57,-54.74 -54.01,-80.89l78.99 -49.68z"/>
    <path class="fil0" d="M1573.53 5772.61c13.38,27.98 27.36,55.65 41.95,83l-82.31 44.03c-15.27,-28.57 -29.89,-57.52 -43.87,-86.82l84.22 -40.2z"/>
    <path class="fil0" d="M1500.64 5601.35c10.85,28.85 22.4,57.74 34.61,86.41l-85.91 36.56c-12.72,-29.94 -24.74,-59.99 -36.07,-90.15l87.37 -32.81z"/>
    <path class="fil0" d="M1295.66 5061.28l93.34 0.73 -0.05 8.57c0,26.02 1.21,53.69 3.62,82.13l-93.02 7.84c-2.62,-31.04 -3.94,-61.3 -3.94,-89.96l0.05 -9.3z"/>
    <path class="fil0" d="M1319.43 4862.62l90.88 21.24c-6.82,29.17 -12,58.71 -15.54,88.46l-92.7 -11.03c3.96,-33.18 9.76,-66.12 17.37,-98.67z"/>
    <path class="fil0" d="M1386.52 4674.03l83.91 40.83c-13.12,26.96 -24.75,54.62 -34.82,82.85l-87.91 -31.26c11.21,-31.5 24.17,-62.37 38.83,-92.43z"/>
    <path class="fil0" d="M1493.28 4505.04l73.1 58.06c-18.68,23.52 -36.1,48.01 -52.18,73.37l-78.89 -49.86c17.86,-28.2 37.21,-55.43 57.97,-81.58z"/>
    <path class="fil0" d="M1633.14 4362.61l59.48 71.92c-23.2,19.19 -45.41,39.56 -66.52,61.02l-66.54 -65.44c23.36,-23.74 47.92,-46.26 73.58,-67.5z"/>
    <path class="fil0" d="M1798.26 4251.37l44.39 82.13c-26.66,14.4 -52.75,30.17 -77.55,46.85l-52.09 -77.48c27.28,-18.32 55.95,-35.64 85.25,-51.5z"/>
    <path class="fil0" d="M1981.2 4173.94l28.26 88.96c-29.07,9.2 -57.68,19.78 -85.04,31.4l-36.51 -85.87c30.06,-12.81 61.46,-24.38 93.29,-34.5z"/>
    <path class="fil0" d="M2174.83 4131.09l11.94 92.61c-30.1,3.87 -60.22,9.12 -89.54,15.63l-20.19 -91.15c32.02,-7.06 64.92,-12.81 97.78,-17.09z"/>
   </g>
  </g>
 </g>
</svg>
