<?xml version="1.0" encoding="UTF-8"?>
<!DOCTYPE svg PUBLIC "-//W3C//DTD SVG 1.1//EN" "http://www.w3.org/Graphics/SVG/1.1/DTD/svg11.dtd">
<!-- Creator: CorelDRAW 2019 (64-Bit) -->
<svg xmlns="http://www.w3.org/2000/svg" xml:space="preserve" width="8.5in" height="11in" version="1.1" style="shape-rendering:geometricPrecision; text-rendering:geometricPrecision; image-rendering:optimizeQuality; fill-rule:evenodd; clip-rule:evenodd"
viewBox="0 0 8500 11000"
 xmlns:xlink="http://www.w3.org/1999/xlink"
 xmlns:xodm="http://www.corel.com/coreldraw/odm/2003">
 <defs>
  <style type="text/css">
   <![CDATA[
    .fil1 {fill:#FEFEFE}
    .fil2 {fill:#2B2A29}
    .fil0 {fill:#009846}
    .fil3 {fill:#FFE718}
   ]]>
  </style>
 </defs>
 <g id="Layer_x0020_1">
  <metadata id="CorelCorpID_0Corel-Layer"/>
  <ellipse class="fil0" cx="4250" cy="5500" rx="3407.68" ry="2726.15"/>
  <ellipse class="fil1" cx="4249.97" cy="5500" rx="3284.79" ry="2627.83"/>
  <path class="fil2" d="M4250.03 2980.54c1739.34,0 3149.34,1128 3149.34,2519.46 0,1391.45 -1410,2519.46 -3149.34,2519.46 -1739.34,0 -3149.34,-1128.01 -3149.34,-2519.46 0,-1391.45 1410,-2519.46 3149.34,-2519.46zm1518.55 599.96c-242.34,0 -439.46,197.09 -439.46,439.46 0,75.8 19.28,147.15 53.19,209.48l-719.91 719.91c-99.26,-77.27 -223.47,-123.7 -358.68,-123.7 -135.2,0 -259.43,46.44 -358.76,123.63l-561.69 -561.7c25.77,-43.58 41.53,-93.68 41.53,-147.88 0,-161.57 -131.41,-292.97 -292.98,-292.97 -161.59,0 -292.97,131.4 -292.97,292.97 0,161.57 131.39,292.97 292.97,292.97 54.19,0 104.3,-15.74 147.88,-41.53l561.7 561.7c-77.2,99.32 -123.64,223.54 -123.64,358.74 0,135.22 46.43,259.44 123.64,358.69l-927.56 927.63c-78.09,-70.82 -181.28,-114.42 -294.73,-114.42 -242.37,0 -439.46,197.11 -439.46,439.46 0,242.37 197.09,439.46 439.46,439.46 242.37,0 439.46,-197.09 439.46,-439.46 0,-75.8 -19.27,-147.15 -53.17,-209.48l939.64 -939.63c81,63 178.71,105.18 285.5,118.56l0 744.18c-207.49,35 -366.21,215.47 -366.21,432.85 0,242.37 197.09,439.48 439.46,439.48 242.35,0 439.46,-197.11 439.46,-439.48 0,-217.3 -158.72,-397.78 -366.22,-432.85l0 -744.18c106.79,-13.39 204.5,-55.56 285.5,-118.56l561.72 561.7c-25.87,43.66 -41.61,93.77 -41.61,147.95 0,161.58 131.4,292.98 292.98,292.98 161.58,0 292.96,-131.4 292.96,-292.98 0,-161.56 -131.38,-292.98 -292.96,-292.98 -54.2,0 -104.31,15.76 -147.87,41.54l-561.71 -561.71c77.2,-99.31 123.63,-223.54 123.63,-358.75 0,-135.2 -46.43,-259.42 -123.63,-358.68l707.9 -707.88c78,70.81 181.2,114.39 294.65,114.39 242.37,0 439.46,-197.1 439.46,-439.46 0,-242.37 -197.09,-439.46 -439.46,-439.46z"/>
  <g id="_2632097220592">
   <g>
    <path class="fil3" d="M2892.53 5011.68c51.39,0 93.2,-41.81 93.2,-93.2 0,-51.39 -41.81,-93.21 -93.2,-93.21 -51.39,0 -93.2,41.81 -93.2,93.21 0,20.99 6.98,40.37 18.73,55.97l-153.14 214c-9.14,-3 -18.89,-4.65 -29.02,-4.65 -24.49,0 -46.79,9.51 -63.44,25.01l-102.07 -57.92c1.36,-6.32 2.09,-12.88 2.09,-19.6 0,-51.39 -41.81,-93.2 -93.2,-93.2 -51.39,0 -93.2,41.81 -93.2,93.2 0,6.72 0.73,13.28 2.09,19.6l-102.07 57.92c-16.65,-15.5 -38.95,-25.01 -63.44,-25.01 -51.39,0 -93.2,41.82 -93.2,93.21 0,51.39 41.81,93.21 93.2,93.21 51.39,0 93.2,-41.81 93.2,-93.21 0,-6.72 -0.73,-13.28 -2.09,-19.6l102.07 -57.92c16.65,15.5 38.95,25.01 63.44,25.01 24.49,0 46.79,-9.51 63.44,-25.01l102.07 57.92c-1.36,6.32 -2.09,12.88 -2.09,19.6 0,51.39 41.81,93.21 93.2,93.21 51.4,0 93.21,-41.81 93.21,-93.21 0,-20.99 -6.98,-40.38 -18.74,-55.98l153.14 -214c9.14,3 18.89,4.65 29.02,4.65zm0 -130.49c20.56,0 37.28,16.72 37.28,37.29 0,20.56 -16.72,37.28 -37.28,37.28 -20.56,0 -37.28,-16.72 -37.28,-37.28 -0,-20.56 16.72,-37.29 37.28,-37.29zm-769.91 433.11c-20.56,0 -37.28,-16.72 -37.28,-37.29 0,-20.56 16.72,-37.29 37.28,-37.29 20.56,0 37.28,16.72 37.28,37.29 0,20.56 -16.72,37.29 -37.28,37.29zm256.63 -145.72c-20.56,0 -37.28,-16.72 -37.28,-37.29 0,-20.56 16.72,-37.28 37.28,-37.28 20.56,0 37.28,16.72 37.28,37.28 0,20.56 -16.72,37.29 -37.28,37.29zm256.63 145.72c-20.56,0 -37.28,-16.72 -37.28,-37.29 0,-20.56 16.72,-37.29 37.28,-37.29 20.56,0 37.29,16.72 37.29,37.29 0,20.56 -16.73,37.29 -37.29,37.29z"/>
    <path class="fil3" d="M3236.17 5921l-195.68 0 -1065.83 0 -220.76 0c-12.78,0 -23.17,-10.39 -23.17,-23.17l0 -1153.58c0,-12.78 10.39,-23.17 23.17,-23.17l131.81 0c15.44,0 27.96,-12.52 27.96,-27.96 0,-15.44 -12.52,-27.96 -27.96,-27.96l-131.81 0c-43.61,0 -79.09,35.48 -79.09,79.09l0 1153.58c0,43.61 35.48,79.09 79.09,79.09l192.8 0 0 61.54c0,35.06 28.52,63.58 63.57,63.58l279.89 0 -131.76 257.24c-7.04,13.75 -1.61,30.59 12.14,37.64 4.08,2.09 8.43,3.08 12.72,3.08 10.16,0 19.96,-5.56 24.91,-15.22l144.81 -282.73 309.15 0 144.81 282.73c4.95,9.67 14.75,15.22 24.91,15.22 4.29,0 8.65,-1 12.72,-3.08 13.74,-7.04 19.18,-23.89 12.14,-37.64l-131.76 -257.24 279.89 0c35.06,0 63.58,-28.52 63.58,-63.58l0 -61.54 167.72 0c15.44,0 27.96,-12.52 27.96,-27.96 0,-15.44 -12.52,-27.96 -27.96,-27.96zm-223.64 117.46c0,4.22 -3.44,7.65 -7.66,7.65l-994.59 0c-4.22,0 -7.65,-3.43 -7.65,-7.65l0 -61.54 1009.91 0 0 61.54z"/>
    <path class="fil3" d="M1997.57 4721.08l382.78 0 254.45 0 626.44 0c12.78,0 23.17,10.4 23.17,23.17l0 265.86c0,15.44 12.52,27.96 27.96,27.96 15.44,0 27.96,-12.52 27.96,-27.96l-0 -265.86c0,-43.61 -35.48,-79.09 -79.09,-79.09l-598.48 0 0 -54.96c0,-38.68 -31.47,-70.15 -70.15,-70.15l-170.07 0c-38.68,0 -70.15,31.47 -70.15,70.15l0 54.96 -354.82 0c-15.44,0 -27.96,12.52 -27.96,27.96 0,15.45 12.52,27.96 27.96,27.96zm410.74 -110.88c0,-7.85 6.38,-14.23 14.23,-14.23l170.07 0c7.85,0 14.23,6.39 14.23,14.23l0 54.96 -198.53 0 0 -54.96 -0 0z"/>
    <path class="fil3" d="M2065.91 5513.17c-15.44,0 -27.96,12.52 -27.96,27.96l0 247.07c0,15.45 12.52,27.96 27.96,27.96l113.44 0c15.44,0 27.96,-12.52 27.96,-27.96l0 -247.08c0,-15.44 -12.52,-27.96 -27.96,-27.96l-113.44 0zm85.48 247.08l-57.52 0 0 -191.15 57.52 0 0 191.15z"/>
    <path class="fil3" d="M2322.54 5370.28c-15.44,0 -27.96,12.52 -27.96,27.96l0 389.97c0,15.45 12.52,27.96 27.96,27.96l113.44 -0c15.44,0 27.96,-12.52 27.96,-27.96l-0 -389.98c0,-15.44 -12.52,-27.96 -27.96,-27.96l-113.44 0zm85.48 389.98l-57.52 0 0 -334.05 57.52 0 0 334.05z"/>
    <path class="fil3" d="M2579.17 5513.17c-15.44,0 -27.96,12.52 -27.96,27.96l0 247.07c0,15.45 12.52,27.96 27.96,27.96l113.44 0c15.44,0 27.96,-12.52 27.96,-27.96l0 -247.08c0,-15.44 -12.52,-27.96 -27.96,-27.96l-113.44 0zm85.48 247.08l-57.52 0 0 -191.15 57.52 0 0 191.15z"/>
    <path class="fil3" d="M2835.81 5678.17c-15.44,0 -27.96,12.52 -27.96,27.96l0 82.08c0,15.44 12.52,27.96 27.96,27.96l113.44 0c15.44,0 27.96,-12.52 27.96,-27.96 0,-15.45 -12.52,-27.96 -27.96,-27.96l-85.48 0 0 -54.13c0,-15.44 -12.52,-27.96 -27.96,-27.96z"/>
    <path class="fil3" d="M3569.39 5947.3l-160.41 -277.85c40.64,-43.32 70.24,-96.25 86.04,-155.24 25.27,-94.29 12.3,-192.78 -36.51,-277.32 -100.76,-174.53 -324.72,-234.53 -499.23,-133.77 -174.52,100.76 -234.53,324.71 -133.77,499.23 48.81,84.54 127.62,145.01 221.91,170.28 31.49,8.44 63.43,12.61 95.18,12.61 27.74,0 55.33,-3.19 82.31,-9.5l160.38 277.85c19.66,34.06 55.46,53.13 92.22,53.12 18.02,0 36.27,-4.58 52.97,-14.22 32.79,-18.93 53.17,-54.22 53.17,-92.11 0,-18.56 -4.93,-36.91 -14.26,-53.09zm-507.5 -228.69c-79.86,-21.4 -146.61,-72.62 -187.96,-144.22 -85.34,-147.82 -34.51,-337.5 113.3,-422.84 48.63,-28.07 101.77,-41.41 154.25,-41.41 107.06,0 211.33,55.52 268.59,154.71 41.34,71.6 52.32,155.02 30.93,234.89 -21.4,79.87 -72.62,146.61 -144.23,187.95 -71.6,41.34 -155.02,52.32 -234.88,30.93zm440.64 325.44c-24.06,13.89 -54.93,5.63 -68.81,-18.43l-154.31 -267.33c15.47,-6.31 30.61,-13.69 45.32,-22.19 14.72,-8.5 28.67,-17.96 41.87,-28.21l154.35 267.34c4.43,7.69 6.77,16.38 6.77,25.14 0,17.96 -9.66,34.7 -25.2,43.67z"/>
    <path class="fil3" d="M3395.54 5498.39c19.74,-63.59 15.04,-131.67 -13.24,-191.69 -6.59,-13.98 -23.24,-19.96 -37.21,-13.38 -13.97,6.58 -19.96,23.24 -13.38,37.21 22.31,47.35 26.01,101.07 10.42,151.27 -15.67,50.48 -49.53,92.84 -95.34,119.29 -48.47,27.99 -104.95,35.42 -159.02,20.93 -54.06,-14.49 -99.26,-49.17 -127.24,-97.64 -57.78,-100.07 -23.37,-228.48 76.7,-286.26 73.17,-42.24 163.97,-36.59 231.34,14.38 12.31,9.32 29.85,6.89 39.17,-5.43 9.32,-12.31 6.89,-29.85 -5.43,-39.17 -85.34,-64.57 -200.37,-71.72 -293.05,-18.22 -61.41,35.46 -105.34,92.7 -123.69,161.2 -18.35,68.5 -8.93,140.04 26.52,201.45 35.45,61.42 92.7,105.34 161.2,123.7 22.87,6.13 46.08,9.16 69.14,9.16 46,0 91.41,-12.06 132.31,-35.68 58.04,-33.5 100.93,-87.17 120.79,-151.13z"/>
   </g>
  </g>
 </g>
</svg>
