<?xml version="1.0" encoding="UTF-8"?>
<!DOCTYPE svg PUBLIC "-//W3C//DTD SVG 1.1//EN" "http://www.w3.org/Graphics/SVG/1.1/DTD/svg11.dtd">
<!-- Creator: CorelDRAW 2019 (64-Bit) -->
<svg xmlns="http://www.w3.org/2000/svg" xml:space="preserve" width="8.5in" height="11in" version="1.1" style="shape-rendering:geometricPrecision; text-rendering:geometricPrecision; image-rendering:optimizeQuality; fill-rule:evenodd; clip-rule:evenodd"
viewBox="0 0 8500 11000"
 xmlns:xlink="http://www.w3.org/1999/xlink"
 xmlns:xodm="http://www.corel.com/coreldraw/odm/2003">
 <defs>
  <style type="text/css">
   <![CDATA[
    .fil4 {fill:#FEFEFE}
    .fil1 {fill:#FEFEFE}
    .fil0 {fill:#009846}
    .fil6 {fill:black}
    .fil5 {fill:#009934}
    .fil7 {fill:#4D7822}
    .fil9 {fill:#596A1B}
    .fil12 {fill:#5C8323}
    .fil13 {fill:#739527}
    .fil2 {fill:#940052}
    .fil8 {fill:#9DBE38}
    .fil15 {fill:#E6B562}
    .fil10 {fill:#EBBD6C}
    .fil18 {fill:#ECCB86}
    .fil11 {fill:#F6D589}
    .fil16 {fill:#F6D696}
    .fil17 {fill:#F8E2AA}
    .fil19 {fill:#FCFCF4}
    .fil20 {fill:#FDFDFD}
    .fil14 {fill:#FEF4C5}
    .fil3 {fill:#FFE718}
   ]]>
  </style>
 </defs>
 <g id="Layer_x0020_1">
  <metadata id="CorelCorpID_0Corel-Layer"/>
  <g id="_2666537475952">
   <ellipse class="fil0" cx="4250" cy="5500" rx="3407.68" ry="2726.15"/>
   <ellipse class="fil1" cx="4249.97" cy="5500" rx="3284.79" ry="2627.83"/>
   <ellipse class="fil2" cx="4250.03" cy="5500" rx="3149.34" ry="2519.46"/>
   <path class="fil3" d="M5713 5931.51l276.81 21.22 -1.54 -1.54 15.98 1.2 15.98 1.2 35.55 2.68 35.55 2.68c7.19,18.46 24.05,36.15 50.04,51.93 45.71,27.74 114.13,46.27 192.62,52.15 17.45,1.31 34.81,1.94 51.96,1.94 142.01,0 268.23,-43.37 293.72,-104.81 28.57,-68.87 -80.01,-134.78 -242.03,-146.92 -78.51,-5.89 -157.69,1.57 -222.98,21.01 -37.07,11.03 -67.12,25.18 -88.72,41.45l-1518.53 -114.44 0 -218.97c0,-23.35 -44.54,-42.28 -99.47,-42.28l-397.87 0c-54.93,0 -99.46,18.93 -99.46,42.28l0 174.92 -1483.94 -111.21c-7.2,-18.44 -24.05,-36.12 -50.03,-51.89 -45.71,-27.74 -114.12,-46.27 -192.61,-52.15 -78.52,-5.89 -157.69,1.57 -222.98,21 -65.28,19.43 -108.87,48.51 -122.7,81.87 -28.57,68.87 80.01,134.78 242.04,146.92 17.46,1.31 34.81,1.94 51.96,1.94 108.28,0 207.33,-25.23 259.59,-64.44l121.19 9.08 24.91 1.87 301.01 22.56 31.54 2.36 -31.54 -2.37 31.54 2.37 1040.02 77.94 0 1548.59 -632.39 0c-202.93,0 -368.03,70.17 -368.03,156.42l0 114.14c0,23.35 44.54,42.28 99.47,42.28l2398.67 0c54.93,0 99.46,-18.93 99.46,-42.28l0 -114.14c0,-86.25 -165.09,-156.42 -368.02,-156.42l-1030.24 0 0 -1767.08 198.93 0 0 1483.94c0,23.34 44.54,42.28 99.46,42.28 54.93,0 99.47,-18.93 99.47,-42.28l0 -1221.37 1075.71 81.07 15.44 1.17 15.43 1.16 -15.43 -1.16 -15.44 -1.17 15.44 1.17 15.43 1.16 -0.98 0.98zm-3099.88 -233.17l24.91 1.87 -24.91 -1.87zm3674.73 232.46c4.62,-11.12 19.15,-20.81 40.9,-27.29 16.91,-5.03 36.61,-7.65 56.83,-7.65 5.81,0 11.66,0.21 17.5,0.65 54.01,4.05 90.2,26.02 80.67,48.98 -9.52,22.95 -61.17,38.33 -115.23,34.29 -26.17,-1.96 -48.96,-8.14 -64.2,-17.38 -15.23,-9.25 -21.07,-20.46 -16.47,-31.59zm-3957.7 -296.6c-9.52,22.95 -61.18,38.33 -115.23,34.29 -54.01,-4.05 -90.2,-26.02 -80.68,-48.98 4.62,-11.12 19.15,-20.81 40.9,-27.29 16.91,-5.03 36.61,-7.66 56.83,-7.66 5.81,0 11.66,0.22 17.5,0.65 26.17,1.96 48.96,8.14 64.2,17.38 15.24,9.26 21.09,20.48 16.47,31.6zm2909.62 1802c93.24,0 169.09,32.24 169.09,71.87l0 71.87 -2199.74 -0 0 -71.87c0,-39.63 75.85,-71.87 169.09,-71.87l1861.55 0z"/>
   <path class="fil4" d="M6444.33 5766.17l3.24 -84.06 -674.63 -26.05 -3.26 84.4c-2.95,76.43 56.37,141.98 132.81,144.93l604.41 23.33c-5.59,-5.5 -11,-10.33 -16.08,-15.83 -31.74,-34.39 -48.47,-79.99 -46.51,-126.74zm0 0z"/>
   <path class="fil4" d="M6267.04 5248.98l95.3 70.99 100.87 -63.41c27.58,-17.3 50.53,-57.85 51.79,-90.37l5.36 -138.89 -143.46 -77.98 -149.04 66.5 -5.37 139.07c-1.26,32.52 18.37,74.72 44.55,94.09l0 0zm27.11 -130.42c7.52,-6.89 19.2,-6.39 26.08,1.14l28.26 30.82 73.49 -68.02c7.48,-6.93 19.17,-6.48 26.09,1.02 6.93,7.48 6.46,19.17 -1.02,26.09l-87.1 80.67c-3.59,3.33 -8.35,5.13 -13.26,4.96l-0.04 -0c-4.92,-0.22 -9.55,-2.39 -12.85,-6.04l-40.8 -44.52c-6.89,-7.53 -6.37,-19.21 1.14,-26.12l0 0zm0 0z"/>
   <path class="fil4" d="M6931.6 4827.23l-0.59 -0.02c-54.2,-2.09 -101.02,41.45 -103.11,95.68l-6.54 169.28 197.64 7.63 6.55 -169.61c2.34,-54.32 -39.64,-100.34 -93.96,-102.96zm0 0z"/>
   <path class="fil4" d="M6089.83 4794.73c-51.26,-1.98 -94.56,37.57 -96.5,88.05l-34.16 743.53 508.28 19.63c10.33,0.81 18.17,9.66 17.7,20.02l-3.93 101.64c-3.15,76.83 56.39,141.76 133.2,145.29l0.46 0.02c76.58,2.4 140.6,-57.73 143.03,-134.3l33.09 -857.11c1.5,-38.78 20.28,-72.52 47.51,-97.86l-748.68 -28.91zm101.57 208.15c0.03,-6.94 4.08,-13.26 10.39,-16.19l168.33 -74.81c5.17,-2.31 11.12,-2.09 16.1,0.62l162.35 87.8c6.07,3.41 9.61,10 9.12,16.94l-5.81 150.35c-1.73,44.75 -31.07,96.45 -69.04,120.23l-111.24 70.13c-3.11,1.97 -6.76,2.96 -10.45,2.81 -3.67,-0.14 -7.21,-1.39 -10.15,-3.61l-105.82 -78.51c-35.99,-26.65 -61.33,-80.46 -59.6,-125.2l5.81 -150.58zm424.24 564.32l-505.97 -19.54c-10.19,-0.39 -18.13,-8.97 -17.73,-19.16 0.39,-10.19 8.97,-18.13 19.16,-17.73l505.97 19.54c10.19,0.39 18.13,8.97 17.73,19.16 -0.39,10.19 -8.97,18.13 -19.16,17.74l0 0zm3.76 -97.51l-505.97 -19.53c-10.19,-0.39 -18.13,-8.97 -17.74,-19.16 0.39,-10.19 8.97,-18.13 19.16,-17.73l505.97 19.53c10.19,0.39 18.13,8.97 17.73,19.16 -0.39,10.19 -8.96,18.13 -19.16,17.73l0 0zm0 0z"/>
   <path class="fil5" d="M1883.5 4992.45l-0.22 0c4.57,117.65 44.62,245.15 106.13,362.78 0,0 146.8,297.35 607.79,297.35 460.96,0 610.4,-294.74 610.4,-294.74 61.63,-118.15 99.02,-244.85 103.7,-365.29l-0.33 0c0.2,-3.31 0.32,-6.31 0.32,-9.44 0,-56.54 -34.96,-109.45 -95.19,-155.09 -282.83,-127.63 -605.61,-149.09 -909.97,-129.75 0.31,26.99 0.62,53.99 0.93,80.98 189.56,-31.95 571.32,-2.57 844.87,89.84 39.73,26.67 62.7,56.44 62.7,88.07 0,111.34 -276.43,201.68 -617.44,201.68 -340.96,0 -617.33,-90.36 -617.33,-201.68 0,-77.04 132.57,-143.95 327.2,-177.91l-0.93 -80.98c-249.11,48.77 -422.96,157.74 -422.96,284.84 0,3.1 0.1,6.13 0.32,9.33z"/>
   <path class="fil4" d="M3218.7 4523.89c9.3,17.48 23.39,46.05 15.78,93.79 -8.99,58.06 -38.43,87.37 -46.83,99.62 -3,-13.02 -20.23,-48.78 -11.93,-103.63 7.76,-48.57 25.36,-75.55 34.65,-94.75 19.19,-74.28 48.37,-138.51 70.79,-188.35 32.81,-72.56 54.16,-117.39 54.06,-117.42l-49.33 119.02c-21.31,51.22 -49.24,116.94 -67.19,191.73zm82.1 -110.76c7.56,16.74 18.8,44.08 8.84,87.81 -12.11,53.13 -41.15,78.42 -49.8,89.3 -1.87,-12.29 -15.57,-46.64 -4.34,-96.57 10.23,-44.69 28.12,-68.49 37.98,-85.62 22.06,-67.5 52.57,-125.12 75.98,-169.91l56.13 -105.64 -52.06 107.24c-22.23,46.17 -51.69,105.31 -72.74,173.4zm88.35 -106.11c5.93,15.78 14.49,41.74 2.52,81.33 -14.5,48.24 -43.02,69.57 -51.66,78.97 -0.71,-11.58 -10.88,-43.99 2.59,-89.28 12.16,-40.38 29.92,-60.97 40.11,-76.15 24.56,-60.68 55.75,-111.9 79.91,-151.6l57.54 -93.88 -53.65 95.75c-23.25,41.15 -53.65,93.57 -77.35,154.85zm186.98 -29.24c-10.53,12.08 -23.67,31.98 -55.19,52.81 -35.07,24 -66.24,25.83 -76.68,28.92 5.3,-10.04 14.66,-41.11 53.18,-67.35 31.8,-21.07 56.94,-19.96 72.57,-18.64 47.58,-34.16 87.57,-68.78 120.44,-93.8 46.45,-36.43 77.42,-55.07 77.29,-55.32 0.16,0.15 -29.81,20.48 -74.82,58.21 -31.46,25.65 -69.9,60.79 -116.79,95.16zm-8.67 -47.57c-21.5,25.54 -44.69,29.96 -57.26,35.9 1.29,-11.19 -5.04,-38.13 19.27,-67.24 20.87,-24.07 44.95,-28.73 57.11,-31.27 86.23,-98.97 165.53,-165.72 183.86,-181.56l4.04 -3.62c0.78,0.58 -86.16,77.81 -184.37,193.52 -1.82,12.9 -5.39,34.51 -22.65,54.27zm-123.44 217.2c-37.71,26.27 -71.7,29.04 -82.88,32.41 5.39,-11.07 15.04,-45.47 56.64,-74.36 34.11,-23.48 61.68,-22.28 78.68,-20.97 51.46,-37.62 94.61,-75.5 129.7,-103.24 50.26,-39.68 83.2,-60.58 83.29,-60.85 -0.05,0.15 -32.04,22.82 -80.68,63.99 -33.64,28.33 -75.06,66.75 -125.55,104.75 -11.42,13.25 -25.5,34.76 -59.2,58.26zm39.96 -241.3c4.13,14.89 10.06,38.99 -3.31,74.41 -16.91,43.14 -44,60.67 -52.47,68.72 0.1,-10.47 -7.2,-41.13 8.56,-81.48 13.51,-36.2 31.44,-53.73 41.65,-67 26.29,-53.61 58.46,-98.21 82.69,-133.13l58.25 -81.96c0.09,0.03 -20.49,32.54 -55.02,83.96 -23.34,36.13 -54.79,82.02 -80.35,136.48zm-50.31 295.19c-11.97,14.72 -26.69,38.26 -62.55,64.08 -40.28,29.1 -76.92,32.81 -88.96,36.87 5.6,-12.27 15.33,-49.89 59.65,-81.86 36.48,-26.17 66.12,-25.18 84.61,-23.93 54.82,-41.61 100.88,-83.04 138.29,-113.48 53.69,-43.39 89.21,-66.44 89.13,-66.57 0.07,0.13 -34,25 -86.25,70.02 -35.75,30.99 -79.98,73 -133.92,114.88zm-199.05 218.04c-12.12,3.69 -21.58,5.74 -26.77,7.68 5.63,-13.46 14.95,-54.55 61.96,-90.03 27.54,-20.71 51.87,-26.21 70.75,-27.43l83.24 -84.28c0.09,0.03 -28.35,31.37 -76.8,84.07 4.79,-0.02 9.24,0 13.08,0.08 58.04,-45.76 106.71,-91.17 146.54,-124.31 56.74,-47.32 94.51,-72.43 94.35,-72.6 0.06,0.48 -211.93,185.24 -232.76,202.19 -12.52,15.85 -27.93,41.52 -65.79,70.31 -17.81,13.43 -34.76,22.03 -49.66,27.95l-18.13 6.36z"/>
   <path class="fil4" d="M3000.01 4999.07l-48.12 123.21c14.89,-3.12 29.12,-6.65 42.93,-10.44l39.97 -97.4c38.07,-10.28 79.88,-25.96 107.04,-55.52 -30.04,18.94 -64.43,30.47 -100.52,39.1l26.78 -56.71c20.3,-26.18 31.56,-56.85 32.22,-75.8 -18.81,18.82 -41.93,43.72 -53.43,71.61 -11.15,18.87 -23.94,35.53 -38.46,49.85 -11.03,-38.33 -13.62,-81.38 -7.71,-124.27 -12.35,38.72 -9.44,97.28 -0.71,136.37z"/>
   <path class="fil4" d="M3140.3 4614.59c-12.27,22.48 -34.24,52.57 -49.27,110.8 -17.06,65.2 -4.56,113.35 -3.96,130.51 12.5,-13 54.78,-43.64 73.29,-115.61 15.03,-59 -0.49,-96.13 -10.67,-118.84 25.15,-89.66 54.13,-168.39 73.38,-230.89 27.43,-89.21 38.6,-145.44 38.65,-145.25 -0.15,-0.17 -14.08,55.39 -44.3,143.54 -20.81,60.62 -51.14,137.19 -77.13,225.73z"/>
   <path class="fil4" d="M3040.63 4745.81c-10.4,23.41 -29.84,55.19 -40.07,114.46 -11.68,66.37 4.71,113.35 6.7,130.39 11.4,-13.97 51.04,-47.96 63.62,-121.2 10.17,-60.03 -8.33,-95.76 -20.33,-117.57 17.76,-91.42 40.21,-172.24 54.3,-236.11 20.06,-91.15 26.6,-148.1 26.67,-147.91 -0.16,-0.15 -9.52,56.35 -32.43,146.68 -15.8,62.12 -39.78,140.91 -58.46,231.27z"/>
   <path class="fil4" d="M3325.4 4726.32c-16.24,19.81 -35.89,51.46 -84.24,87.23 -54.05,40.26 -103.37,46.73 -119.5,52.61 7.36,-16.46 19.91,-67.15 79.69,-111.3 49.06,-36.06 89.29,-35.59 114.17,-34.68 73.69,-56.94 135.8,-113.33 186.52,-154.61 72.42,-58.88 120.35,-90.32 120.15,-90.3 0.21,0.07 -46.06,33.83 -116.46,94.89 -48.39,42.03 -108,98.86 -180.33,156.15z"/>
   <path class="fil4" d="M3249.05 4858.33c-16.65,20.31 -36.8,52.76 -86.37,89.44 -55.41,41.28 -105.99,47.92 -122.52,53.94 7.54,-16.88 20.41,-68.85 81.7,-114.12 50.3,-36.97 91.56,-36.49 117.06,-35.56 75.55,-58.39 139.23,-116.2 191.24,-158.53 74.25,-60.37 123.39,-92.61 123.2,-92.58 0.21,0.07 -47.23,34.68 -119.41,97.29 -49.62,43.09 -110.74,101.37 -184.89,160.11z"/>
   <path class="fil6" d="M2880.67 4813.58c-6.3,-14.11 -34.14,-50.77 -36.89,-115.21 -2.17,-57.06 12.08,-91.67 18.59,-115.64 5.78,-88.87 25.69,-168.6 40.87,-230.24 22.32,-89.85 37.55,-145.46 37.55,-145.46l-31.92 146.35c-13.46,62.92 -31.55,143.87 -35.9,232.97 14.35,18.14 36.56,47.48 38.38,103.33 2.64,68.08 -23.83,107.99 -30.69,123.9z"/>
   <path class="fil6" d="M3059.96 4269.11c9.58,18.42 23.96,48.56 14.54,99.05 -11.22,61.77 -43.71,92.8 -52.97,105.76 -2.65,-13.9 -19.79,-51.89 -9.4,-109.8 9.51,-51.39 28.8,-79.91 39.2,-100.18 22.03,-78.53 53.78,-146.69 78.18,-199.65l58.21 -124.79 -53.35 126.42c-23.18,54.42 -53.53,123.98 -74.41,203.18z"/>
   <path class="fil6" d="M3288.53 4200.64c-11.56,16.76 -25.11,43.28 -61.29,74.33 -40.01,35.4 -78.92,43.32 -91.28,48.87 5.15,-13.25 12.64,-52.94 56.67,-91.76 36.55,-31.31 68.05,-34.41 87.67,-35.59 54.56,-49.95 99.43,-99.56 136.64,-135.69 52.64,-52.78 88.59,-81.13 88.43,-81.29 0.06,0.21 -34.36,30.25 -85,84.46 -35.39,36.66 -78.38,86.35 -131.84,136.69z"/>
   <path class="fil6" d="M3271.11 4143.93c-22.91,35.12 -51.31,44.41 -66.09,54.06 -0.02,-14.06 -11.78,-45.85 14.35,-85.7 22.67,-33.13 51.79,-43.15 66.65,-48.36 93.23,-136.23 182.6,-231.8 203.04,-254.22l4.55 -5.31c1.12,0.61 -96.2,110.35 -202.07,269.04 -0.37,16.28 -1.8,43.31 -20.43,70.49z"/>
   <path class="fil6" d="M3213.52 4349.61c-12.37,18.3 -26.78,47.28 -65.39,81.59 -43.28,38.81 -85.18,48.2 -98.51,54.41 5.12,-14.55 12.38,-58.45 59.96,-101.05 39.12,-34.68 73.59,-37.82 94.82,-39.33 58.59,-55.02 107.15,-108.97 146.88,-149.03 56.85,-57.29 95.27,-88.84 95.01,-88.97 0.29,0.24 -36.42,33.52 -91.35,92.39 -37.83,40.57 -84.12,94.77 -141.41,149.98z"/>
   <path class="fil6" d="M3142.96 4499.24c-13.06,19.8 -28.06,51.32 -69.14,89.49 -46,42.55 -91,53.56 -105.19,60.51 5.22,-15.8 11.93,-63.75 62.65,-110.73 41.65,-38.26 78.76,-42.28 101.81,-44.06 62.19,-60.38 113.8,-119.17 156.08,-162.95 60.75,-62.52 101.81,-96.86 101.44,-96.99 0.25,0.16 -38.86,36.5 -97.29,100.7 -40.11,44.22 -89.49,103.36 -150.36,164.03z"/>
   <path class="fil6" d="M2965.05 4414.4c11.78,19.28 29.7,50.77 23.3,105.93 -7.35,67.35 -40.02,103.3 -49.15,118.12 -4.1,-14.89 -25.84,-54.41 -18.86,-117.73 6.1,-56.2 25.06,-88.48 34.81,-111.13 17.99,-86.53 47.88,-162.44 70.65,-221.36l54.87 -139.2 -49.48 140.49c-21.22,60.46 -49.43,137.75 -66.15,224.87z"/>
   <path class="fil6" d="M3077.33 4649.34c-13.48,21.78 -28.8,55.74 -72.02,97.57 -48.27,47.03 -96.31,59.94 -111.52,67.89 5.13,-17.29 10.89,-69.19 64.33,-120.83 43.88,-42.21 83.83,-47.04 108.6,-49.41 65.54,-66.15 119.69,-130.23 164.52,-177.83 64.03,-67.91 107.4,-105.39 107.21,-105.34 0.22,0.04 -41.2,39.6 -102.94,109.41 -42.44,48.04 -94.04,112.22 -158.19,178.55z"/>
   <path class="fil6" d="M3163.78 4128.9c7.28,17.65 18.12,46.04 6.34,91.93 -14.94,55.7 -46.2,81.93 -55.56,93.25 -1.39,-12.95 -14.76,-49.16 -0.75,-101.31 11.69,-46.61 31.47,-71.19 42.37,-89.16 25.2,-70.48 58.86,-130.54 84.19,-177.64l60.76 -110.26c0.09,-0.02 -20.83,43.25 -56.48,112.23 -24.15,48.26 -56.72,109.92 -80.87,180.97z"/>
   <path class="fil6" d="M2827.09 4975.15c-6.29,-14.1 -34.13,-50.77 -36.89,-115.21 -2.17,-57.06 12.08,-91.67 18.59,-115.64 5.78,-88.87 25.69,-168.6 40.87,-230.24 22.32,-89.85 37.55,-145.46 37.55,-145.46l-31.92 146.35c-13.46,62.92 -31.55,143.87 -35.9,232.97 14.35,18.14 36.56,47.48 38.38,103.33 2.64,68.08 -23.83,107.99 -30.69,123.9z"/>
   <path class="fil6" d="M3023.74 4810.91c-13.48,21.78 -28.8,55.74 -72.02,97.57 -48.27,47.03 -96.31,59.94 -111.52,67.89 5.13,-17.28 10.89,-69.19 64.33,-120.83 43.88,-42.21 83.83,-47.04 108.6,-49.41 65.54,-66.15 119.69,-130.23 164.52,-177.83 64.03,-67.91 107.4,-105.39 107.21,-105.34 0.22,0.04 -41.2,39.6 -102.94,109.41 -42.44,48.04 -94.04,112.22 -158.19,178.55z"/>
   <path class="fil6" d="M2765.66 5143.49c-6.65,-14.91 -36.08,-53.66 -38.99,-121.77 -2.29,-60.31 12.77,-96.89 19.65,-122.23 6.11,-93.94 27.15,-178.2 43.2,-243.36 23.59,-94.97 39.69,-153.75 39.69,-153.75l-33.73 154.69c-14.22,66.5 -33.35,152.07 -37.94,246.24 15.17,19.17 38.65,50.19 40.56,109.22 2.79,71.96 -25.19,114.14 -32.44,130.96z"/>
   <path class="fil6" d="M2973.52 4969.89c-14.25,23.02 -30.44,58.92 -76.12,103.12 -51.02,49.71 -101.8,63.36 -117.87,71.76 5.42,-18.27 11.51,-73.13 67.99,-127.71 46.38,-44.61 88.6,-49.72 114.79,-52.23 69.27,-69.93 126.5,-137.65 173.89,-187.96 67.68,-71.78 113.52,-111.39 113.32,-111.34 0.23,0.05 -43.55,41.85 -108.81,115.64 -44.85,50.77 -99.39,118.61 -167.2,188.72z"/>
   <path class="fil7" d="M2281.38 5066.15l6.1 3.33 -3.63 -26.31c0.61,-21.13 -0.69,-21.67 2.85,-48.31 12.27,-92.36 90.89,-135.7 108.67,-199.64 5.02,-18.05 4.9,-33.37 0.84,-50.09l-4.59 -20.46c-1.56,-9.37 -0.03,-13.67 -1.06,-27.71 -0.39,-5.26 0.78,-10.64 1.37,-17.01l0.4 -3.61c4.06,-40.62 27.24,-104.19 40.46,-144.87 8.41,-25.87 10.26,-31.06 7.57,-40.31l-4.01 7.99c-14.95,29.78 -45.25,66.3 -36.31,99.45 5.61,20.81 -24.52,73.02 -11.13,139.61 1.33,6.61 2.76,11.67 3.91,18.07 13.78,76.65 -86.85,123.7 -109.4,227.52 -1.17,5.4 -1.99,11.59 -2.67,17.05 -2.17,17.63 -1.75,34.67 -0.6,52.28l1.2 13.04zm116.25 63.47l6.04 3.3c48.94,-20.76 109.93,-51.15 142.62,-92.87l0 0c41.94,-65.82 77.11,-131.73 104.97,-197.73l0.65 -14.41c1.43,-3.49 1.92,-5.18 3.15,-8.61 16.99,-47.28 30.92,-97 38.56,-145.14 7.04,-44.39 -26.14,-113.24 -31.33,-161.98 -3.85,-36.15 -5.74,-71.36 -3.76,-107.84 0.38,-7.04 -1.04,-11.21 -0.61,-18.13 1.55,-24.94 2.19,-46.76 -7.44,-71.55 -10.32,-26.55 -32.2,-50.93 -52.93,-72.57 -26.48,-27.66 -43.31,-29.18 -73.28,-46.52 -28.03,-16.22 -49.1,-41.69 -73.59,-62.96 -11.09,-9.63 -23.3,-19.98 -35.69,-27.61 -9.25,-5.69 -27.99,-20.48 -33.43,-6.86 -0.31,14.4 20.75,32.59 25.41,47.97 4.8,15.83 0.33,10.04 14.38,24.43 7.08,7.25 6.02,14.65 4.03,21.9 -22.85,-0.91 -18.55,-10.22 -26.34,-21.18 -25.65,-36.04 -94.78,-12.48 -109.36,-12.3 -0.19,-9.33 1.93,-12.59 -3.14,-24.03 -11.05,-24.93 -46.9,-28.54 -69.56,-19.75 -16.93,6.57 -30.13,29.44 -46.57,19.86 -15.96,-9.29 -17.55,-39.83 -40.25,-29.73 27.47,-3.3 19.94,31.53 44.83,37.13 18.65,4.19 30.09,-16.77 53.15,-22.13 21.21,-4.92 52.57,3.27 50.83,34.2 -0.87,15.44 -18.22,15.45 -31.4,28.59 -21.6,21.54 -15.94,45.88 9.28,40.89 27.06,-5.35 25.34,-41.95 31.6,-49.62 6.02,-7.39 44.54,-8.85 52.04,-9.28 16.11,-0.93 35.28,-2.15 51.28,16.99 -8.01,2.34 -16.78,-1.98 -26.74,-0.1 -31.17,5.89 -51.54,40.09 -37.63,65.02 24.68,44.22 74.76,-16.2 79.24,-54.86l16.69 5.95c-6.94,21.16 -14.63,30.08 -17.93,52.18 -2.03,13.64 -4.74,38.58 -2.53,51.43 -19.78,-4.21 27.54,169.85 33.5,197.43l0 0 4.01 -7.99c-0.81,-2.78 -2.02,-5.93 -3.59,-10.12 -6.12,-16.33 -11.67,-47.48 -14.94,-65.01l-12.71 -147.52c0.89,-12.62 0.62,-18.36 4.52,-32.7 3.52,-12.93 8.24,-20.24 13.56,-32.89 5,-11.89 8.54,-23.18 -0.51,-33.21 -15.37,-17.03 -7.63,-1.88 -15.16,-25.28 -1.28,-4 -1.62,-3.11 -2.05,-7.3 -4.63,-8.2 -21.56,-31.6 -22.97,-39.2 58.45,20.89 92.74,76.39 134.74,101.76 23.28,14.06 45.82,17.44 69.34,42.2 20.76,21.87 40.62,44.43 51.36,67.37 17.24,36.84 9.11,90.01 9.96,135.27 0.4,21.41 1.06,47.32 4.3,67.94 3.34,21.3 9.89,45 15.47,66.51 9.89,38.05 20.7,65.8 14.94,101.2 -1.8,11.06 -4.19,22.3 -6.75,33.97 -5.2,23.68 -19.11,75.46 -29.49,102.37 -4.26,11.03 -8.05,22.56 -14.66,33.89 -7.08,12.14 -16.68,21.35 -24.89,34.61 -14.49,23.42 -32.83,74.28 -44.66,102.83 -10.02,24.17 -18.67,45.75 -40.36,67.77 -10.42,10.58 -57.02,43.62 -64.79,42.56 -9.61,8.92 -43.14,22.93 -63.42,31.47zm-4.59 -939.63c6.07,22.36 -43.04,87.35 -57.85,50.67 -4.26,-10.57 -0.7,-35.15 14.33,-45.05 12.24,-8.07 31.75,-8.98 43.51,-5.62z"/>
   <path class="fil8" d="M2287.48 5069.47l28.73 15.69c-6.45,-7.56 -11.67,-16.41 -15.34,-26.23 -9.31,-24.96 -6,-52.98 8.69,-79.55 8.92,-16.13 19.67,-25.03 29.62,-40.7 8.83,-13.91 22.73,-26.81 34.2,-39.23 17.16,-18.56 36.85,-39.28 56.92,-53.23 3.95,-2.74 15.96,-9.59 17.31,-11 -37.3,-35.91 -42.09,-110.93 -27.94,-159.7 14.02,-48.33 48.66,-130.41 97.04,-155.98 -39.94,-20.91 -79.27,-46.39 -89.35,-96.13 -1.15,-5.67 -0.16,-1.94 -0.86,-6.04l-6.3 -53.3c-0.45,-6.18 1.25,-5.72 0.02,-13.34 -3.07,-18.93 -2.21,-36.76 -0.42,-55.92 0.08,-0.9 0.31,-2.44 0.47,-3.64 1.56,-11.51 2.53,-9.86 4.93,-19.67 1.93,-7.93 0.29,-17.67 4.71,-26.68 11.57,-23.61 29.63,-26.46 49.83,-27.6 31.68,-1.79 53.75,14.57 79.73,30.6 0.02,0.01 0.03,0.02 0.05,0.03 -0,-0 -0.02,-0.01 -0.05,-0.03 -1.3,-0.86 -28.83,-20.88 -36.1,-24.35 -13.48,-6.44 -24.66,-10.6 -37.95,-19.43 -27.76,-18.44 -51.09,-49.71 -75.94,-66.94 0.43,4.19 0.76,3.31 2.05,7.3 7.53,23.39 -0.2,8.24 15.16,25.28 9.05,10.03 5.51,21.32 0.51,33.21 -5.32,12.65 -10.04,19.97 -13.56,32.89 -3.9,14.33 -3.63,20.08 -4.52,32.7l12.71 147.52c3.27,17.53 8.82,48.68 14.94,65.01 6.79,18.13 6.95,16.79 -3.98,50.44 -13.22,40.69 -36.4,104.25 -40.46,144.87l-0.4 3.61c-0.59,6.37 -1.76,11.75 -1.37,17.01 1.03,14.04 -0.5,18.34 1.06,27.71l4.59 20.46c4.06,16.73 4.18,32.04 -0.84,50.09 -17.78,63.94 -96.41,107.28 -108.68,199.64 -3.54,26.65 -2.24,27.18 -2.85,48.31l3.63 26.31zm78.39 42.8l31.76 17.35c20.28,-8.55 53.81,-22.56 63.42,-31.47 59.4,-29.56 79.61,-95.03 99.7,-146.23 19.08,-48.63 17.2,-41.42 44.17,-79.82 17.33,-24.67 22.41,-55.09 33.15,-79.61l-1.63 0.79c-17.26,22.5 -31.98,41.05 -56,54.94 -19.74,11.41 -27.24,12.33 -44.87,15.89 -8.4,1.69 -5.89,2.11 -14.95,1.08 17.2,17.19 20.91,56.2 20.47,78.61l-2.52 20.8c-3.89,20.94 -8.85,39.44 -18.23,58.77 -14.8,30.52 -42.73,52.93 -71.22,66.92 -5.79,2.84 -14.73,6.63 -19.53,8.46 -6.49,2.47 -12.29,3.23 -19.13,6.29 -15.34,6.87 -30.53,8.98 -44.59,7.24z"/>
   <path class="fil9" d="M2316.2 5085.16l20.99 11.46c-12.52,-7.81 -24.85,-19.22 -26.11,-29.69 -7.73,-7.94 -9.42,-23.34 -9.54,-31.29 -0.59,-38.96 14.07,-70.35 49.05,-93.94 -24.46,38.13 22.57,63.94 62.02,-23.14 7.43,-16.39 10.52,-22.44 8.66,-37.28 5.97,-6.62 16.05,-16.27 24.03,-17.35 15.94,-7.82 32.04,-3.85 46.25,13.37 29.74,36.04 16.14,104.7 -6.03,142.01 -10.09,30.24 -50.73,70.97 -80.27,82.87 -15.05,6.06 -35.58,7.11 -49.5,3.2 -2.48,-0.69 -5.32,-1.79 -8.36,-3.2l18.47 10.08c14.07,1.74 29.25,-0.38 44.59,-7.24 6.83,-3.06 12.64,-3.82 19.13,-6.29 4.8,-1.83 13.74,-5.62 19.53,-8.46 28.49,-13.98 56.42,-36.4 71.22,-66.92 9.38,-19.33 14.34,-37.83 18.23,-58.77l2.52 -20.8c0.44,-22.42 -3.28,-61.43 -20.47,-78.61 9.06,1.03 6.55,0.61 14.95,-1.08 17.63,-3.56 25.13,-4.48 44.87,-15.89 24.02,-13.89 38.74,-32.43 56,-54.94l17.2 -33.13c5.29,-12.48 8.6,-22.77 11.28,-35.61 4.5,-21.51 4.57,-47.98 1.61,-69.4 -6.07,-44 -25.93,-85.96 -57.77,-118.17 -2.82,-2.85 -5.91,-5.54 -8.63,-8.33l-5.94 -6.67c-0.32,-0.37 -0.78,-0.86 -1.04,-1.16 -0.27,-0.3 -0.74,-0.76 -1.07,-1.17 15.82,-6.18 25.52,-24.3 30.19,-33.27 5.48,-10.52 16.31,-18.69 22.52,-34.06 17.97,-44.47 -2.46,-97.6 -26.83,-137.43 -7.07,-11.56 -15.8,-23.52 -24.44,-33.87 -10.32,-12.36 -24.83,-22.92 -33.98,-33.14 -26,-16.04 -48.08,-32.42 -79.78,-30.63 -20.21,1.14 -38.27,3.99 -49.83,27.6 -4.42,9.02 -2.78,18.75 -4.71,26.68 -2.4,9.81 -3.37,8.16 -4.93,19.67 -0.16,1.2 -0.39,2.74 -0.47,3.64 -1.79,19.16 -2.65,37 0.42,55.92 1.24,7.62 -0.47,7.16 -0.02,13.34l6.3 53.3c0.7,4.09 -0.29,0.36 0.86,6.04 10.07,49.75 49.41,75.22 89.35,96.13 -48.38,25.57 -83.02,107.65 -97.04,155.98 -14.15,48.77 -9.36,123.79 27.94,159.7 -1.35,1.41 -13.37,8.26 -17.31,11 -20.07,13.94 -39.76,34.67 -56.92,53.23 -11.48,12.42 -25.37,25.33 -34.2,39.23 -9.95,15.67 -20.7,24.56 -29.62,40.7 -14.7,26.57 -18.01,54.59 -8.69,79.55 3.67,9.83 8.89,18.68 15.34,26.23zm297.31 -535.92c19.65,27.35 20.63,26.12 33.05,57.09 18.35,45.78 19.91,105.73 0.41,151.78 -25.5,60.22 -78.03,107.89 -143.05,100.44 -1.32,-0.15 -1.73,-0.12 -3.62,-0.42l-19.33 -4.91c-15.28,-4.37 -34.59,-25.12 -41.79,-36.43l-11.1 -26.39c-7.19,-20.2 -2.92,-7.58 -7.15,-27.58l-1.32 -11.97c0.63,-12.4 -3.66,-2.64 -0.68,-25.34l9.7 -59.28c5.36,-14.95 6.06,-20.61 14.53,-40.34 9.83,-22.88 26.61,-54.24 42.88,-72.83 12.72,-14.53 27.64,-30.54 48.13,-35.37 0.34,-0.08 0.83,-0.2 1.17,-0.28 0.34,-0.07 0.83,-0.22 1.17,-0.29 28.54,-6.27 57.23,4.62 76.99,32.12zm-152.5 -155.57c19.5,31.93 40.61,18.2 40.74,1.6 0.15,-19.01 -5.09,-27.98 -15.03,-47.35 -7.65,-14.88 -23.39,-35.78 -35.88,-47.4 -12.34,-11.49 -11.13,-0.22 -15.98,-16.89 -16.38,-56.31 36.48,-69.76 77.52,-55.49 65.22,22.68 120.23,101.94 131.33,166.87 2.04,11.95 0.12,11.72 1.09,24.08 2.72,34.77 -25.15,71.16 -59.34,77.76 -46.21,8.93 -87.06,-13.07 -110.21,-56.54 -7.03,-13.19 -14.32,-32.37 -14.23,-46.66z"/>
   <path class="fil10" d="M2467.37 4407.08c32.79,27.37 44.8,-10.4 33.97,-44.44 -3.01,-9.46 -7.94,-15.41 -9.91,-20.3l-1.53 -7.22c18.52,15.42 34.7,33.88 47.47,52.09 4.65,6.62 5.08,6.94 7.72,13.26 2.78,6.66 5.12,9.06 6.15,15.63l0.31 3.62c0.87,5.12 -0.85,-0.22 2.08,6.06 2.16,4.63 8.33,11.35 0.48,7.54 1.26,3.91 1.83,2.52 2.75,5.65l1.62 15.81c-0.1,8.88 1.61,19.96 -3.44,26.9 -0.4,0.55 -3.93,3.99 -4.58,4.48 -8.94,6.69 -21.13,2.72 -30.98,-2.02 -33.13,-15.93 -42.67,-49.08 -52.11,-77.06zm-6.35 -13.41c-0.09,14.3 7.2,33.47 14.23,46.66 23.15,43.47 64,65.46 110.21,56.54 34.19,-6.6 62.06,-43 59.33,-77.76 -0.96,-12.36 0.96,-12.13 -1.08,-24.08 -11.1,-64.93 -66.11,-144.19 -131.33,-166.87 -41.04,-14.27 -93.9,-0.83 -77.52,55.49 4.85,16.67 3.64,5.4 15.98,16.89 12.49,11.63 28.24,32.52 35.88,47.41 9.94,19.37 15.18,28.33 15.03,47.35 -0.13,16.6 -21.24,30.33 -40.74,-1.6z"/>
   <path class="fil11" d="M2606.2 4759.89c-11.01,-3.47 2,7.02 -8.42,-1.55 4.94,-6.11 3.26,-0.65 2.23,-7.19 -6.76,10.86 -7,4.87 -7.56,3.72l-0.88 -2.46c-9.34,9.7 -4.64,4.21 -8.42,3.61l-16.95 1.06c-4.22,1.45 -0.99,2.7 -3.52,1.58 -0.49,-0.22 -0.75,0.44 -1.16,0.57 19.12,-37.43 22.74,-73.28 19.2,-108.42 -6.8,-67.54 -57.69,-89.47 -69.12,-78.8l-7.87 13.77c5.43,7.87 6.76,13.51 6.54,20.26 -0.87,26.59 -10.26,98.6 -39.47,103.35 -11.36,1.85 -27.38,-11.73 -17.33,-35.01 -34.67,42.04 -37.34,124.19 14.95,157.34 26.31,16.69 55.98,17.46 79.62,4.26 34.63,-19.33 42.91,-43.97 58.17,-76.1z"/>
   <path class="fil12" d="M2511.6 4572.02c3.54,-11.37 17.63,-22.91 29.02,-24.5 49,-6.85 71.34,53.21 78.39,91.68l1.94 50.78c-0.45,4.74 -1.2,3.73 -1.46,9.68 -0.82,19.05 -7.37,42.24 -13.29,60.24 -15.26,32.13 -23.54,56.77 -58.17,76.1 -23.63,13.19 -53.31,12.42 -79.62,-4.26 -52.29,-33.15 -49.62,-115.3 -14.95,-157.34 -10.05,23.28 5.97,36.86 17.33,35.01 29.21,-4.75 38.59,-76.76 39.47,-103.35 0.22,-6.76 -1.1,-12.4 -6.54,-20.26l7.87 -13.77zm101.91 -22.78c-19.76,-27.5 -48.45,-38.39 -76.99,-32.12 -0.34,0.07 -0.83,0.22 -1.17,0.3 -0.34,0.08 -0.83,0.19 -1.17,0.28 -20.5,4.82 -35.42,20.84 -48.13,35.37 -16.28,18.59 -33.06,49.95 -42.88,72.83 -8.48,19.73 -9.17,25.39 -14.53,40.34l-9.7 59.28c-2.98,22.7 1.31,12.93 0.68,25.34l1.32 11.97c4.23,20 -0.04,7.37 7.15,27.58l11.1 26.39c7.2,11.31 26.51,32.06 41.79,36.43l19.33 4.91c1.89,0.3 2.3,0.27 3.62,0.42 65.02,7.45 117.55,-40.22 143.05,-100.44 19.5,-46.06 17.94,-106 -0.41,-151.78 -12.42,-30.98 -13.4,-29.75 -33.05,-57.09z"/>
   <path class="fil13" d="M2409.49 4137.1c24.85,17.23 48.18,48.5 75.94,66.94 13.29,8.83 24.47,12.99 37.95,19.43 7.42,3.55 35.96,24.33 36.15,24.39 9.15,10.22 23.66,20.78 33.98,33.14 8.65,10.35 17.37,22.31 24.44,33.87 24.38,39.83 44.81,92.96 26.83,137.43 -6.22,15.38 -17.04,23.55 -22.52,34.06 -4.67,8.97 -14.37,27.09 -30.19,33.27 0.33,0.41 0.8,0.87 1.07,1.17 0.27,0.3 0.72,0.8 1.04,1.16l5.94 6.67c2.72,2.8 5.81,5.48 8.63,8.33 31.83,32.22 51.7,74.17 57.77,118.17 2.96,21.42 2.88,47.89 -1.61,69.4 -2.69,12.85 -5.99,23.14 -11.28,35.61l-17.2 33.13 1.63 -0.79c-10.74,24.52 -15.83,54.94 -33.15,79.61 -26.97,38.4 -25.09,31.19 -44.17,79.82 -20.09,51.2 -40.31,116.67 -99.7,146.23 7.76,1.06 54.37,-31.98 64.79,-42.56 21.69,-22.02 30.34,-43.6 40.36,-67.77 11.83,-28.55 30.17,-79.41 44.66,-102.83 8.2,-13.26 17.81,-22.48 24.89,-34.61 6.61,-11.33 10.4,-22.86 14.66,-33.89 10.38,-26.9 24.28,-78.69 29.49,-102.37 2.56,-11.67 4.95,-22.92 6.75,-33.97 5.75,-35.4 -5.05,-63.15 -14.94,-101.2 -5.59,-21.5 -12.13,-45.21 -15.47,-66.5 -3.24,-20.63 -3.9,-46.54 -4.3,-67.95 -0.85,-45.26 7.28,-98.43 -9.96,-135.27 -10.74,-22.94 -30.6,-45.5 -51.36,-67.36 -23.52,-24.77 -46.06,-28.15 -69.34,-42.21 -42,-25.37 -76.29,-80.87 -134.74,-101.76 1.41,7.6 18.33,31 22.97,39.2z"/>
   <path class="fil14" d="M2368.56 5023.12c-65.26,67.91 -88.52,-11.7 -29.15,-63.11 -2.03,18.05 7.83,21.88 22.4,21.15 0.04,0.41 0.06,0.98 0.07,1.23 0.02,0.25 0.06,0.92 0.08,1.23l-0.11 9.71c-3.23,15.37 -10.36,13.53 6.71,29.78zm-57.47 43.81c11.83,8.52 18.37,11.15 31.92,11.97 9.67,0.58 23.41,-2.24 33.98,-7.49 29.17,-14.48 41.69,-31.77 61.49,-60.41 13,-8.73 26.43,-61.12 27.7,-74.28 1.28,-13.24 1.68,-23.4 -1.17,-37.49 -1.89,-9.31 -8.75,-30.59 -19.7,-35.31 -7.98,1.08 -18.06,10.73 -24.03,17.35 1.86,14.84 -1.23,20.89 -8.66,37.28 -39.45,87.08 -86.48,61.27 -62.02,23.14 -34.97,23.59 -49.63,54.99 -49.05,93.94 0.12,7.95 1.81,23.35 9.54,31.29z"/>
   <path class="fil15" d="M2511.6 4572.02c11.43,-10.67 62.32,11.26 69.12,78.8 3.54,35.13 -0.08,70.99 -19.2,108.42 0.41,-0.13 0.67,-0.78 1.16,-0.57 2.53,1.12 -0.69,-0.13 3.52,-1.58l16.95 -1.06c3.78,0.61 -0.92,6.09 8.42,-3.61l0.88 2.46c0.56,1.15 0.8,7.14 7.56,-3.72 1.03,6.54 2.71,1.08 -2.23,7.19 10.43,8.56 -2.59,-1.92 8.42,1.55 5.92,-18 12.46,-41.2 13.29,-60.24 0.26,-5.95 1.01,-4.93 1.46,-9.68l-1.94 -50.78c-7.05,-38.46 -29.39,-98.53 -78.39,-91.68 -11.39,1.59 -25.49,13.13 -29.02,24.5z"/>
   <path class="fil16" d="M2467.37 4407.08c9.44,27.98 18.97,61.13 52.11,77.06 9.85,4.74 22.04,8.7 30.98,2.02 0.66,-0.49 4.19,-3.93 4.58,-4.48 5.04,-6.94 3.34,-18.02 3.44,-26.9l-1.62 -15.81c-0.92,-3.13 -1.49,-1.75 -2.75,-5.65 7.85,3.81 1.69,-2.91 -0.48,-7.54 -2.94,-6.28 -1.21,-0.94 -2.08,-6.06l-0.31 -3.62c-1.03,-6.57 -3.37,-8.98 -6.15,-15.63 -2.64,-6.32 -3.07,-6.64 -7.72,-13.26 -12.77,-18.21 -28.95,-36.67 -47.47,-52.09l1.53 7.22c1.96,4.89 6.9,10.84 9.91,20.3 10.83,34.04 -1.18,71.81 -33.97,44.44z"/>
   <path class="fil17" d="M2337.19 5096.62l10.2 5.57c-3.26,-1.52 -6.74,-3.41 -10.2,-5.57z"/>
   <path class="fil17" d="M2337.19 5096.62l10.2 5.57c3.04,1.41 5.88,2.51 8.36,3.2 13.92,3.91 34.44,2.86 49.5,-3.2 29.54,-11.9 70.19,-52.63 80.27,-82.87 0.18,-2.7 -2.25,-0.78 0.52,-4.76 -3.38,3.48 -4.04,3.78 -7.24,4.64 -2.59,-2.41 -5.12,-5.43 -8.29,-6.87 -10.5,-4.78 -17.37,1.91 -22.3,6.79 -8,-2.09 -2.07,-5.81 -9.73,-2.71 4.7,-5.65 1.37,-0.44 -0.01,-5.4 -19.81,28.64 -32.33,45.92 -61.49,60.41 -10.57,5.25 -24.31,8.07 -33.98,7.49 -13.55,-0.81 -20.09,-3.44 -31.93,-11.97 1.26,10.47 13.59,21.87 26.11,29.69z"/>
   <path class="fil18" d="M2438.48 5011c1.39,4.96 4.72,-0.25 0.01,5.4 7.66,-3.09 1.73,0.63 9.73,2.71 4.92,-4.88 11.79,-11.57 22.3,-6.79 3.17,1.44 5.7,4.47 8.29,6.87 3.2,-0.86 3.86,-1.16 7.24,-4.64 -2.77,3.97 -0.34,2.06 -0.52,4.76 22.17,-37.31 35.77,-105.98 6.03,-142.01 -14.22,-17.22 -30.31,-21.2 -46.25,-13.37 10.95,4.72 17.81,26 19.7,35.31 2.85,14.09 2.45,24.24 1.17,37.49 -1.26,13.16 -14.69,65.55 -27.7,74.28z"/>
   <path class="fil19" d="M2368.56 5023.12c-17.07,-16.25 -9.94,-14.42 -6.71,-29.78l0.11 -9.71c-0.02,-0.31 -0.06,-0.98 -0.08,-1.23 -0.01,-0.25 -0.03,-0.82 -0.07,-1.23 -14.57,0.72 -24.43,-3.11 -22.4,-21.15 -59.37,51.4 -36.11,131.01 29.15,63.11z"/>
   <path class="fil20" d="M2393.04 4189.99c-11.76,-3.36 -31.27,-2.45 -43.51,5.62 -15.04,9.91 -18.6,34.48 -14.33,45.05 14.81,36.67 63.92,-28.31 57.85,-50.67z"/>
   <path class="fil5" d="M2316.57 4464.6c-3.93,3.78 -1.28,2.31 -6.61,3.56 -2.07,2.35 -26.37,17.6 -35.83,25.78 -33.8,29.19 -54.83,64.75 -63,109.99 -3.43,19 -1.85,19.72 12.49,44.06 4.01,6.8 7.22,12.36 11.03,19.31 3.33,6.07 7.21,11.54 11.43,19.06 3.76,6.7 6.24,13.04 9.72,20.02l15.76 30.01c1.98,4.32 1.85,5.2 4.41,9.69l16.55 35.67c2.42,6.29 1.11,0.95 0.87,5.06 13.07,15.61 48.21,128.67 56.55,156.98 9.21,31.28 32.07,137.91 30.28,171.78 -3.72,-5.9 -4.74,-11.06 -7.67,-17.99 -27.39,-64.82 -69.79,-113.87 -116.02,-165.3 -16.85,-18.74 -42.11,-40.97 -53.48,-53.85 -6.6,-5.22 -14.02,-12.19 -19.98,-17.78 -6.65,-6.24 -13.09,-11.18 -19.69,-17.82 -5.88,-4.24 -38.33,-29 -40.08,-32.46 -7.39,-2.4 -29.31,-18.79 -38.27,-24.37 -11.93,-7.42 -26.44,-16.73 -39.37,-22.79 -5.93,-3.24 -18.72,-7.79 -21.89,-13.02 -6.44,-1.26 -13.17,-4.7 -18.73,-7.9 -34.13,-12.71 -62.65,-26.35 -100.82,-34.21 -15.57,-3.21 -33.91,-6.14 -49.28,-6.87 -15.04,-0.72 -32.17,0.73 -46.04,-0.44 -2.88,1.22 -14.61,2.09 -19.24,2.86l-38.34 9.69c-5.59,1.87 -13.74,6.01 -18.03,5.71 -5.89,5.05 -9.83,5.99 -16.21,9 -16.07,7.59 -38.52,27.48 -44.8,28.78 -3.17,6.58 -11.31,11.58 -17.67,17.73 -4.23,4.09 -12.5,14.64 -16.17,17.03l-12.63 17.66c6.46,-2.63 7.18,-4.38 13.4,-5.06 3.81,-3.31 41.22,-18.44 47.11,-16.44 6.5,-4.47 15.05,-5.17 23.12,-6.64 7.15,-1.3 16.49,-3.02 23.57,-2.52 13.22,-2.81 42.24,-0.24 57.69,2.87 22.44,4.52 40.27,12.43 58.72,23.07l18.02 12.91c23.06,13.88 54.76,58.11 66.96,81.78 18.8,36.47 24.93,60.39 39.67,95.52l29.24 60.76c3.21,3.36 5.39,7.11 6.98,11.38 2.89,3.74 9.72,15.02 10.81,18.51 4.72,3.42 4.31,3.46 5.63,9.04 4.19,2.33 18.76,24.25 24.09,30.76 4.5,5.51 8.25,10.46 13.06,15.78 3.42,3.78 10.32,10.06 12.44,14.28 3.43,1.85 17.74,15.61 20.21,20.14l4.79 3.97c5.08,3.11 11.21,7.46 13.37,12.15l37.93 26.91 23.13 13.74c15.3,5.42 54.33,29.07 86.18,33.04 9.67,1.21 22.87,-10.28 32.53,-15.33 3.44,-1.8 7.24,-4.09 11.09,-6.15l73.74 -41.68c15.11,-9.81 36.59,-20.41 53.2,-30.67l42.38 -23.99c11.8,-6.08 10.31,-5.32 16.26,-20.51 8.81,-22.49 11.22,-42.28 15.48,-65.07 0.31,-7.45 -0.05,-17.02 2.69,-24.1 -1.74,-3.78 -1.21,-8.82 -1.27,-13.3 -0.06,-4.23 -0.15,-8.2 -0.17,-12.06 -0.04,-8.69 -1.03,-16.15 -1.42,-24.88 -0.57,-6.69 -3.37,-16.05 -1.89,-22.33 -2.69,-4.38 -12.18,-49.49 -12.43,-51.8 -2.72,-4.41 -7.91,-22.51 -10.18,-28.42 -8.51,-22.17 -25.89,-60.5 -37.98,-80.67 -9.99,-16.68 -20.67,-33.73 -32.89,-50.68 -9.28,-12.86 -44.92,-61.38 -51.59,-74.2 -5.66,-10.89 -8.3,-15.43 -14.51,-25.86 -17.2,-28.86 -36.24,-80.77 -37.01,-115.22 -0.31,-14.09 3.28,-58.86 18.62,-68.55 1.91,-6.62 4.58,-5.95 8,-11.8 -7.2,1.2 -10.91,6.22 -18.02,6.69z"/>
   <path class="fil5" d="M2485.09 4363.95c-5.24,2.48 -17.65,-1.08 -24.46,-1.85l-24.06 -2.65 -18.93 -0.92c-8.76,-0.96 -40.56,0.48 -44.8,-1.74 -7.28,4.02 -20.31,2.8 -28.26,3.63 -12.93,0.56 -26.59,3.5 -39.07,6.18l-35.8 10.96c-5.95,4.7 -14.16,7.69 -19.81,11.17 -3.26,2 -5.37,3.16 -9.04,5.5 -4.41,2.81 -3.5,3.52 -9.47,5.17l-6.43 7.56c-8.06,7.56 -14.51,15.27 -20.76,25.37 -21.25,34.31 -23.31,79.43 -17.01,118.25 1.11,6.87 3.21,15.26 3.51,22.08 2.35,3.61 5.85,24.07 9.3,31.45 4.9,-31.59 6.04,-46.16 23.4,-75.17 7.5,-12.54 35.77,-48.21 44.36,-50.63 4.56,-6.09 15.61,-13.94 21.27,-18.17 3.89,-2.91 7.62,-4.95 11.5,-7.68 4.11,-2.9 8.48,-5.34 12.89,-6.22l6.5 -3.76c8.15,-8.99 40.63,-20.79 54.96,-26.74 10.45,-4.08 23.92,-9.03 35.35,-12.31 6.54,-1.88 12.39,-3.43 18.82,-5.4 6.23,-1.91 13.19,-5.04 18.97,-4.1l11.62 -4.3c9.93,-2.17 27.68,-6.38 36.43,-6.45 3.94,-2.63 33.57,-5.85 42.33,-8.32l-53.29 -10.89z"/>
   <path class="fil5" d="M2308.04 5315.83l7.65 2.12c6.33,-6.25 49.46,-28.83 60.71,-35.13 10.56,-5.91 19.85,-11.17 30.54,-16.96 8.77,-4.76 22.35,-14.91 31.48,-16.4 1.08,-1.37 0.09,-0.44 1.98,-2.03 0.94,-0.79 1.36,-1.12 2.47,-1.77 3.89,-2.28 2.28,-1.63 5.62,-2.05 3.57,-3.92 5.2,-4.34 9.92,-7.02 1.92,-1.09 3.74,-2.24 5.61,-3.15 3.59,-1.74 1.61,-1.11 5.52,-2.08l6.55 -3.99 42.59 -23.91 0.56 -2.03c-7.3,-11.45 -22.07,-42.7 -29.58,-50.18l-207.14 117.1c1.7,6.72 23.06,38.69 25.51,47.46z"/>
   <path class="fil4" d="M2189.41 4653.13c-8.44,0.39 -69.05,31.85 -74.19,43.9 -7.22,16.93 8.76,36.98 16.97,51.33 18.6,32.54 33.72,19.89 65.36,1.36 8.37,-4.9 30.48,-14.13 35.48,-25.34 6.78,-15.18 -2.81,-27.38 -11.06,-41.39 -5.65,-9.59 -12.59,-30.79 -32.56,-29.86z"/>
   <path class="fil4" d="M2097.44 4580.72l-17.93 12c-6.33,3.56 4.24,-2.09 -1.88,0.93 -9.54,4.7 -13.41,8.43 -16.06,23.19 1.26,13.17 10.18,24.13 16.03,34.79 18.57,33.83 27.82,32.9 65.8,8.84 11.69,-7.41 22.33,-12.01 34.17,-20.04 5.3,-8.93 6.9,-11.64 6.15,-22.74 -4.79,-10.04 -5.43,-13.28 -12.68,-25.08l-7.23 -12.93c-13.86,-28.72 -36.03,-15.61 -53.28,-5.24 -4.83,2.9 -8.31,5.36 -13.08,6.27z"/>
   <path class="fil4" d="M1967.3 4654.37c-4.33,9.41 -31.08,8.85 0.9,57.25 11.7,4.81 23.06,8.52 34.55,13.57 4.94,2.17 11.41,6.26 15.29,5.81 4.55,-0.52 6.41,-4.43 12.89,-5.55l10.23 -7.17c19.1,-9.26 17.37,-9.25 30.19,-19.51l3.82 -14.9c-1.76,-16.57 -17.08,-29.78 -18.38,-40.67 -6.23,-5.54 -7.52,-15.44 -20.68,-18.57 -19.23,-4.57 -52.3,26.24 -68.8,29.73z"/>
   <path class="fil4" d="M2178.12 4778.7c-5.51,8.26 -8.86,6.28 -11.28,20.78 -0.14,11 6.61,20.08 11.88,28.36 6.22,9.75 6.91,17.03 17.62,25.65 16.46,5.89 22.41,1.37 32.11,-4.01 8.8,-4.87 17.63,-10.23 25.73,-14.72 19.35,-10.75 36.55,-21.34 18.77,-48.53l0.04 -1.94c-10.94,-12.52 -11.43,-32.77 -36.64,-34.54 -9.98,0.87 -22.19,9.39 -29.81,13.67 -6.95,3.91 -22.5,14.12 -28.41,15.28z"/>
   <path class="fil4" d="M1920.58 4570.54c-3.95,5.09 -10.14,11.04 -10.28,21.07 -0.1,7.46 4.84,14.25 7.63,18.98 5.61,9.51 11.44,24.69 21.4,32.53 17.96,7.61 23.99,2.12 47.49,-12.33 22.63,-13.91 32.44,-12.53 37.26,-33.63 -1.4,-14.3 -5.81,-17.72 -12.35,-29.92 -4.91,-9.15 -8.58,-19.66 -21.19,-25.5 -15.26,-4.68 -28.26,5.89 -36.98,11.04 -7.91,4.67 -25.39,15.63 -32.98,17.76z"/>
   <path class="fil4" d="M2015.54 4530.97c1.27,15.02 5.93,19.01 11.91,29.83 4.81,8.7 9.05,18.93 19.72,25.59 23.89,7.63 33.29,-12.43 48.8,-14.82 7.36,-8.09 40.58,-14.6 32.3,-41.06 -1.45,-4.65 -20.98,-41.09 -28.97,-44.83 -19.49,-10.03 -34.63,6.32 -46.5,12.56 -6.59,3.46 -14.43,8.02 -21.26,11.81 -9.2,5.11 -12.47,7.13 -16,20.91z"/>
   <path class="fil4" d="M1918.04 4467.47c-8.91,10.05 -37.15,18.07 -45.31,28.32 -10.81,13.55 3.15,30.07 15.31,51.45 14.66,25.8 33.34,8.84 48.14,0.59 20.88,-11.64 38.81,-17.46 41.34,-35.04 -3.16,-12.05 -13.67,-28.45 -19.74,-39.05 -12.47,-21.74 -24.1,-13.11 -35.11,-7.78 -3.27,1.58 -1.82,1.15 -4.61,1.51z"/>
   <path class="fil4" d="M1918.35 4656.68c1.25,-12 -7.33,-22.08 -11.68,-30 -4.4,-8 -8.84,-18.6 -17.85,-25.42 -21.28,-7.4 -35.73,7.04 -62.09,21.78 -38.42,21.48 -16.04,35.34 -10.52,53.33 19.23,4.21 44.03,7.32 64.28,10.66 7.94,1.31 16.86,-6.22 22.09,-9.37 9.28,-5.59 13.13,-7.6 15.78,-20.98z"/>
   <path class="fil4" d="M2133.99 4346.11c-4.42,4.26 -8.9,5.68 -14.87,9.23l-41.9 23.02c-12.39,19.31 -1.28,28.61 5.39,40.55 20.91,37.44 21.37,34.66 65.6,9.37 5.76,-3.29 10.37,-6.59 17.41,-10.05 9.52,-4.67 12.09,-7.48 14.41,-20.15 -5.25,-13.54 -10.19,-20.73 -16.48,-32.29 -7.02,-12.9 -9.21,-20.79 -29.54,-19.68z"/>
   <path class="fil4" d="M1834.57 4516.05c-3.09,2.67 -10.9,5.96 -15.02,8.37 -5.62,3.28 -10.07,5.38 -15.76,8.69 -10.62,6.17 -20.93,11.46 -31.04,17.91 -6.19,8.53 -4.69,12.06 -5.69,20.49 9.64,9.69 12.44,18.42 18.42,30.16 15.35,30.13 30.46,13.95 60.38,-2.85 9.43,-5.29 20.99,-9.68 28.51,-20.03 3.61,-11.81 -0.59,-13.99 -1.97,-20.86 -2.52,-2.23 -1.93,-0.05 -2.39,-4.57 -4.3,-3.85 -9.81,-14.78 -13.72,-22.17 -6.64,-12.55 -6.72,-10.69 -21.71,-15.14z"/>
   <path class="fil4" d="M1969.41 4449.96c0.93,9.17 8.68,19.88 12.59,27.07 5.56,10.24 7.44,14.52 15.31,24.31 16.52,6.09 23.2,-1.06 32.9,-6.52 55.5,-31.23 56.01,-28.72 36.39,-64.41 -3.4,-6.18 -10.26,-21.43 -17.95,-25.37 -12.29,-6.3 -23,3.13 -29.99,7.03 -9.37,5.23 -17.52,9.64 -26.78,14.95 -9.07,5.2 -18.59,7.03 -22.46,22.93z"/>
   <path class="fil4" d="M1958.32 4426.38c10.78,-0.51 23.39,-9.85 31.15,-14.29 34.41,-19.69 49.71,-20.7 33.03,-50.37l-17.14 -31.24c-8.65,-2.54 -12.35,-7.46 -22.18,-2.61 -6.23,3.08 -11.43,6.46 -17.54,9.84 -45.47,25.13 -52.67,23.85 -34.31,57.33 8.29,15.11 12.78,27.77 26.99,31.33z"/>
   <path class="fil4" d="M1736.59 4493.56c4.85,4.04 7.98,12.35 11.46,18.56 4.9,8.76 5.31,9.46 12.36,18.1 8.41,2.61 12.68,4.16 19.08,0.71l27.68 -15.51c4.15,-2.24 8.67,-5.56 13.59,-8.18 29.05,-15.49 21.86,-22.33 4.41,-53.32 -19.09,-33.89 -23.72,-23.59 -79.84,8.06 -20.2,11.4 -9.59,26.37 -8.74,31.58z"/>
   <path class="fil4" d="M2019.48 4308.53c-6.74,16.96 -1.46,18.21 10.43,39.26 12.38,21.91 7.79,21.62 29.61,25.42 6.87,-6.31 26.99,-16.4 35.79,-21.19 6.24,-3.4 11.27,-6.54 17.59,-9.83 8.48,-4.41 10.78,-7.74 10.9,-19.78 -2.23,-8.85 -12.24,-21.94 -16.89,-31.6 -5.15,-10.68 -12,-23.57 -27.89,-17.02 -9.03,3.72 -51.58,28.26 -59.55,34.76z"/>
   <path class="fil4" d="M1827.19 4426.72l21.69 41.73c12.89,21.31 31.19,5.38 42.83,-1.36 6.16,-3.57 23.17,-14.02 29.75,-15.27l0.67 -0.36c3.32,-3.69 1.72,-1.61 4.76,-3.94 2.05,-1.56 1.53,-0.33 4.05,-3.5 2.23,-2.8 3.57,-6.25 3.73,-10.07 0.28,-11.28 -10.97,-25.61 -16.43,-35.13 -3.27,-5.72 -3.55,-11.09 -10.32,-16.09 -14.18,-10.48 -33.35,6.24 -53.02,17.26 -15.69,8.79 -24.89,10.79 -27.72,26.74z"/>
   <path class="fil4" d="M2278.76 4928.21c8.46,-9.13 23.07,-15.33 34.34,-19.68 1.8,-6.08 11.01,-4.13 6.99,-17.14 -4.42,-14.31 -14.2,-48.24 -29.41,-53.21 -9.64,-3.15 -15.47,2.02 -20.8,4.93 -10.09,5.51 -48.15,26.09 -51.56,31.56 2.43,4.36 35.85,34.79 45.36,44.88 8.92,9.46 4.96,8.72 15.09,8.65z"/>
   <path class="fil4" d="M1817.59 4329l-0.71 1.02c-3.96,4.02 -5.33,3.61 -10.02,6.47 -4.43,2.7 -4.23,3.86 -7.64,6.71 -3.93,13.85 -0.23,16.93 4.42,25.57 3.47,6.44 7.26,14.3 11.46,20.32 13.89,19.93 32.78,2.88 44.08,-3.13 7.39,-3.93 14.02,-7.74 21.16,-12.02 20.83,-12.46 9.32,-26.07 0.76,-41.66l-11.91 -18.79c-16.06,-6.22 -18.15,-1.95 -28.2,3.82 -4.12,2.36 -6.98,3.89 -11.05,6.25 -5.2,3.02 -6.35,4.43 -12.35,5.44z"/>
   <path class="fil4" d="M1803.74 4414.91c9.02,-7.92 -1.59,-22.6 -4.51,-27.83 -4.8,-8.58 -7.53,-16.32 -15.8,-23.92 -15.43,-8.52 -25.98,3.22 -48.71,15.65 -4.72,2.58 -16.9,7.02 -20.58,14.93 -5.18,11.12 2.17,20.11 5.48,26.28 7.84,14.59 15.08,36.95 39.53,23.46 8.83,-4.87 38.79,-19.61 44.6,-28.57z"/>
   <path class="fil4" d="M1940.57 4260.92c-1.91,0.2 -52.46,25.71 -56.16,34 -2.89,6.5 -2.06,11.79 0.67,16.87 2.82,5.24 5.29,9.63 8.28,14.74 4.28,7.33 9.86,24.04 25.12,22.69 6.69,-0.59 23.38,-11.12 29.58,-14.63 6.44,-3.64 23.6,-11.82 27.06,-18.68 6.09,-12.09 -4.37,-24.82 -8.26,-32.18 -4.04,-7.65 -10.56,-24.49 -26.29,-22.81z"/>
   <path class="fil4" d="M1969.6 4245.03c-2.91,9.33 -1.56,12.72 1.92,19.02 20.82,37.66 16.4,36.06 41.23,33.85 6.88,-9.45 44.42,-19.27 49.02,-35.14 2.94,-10.14 -6.22,-22.26 -9.69,-28.46 -4.75,-8.51 -7.74,-19.19 -21.14,-23.01 -10.06,0.45 -9.61,1.53 -16.76,5.84 -12.94,7.81 -35.33,17.16 -44.58,27.9z"/>
   <path class="fil4" d="M1898.8 4201.48c-10.1,-0.54 -48.19,21.98 -51.57,28.41 -6.77,12.9 2.34,22.91 6.54,30.29 16.22,28.58 22.91,22.29 48.37,8.28 32.69,-18 31.24,-22.6 17.43,-46.71 -4.15,-7.24 -7.71,-19.57 -20.77,-20.27z"/>
   <path class="fil4" d="M1695.77 4316.63c-3.93,16.6 2.11,15.93 7.34,27.52 13.6,30.08 26.85,21.2 45.94,10.52l17.39 -9.98c1.51,-0.93 1.29,-0.88 2.77,-1.72l4.37 -2.2c7.33,-19.32 4.86,-18.57 -2.91,-32.36 -3.94,-7 -8.89,-20.8 -22.59,-21.98 -8.41,-0.73 -46.83,19.86 -52.31,30.2z"/>
   <path class="fil4" d="M1818.88 4315.96c5.04,-4.78 10.44,-6.65 16.73,-10.31 3.02,-1.75 5.39,-2.83 8.2,-4.82 3.2,-2.26 3.84,-3.96 7.86,-5.78 2.06,-15.79 2.1,-15.44 -4.4,-26.33 -18.7,-31.38 -18.33,-32.69 -59.32,-8.65 -24.96,14.64 -21.49,20.12 -9.66,41.62 18.64,33.88 24.98,17.69 40.59,14.26z"/>
   <path class="fil4" d="M1957.27 4237.65c4.37,-3.88 11.32,-7.82 17.98,-11.91 10.71,-6.57 30.1,-10.2 28.24,-28.37 -0.85,-8.26 -6.32,-11.42 -7.89,-19.22 -3.46,-2.47 -4.16,-5.63 -4.76,-8.26 -5.58,-4.61 -8.49,-9.49 -19.63,-11.35 -12.82,5.14 -46.69,20.46 -50.34,32.51 -3.69,12.17 2.48,14.42 10.48,30.12 7.31,14.33 9.04,14.12 25.93,16.49z"/>
   <path class="fil4" d="M2122.49 4483.72c0.72,1.92 5.02,8.37 6.61,11.01 2.63,4.36 5.08,8.37 7.32,12.91 5.31,10.79 7.81,17.59 21.91,22.61l6.38 0.27c1.26,-18.44 -0.57,-30.7 4.67,-51.48 5.11,-20.29 11.54,-35.62 18.89,-54.52 -9.33,1.09 -13.24,6.43 -20.57,10.21 -12.79,6.59 -4.26,0.63 -20.36,11.26 -13.12,8.67 -30.35,10.28 -24.83,37.72z"/>
   <path class="fil4" d="M2033.07 4737.9c1.74,2.5 -0.65,0.43 3.04,2.88 1.43,0.95 2.53,1.36 4.39,2.3 2.62,1.31 7.41,4.1 8.04,4.6 20.94,8.8 67.86,43.06 72.6,42.59 10.93,-16.27 1.94,-27.74 -3.46,-37.36 -13.04,-23.24 -22.03,-51.47 -54.59,-32.3 -10.95,6.45 -21.19,11.05 -30.03,17.3z"/>
   <path class="fil4" d="M1923.04 4113.61c-6.17,0.85 -40.26,17.9 -44.02,25.99 -4.71,10.14 11.52,42.31 25.74,41.23 5.82,-0.44 40.1,-18.63 43.85,-25.95 5.24,-10.23 -3.24,-18.91 -6.57,-24.94 -3.3,-5.98 -7.11,-17.98 -19.01,-16.33z"/>
   <path class="fil4" d="M1792.34 4187.67c-7.83,0.77 -40.51,17.94 -44.26,25.74 -5.06,10.54 3.44,17.98 7.04,24.78 3.27,6.17 6.48,17.75 18.81,16.59 6.62,-0.62 40.52,-19.41 43.8,-26.07 4.81,-9.8 -2.13,-16.53 -6.88,-24.5 -4.39,-7.38 -6.5,-17.72 -18.5,-16.54z"/>
   <path class="fil4" d="M1724.37 4225.16c-3.39,0.77 -39.53,19.33 -42.31,25.88 -3.97,9.35 4.16,18.56 7.35,24.31 3.43,6.17 6.8,18.41 20.28,16.39 2.72,-0.41 39.17,-18.77 42.51,-26.41 4.33,-9.91 -3.52,-18.96 -6.95,-25.23 -3.52,-6.44 -7.9,-17.9 -20.89,-14.94z"/>
   <path class="fil4" d="M1855.69 4151.15c-8.03,1.7 -15.32,6.93 -22.34,10.81 -31.94,17.7 -22,21.85 -12.2,40.03 12.05,22.36 15.31,19.76 42.11,4.23 30.85,-17.88 23.02,-19.66 12.38,-39.86 -4.21,-7.99 -6.75,-18 -19.95,-15.21z"/>
   <path class="fil4" d="M2327.03 4933.26c-5.85,3.45 -11.37,6.3 -17.65,9.74 -3.6,1.97 -5.63,3.24 -9.26,5.19 -5.26,2.82 -4.99,1.41 -7.63,6.77 3.78,1.89 21.22,25.2 24.46,29.37l22.93 29.32c5.89,-3.43 5.92,-4.13 13.39,-6.03 0.97,-14.47 -15.94,-57.6 -19.04,-74.86l-7.2 0.5z"/>
   <path class="fil4" d="M1813.63 4116.2c-3.94,8.57 -22.72,8.15 -26.54,20.68 -2.93,9.6 6.69,28.84 20.03,28.15 4.99,-0.26 26.08,-12.32 29.91,-15.93 11.04,-10.39 -1.38,-27.77 -8.63,-32.74 -5.94,-2.15 -9.99,-1.08 -14.76,-0.16z"/>
   <path class="fil4" d="M1684.12 4196.41c-0.71,6.39 1.43,8.06 2,12.02 0.28,0.31 0.79,0.41 0.8,0.97 0.02,0.56 0.61,0.74 0.78,0.96l5.12 7.05c3.35,3.72 7.71,4.83 13.45,5.81 6.65,-5.08 23.87,-11.16 29.26,-16.99 9.49,-10.24 -2.09,-25.97 -8.01,-31.65 -13.54,-4.07 -16.42,1.24 -24.76,5.88 -4.11,2.28 -6.09,3.48 -10.26,5.54 -5.91,2.92 -5.44,3.35 -8.38,10.39z"/>
   <path class="fil4" d="M1735.16 4170.76c1.14,4.84 7.7,18.95 12.86,21.67 8.93,4.7 19.43,-3.39 24.77,-6.4 6.17,-3.48 18.18,-7.25 17.7,-19.86 -0.26,-6.94 -8.12,-17.38 -12.87,-20.98 -12.14,-3.17 -17.24,3.09 -24.93,7.5 -7.15,4.11 -15.96,4.68 -17.54,18.07z"/>
   <path class="fil4" d="M1838.28 4104.95c-1.47,12.66 1.48,16.69 7.29,24.85 12.43,17.47 44.71,-10.85 46.28,-15.14 3.4,-9.31 -4.82,-20.75 -9.35,-25.37 -12.39,-6.31 -16.29,-0.9 -23.91,3.39l-20.31 12.28z"/>
   <path class="fil4" d="M1727.78 4118.34c-6.14,8.57 -3.76,8.78 0.18,15.99 2.29,4.2 4.06,12.08 11.31,11.93 5.98,-0.12 22.84,-13.04 30.57,-15.68 0.48,-10.42 -0.04,-7.84 -4.48,-16.2 -2.22,-4.19 -4.27,-9.73 -11.49,-9.37 -5.55,0.28 -20.03,11.27 -26.09,13.32z"/>
   <path class="fil4" d="M1791.14 4082.07c-2.06,2.67 -2.58,2.58 -6.41,4.63 -21.48,11.49 -24,11.03 -7.85,34.91 9.1,1.84 12.06,-2.2 18.3,-5.65 19.86,-10.97 20.7,-10.32 11.84,-26.37 -4.65,-8.43 -5.62,-8.91 -15.87,-7.52z"/>
   <path class="fil4" d="M1699.07 4170.77c8.6,-11.13 37.94,-10.29 24.82,-30.46 -4.92,-7.57 -3.19,-8.91 -11.58,-11.52 -4.12,0.59 -25.44,11.79 -28.11,14.87 -5.68,6.57 -1.43,11.61 1.55,15.79 4.08,5.74 3.95,9.78 13.31,11.33z"/>
   <path class="fil4" d="M1810.94 4072.03c-4.96,10.54 9.03,25.76 9.3,25.9 4.99,2.52 19.8,-7.57 26.47,-11.27 14.24,-7.9 5.18,-15.53 0.8,-24.63l-13.49 -3.74c-6.44,4.97 -16.34,8.96 -23.08,13.75z"/>
   <path class="fil4" d="M1945.85 4703.96c-2,-5.8 -5.47,-10.11 -11.67,-15.15 -16.65,-6.29 -19.26,-3.22 -30.48,3l42.15 12.15z"/>
   <path class="fil4" d="M2356.06 5040.04c2.47,3.45 5.32,7.31 6.84,10.37 1.08,-4.54 -3.01,-19.91 -4.25,-26 -2.95,0.07 -0.14,-0.5 -3.09,0.38l-5.5 2.44 6 12.81z"/>
   <path class="fil4" d="M1710.41 4085.48c-6.13,8.57 -3.76,8.78 0.18,16 2.3,4.2 4.06,12.08 11.31,11.93 5.98,-0.12 22.84,-13.04 30.57,-15.68 0.48,-10.42 -0.04,-7.84 -4.48,-16.2 -2.22,-4.19 -4.27,-9.73 -11.49,-9.37 -5.55,0.28 -20.03,11.27 -26.1,13.31z"/>
   <path class="fil4" d="M1775.44 4052.32c-2.06,2.67 -2.58,2.58 -6.41,4.63 -21.47,11.49 -24,11.03 -7.85,34.91 9.1,1.84 12.06,-2.2 18.3,-5.65 19.87,-10.98 20.7,-10.33 11.84,-26.37 -4.65,-8.43 -5.62,-8.91 -15.88,-7.52z"/>
   <path class="fil4" d="M1741.15 4028.04c-2.06,2.67 -2.57,2.58 -6.41,4.63 -21.47,11.49 -24,11.03 -7.85,34.91 9.11,1.84 12.06,-2.19 18.3,-5.65 19.86,-10.97 20.69,-10.32 11.84,-26.37 -4.65,-8.43 -5.62,-8.91 -15.88,-7.52z"/>
  </g>
 </g>
</svg>
