<?xml version="1.0" encoding="UTF-8"?>
<!DOCTYPE svg PUBLIC "-//W3C//DTD SVG 1.1//EN" "http://www.w3.org/Graphics/SVG/1.1/DTD/svg11.dtd">
<!-- Creator: CorelDRAW 2019 (64-Bit) -->
<svg xmlns="http://www.w3.org/2000/svg" xml:space="preserve" width="8.5in" height="11in" version="1.1" style="shape-rendering:geometricPrecision; text-rendering:geometricPrecision; image-rendering:optimizeQuality; fill-rule:evenodd; clip-rule:evenodd"
viewBox="0 0 8500 11000"
 xmlns:xlink="http://www.w3.org/1999/xlink"
 xmlns:xodm="http://www.corel.com/coreldraw/odm/2003">
 <defs>
  <style type="text/css">
   <![CDATA[
    .fil0 {fill:#FEFEFE}
    .fil1 {fill:#009934}
   ]]>
  </style>
 </defs>
 <g id="Layer_x0020_1">
  <metadata id="CorelCorpID_0Corel-Layer"/>
  <g id="_2632054202304">
   <ellipse class="fil0" cx="4250" cy="5500" rx="3407.68" ry="2726.15"/>
   <ellipse class="fil1" cx="4249.97" cy="5500" rx="3284.79" ry="2627.83"/>
   <ellipse class="fil0" cx="4250.02" cy="5500" rx="3149.34" ry="2519.46"/>
   <path class="fil1" d="M2380.48 4040.76c219.11,352.61 556.76,614.26 981.2,809.31 390.5,182.45 788.83,357.09 1196.05,522.83 585.24,231.8 1129.22,527.77 1631.81,888.12 32.86,23.56 43.51,-2.81 45.54,-6.44 164.31,-293.85 300.62,-1086.49 13.88,-1266.11 -367.99,-230.51 -760.35,-341.45 -1204.21,-403.4 -1349.93,-50.26 -2231.59,-52.81 -2843.32,-995.52 -286.92,554.2 499.18,1545.83 1366.8,2278.34 555.33,468.86 1785.38,1810 2314.5,525.64 293.72,235.05 510.78,541.97 651.71,920.26l185.28 -250.27c-304.69,-459.98 -590.73,-769.87 -1076.94,-1060.38 -736.54,-427.61 -1505.12,-779.07 -2306.17,-1117.27 -304.29,-154.77 -564.68,-340.61 -773.5,-562.22 -86.9,-87.2 -148.25,-181.37 -182.63,-282.9z"/>
  </g>
 </g>
</svg>
